<svg xmlns="http://www.w3.org/2000/svg" xmlns:xlink="http://www.w3.org/1999/xlink" width="500" zoomAndPan="magnify" viewBox="0 0 375 374.999991" height="500" preserveAspectRatio="xMidYMid meet" version="1.0"><defs><clipPath id="e7b09cc06c"><path d="M 22.269531 65.832031 L 353 65.832031 L 353 308.832031 L 22.269531 308.832031 Z M 22.269531 65.832031 " clip-rule="nonzero"/></clipPath></defs><g clip-path="url(#e7b09cc06c)"><path fill="#ffffff" d="M 310.617188 65.851562 L 64.3125 65.851562 C 41.113281 65.851562 22.25 84.726562 22.25 107.914062 L 22.25 267.15625 C 22.25 290.351562 41.121094 309.214844 64.3125 309.214844 L 310.609375 309.214844 C 333.804688 309.214844 352.671875 290.34375 352.671875 267.15625 L 352.671875 107.914062 C 352.671875 84.71875 333.796875 65.851562 310.609375 65.851562 Z M 310.617188 81.0625 C 314.730469 81.0625 318.625 81.996094 322.117188 83.652344 L 214.648438 178.953125 C 198.328125 193.429688 173.804688 193.3125 157.613281 178.683594 L 52.59375 83.753906 C 56.136719 82.03125 60.109375 81.0625 64.3125 81.0625 Z M 337.46875 267.15625 C 337.46875 281.964844 325.425781 294.007812 310.617188 294.007812 L 64.3125 294.007812 C 49.5 294.007812 37.457031 281.964844 37.457031 267.15625 L 37.457031 107.914062 C 37.457031 102.851562 38.871094 98.109375 41.316406 94.066406 L 147.414062 189.96875 C 158.457031 199.953125 172.371094 204.953125 186.28125 204.953125 C 200.195312 204.953125 213.746094 200.085938 224.738281 190.335938 L 333.5 93.894531 C 336.011719 97.980469 337.46875 102.789062 337.46875 107.929688 L 337.46875 267.167969 Z M 337.46875 267.15625 " fill-opacity="1" fill-rule="nonzero"/></g></svg>