<svg xmlns="http://www.w3.org/2000/svg" xmlns:xlink="http://www.w3.org/1999/xlink" width="500" zoomAndPan="magnify" viewBox="0 0 375 374.999991" height="500" preserveAspectRatio="xMidYMid meet" version="1.0"><defs><clipPath id="07de1090d0"><path d="M 34.511719 19.210938 L 340.511719 19.210938 L 340.511719 355.808594 L 34.511719 355.808594 Z M 34.511719 19.210938 " clip-rule="nonzero"/></clipPath></defs><g clip-path="url(#07de1090d0)"><path fill="#ffffff" d="M 65.742188 151.210938 L 85.945312 145.660156 C 92.53125 143.851562 98.539062 150.460938 98.539062 156.332031 L 98.539062 263.023438 C 98.539062 268.890625 92.53125 275.503906 85.945312 273.695312 L 47.109375 263.023438 C 40.519531 261.214844 34.515625 258.222656 34.515625 252.355469 L 34.515625 167 C 34.515625 161.660156 39.484375 158.703125 45.339844 156.851562 C 46.128906 133.699219 52.511719 111.472656 63.527344 91.871094 C 75.714844 70.179688 93.59375 51.664062 115.871094 38.632812 C 138.171875 25.582031 163.074219 19.058594 187.933594 19.058594 C 212.789062 19.058594 237.691406 25.582031 259.992188 38.632812 C 282.269531 51.664062 300.148438 70.179688 312.335938 91.871094 C 323.949219 112.53125 330.410156 136.113281 330.601562 160.617188 C 336.015625 162.480469 340.488281 165.414062 340.488281 170.546875 L 340.488281 255.90625 C 340.488281 261.355469 335.445312 264.324219 329.589844 266.167969 C 297.210938 330.875 263.382812 346.007812 242.371094 348.175781 C 240.128906 352.761719 235.414062 355.9375 229.988281 355.9375 L 189.246094 355.9375 C 181.667969 355.9375 175.46875 349.738281 175.46875 342.160156 L 175.46875 339.269531 C 175.46875 331.695312 181.667969 325.496094 189.246094 325.496094 L 229.988281 325.496094 C 235.09375 325.496094 239.574219 328.3125 241.953125 332.464844 C 256.851562 330.679688 281.640625 319.425781 308.238281 272.21875 L 290.441406 277.242188 C 284.03125 279.050781 278.1875 272.441406 278.1875 266.574219 L 278.1875 159.878906 C 278.1875 154.011719 284.03125 147.398438 290.441406 149.210938 L 310.382812 154.839844 C 309.3125 135.949219 303.886719 117.804688 294.828125 101.683594 C 284.332031 83.007812 268.972656 67.085938 249.863281 55.90625 C 230.785156 44.742188 209.378906 39.15625 187.933594 39.15625 C 166.484375 39.15625 145.078125 44.742188 126 55.90625 C 106.890625 67.085938 91.53125 83.007812 81.035156 101.683594 C 72.558594 116.769531 67.265625 133.628906 65.742188 151.210938 Z M 65.742188 151.210938 " fill-opacity="1" fill-rule="evenodd"/></g></svg>