<svg xmlns="http://www.w3.org/2000/svg" xmlns:xlink="http://www.w3.org/1999/xlink" width="500" zoomAndPan="magnify" viewBox="0 0 375 374.999991" height="500" preserveAspectRatio="xMidYMid meet" version="1.0"><defs><clipPath id="06a22f26b0"><path d="M 18.75 18.75 L 356.25 18.75 L 356.25 356.25 L 18.75 356.25 Z M 18.75 18.75 " clip-rule="nonzero"/></clipPath><clipPath id="1498e9ca7b"><path d="M 155 69 L 304 69 L 304 356.25 L 155 356.25 Z M 155 69 " clip-rule="nonzero"/></clipPath></defs><g clip-path="url(#06a22f26b0)"><path fill="#000000" d="M 337.597656 356.226562 C 347.882812 356.226562 356.222656 347.886719 356.222656 337.597656 L 356.222656 37.375 C 356.222656 27.085938 347.882812 18.75 337.597656 18.75 L 37.375 18.75 C 27.085938 18.75 18.75 27.085938 18.75 37.375 L 18.75 337.597656 C 18.75 347.886719 27.085938 356.226562 37.375 356.226562 Z M 337.597656 356.226562 " fill-opacity="1" fill-rule="nonzero"/></g><g clip-path="url(#1498e9ca7b)"><path fill="#ffffff" d="M 251.601562 356.226562 L 251.601562 225.539062 L 295.46875 225.539062 L 302.035156 174.605469 L 251.601562 174.605469 L 251.601562 142.085938 C 251.601562 127.34375 255.695312 117.292969 276.84375 117.292969 L 303.8125 117.28125 L 303.8125 71.726562 C 299.148438 71.109375 283.136719 69.71875 264.511719 69.71875 C 225.628906 69.71875 199.007812 93.457031 199.007812 137.042969 L 199.007812 174.605469 L 155.027344 174.605469 L 155.027344 225.535156 L 199.003906 225.535156 L 199.003906 356.226562 Z M 251.601562 356.226562 " fill-opacity="1" fill-rule="nonzero"/></g></svg>