<svg xmlns="http://www.w3.org/2000/svg" xmlns:xlink="http://www.w3.org/1999/xlink" width="500" zoomAndPan="magnify" viewBox="0 0 375 374.999991" height="500" preserveAspectRatio="xMidYMid meet" version="1.0"><defs><clipPath id="884dc1e452"><path d="M 20 20 L 356.25 20 L 356.25 358.140625 L 20 358.140625 Z M 20 20 " clip-rule="nonzero"/></clipPath></defs><g clip-path="url(#884dc1e452)"><path fill="#ffffff" d="M 260.808594 358.105469 C 260.253906 358.105469 259.703125 358.078125 259.152344 358.023438 C 258.601562 357.96875 258.054688 357.886719 257.511719 357.777344 C 256.96875 357.671875 256.433594 357.535156 255.902344 357.375 C 255.375 357.214844 254.855469 357.03125 254.34375 356.816406 C 253.832031 356.605469 253.332031 356.371094 252.84375 356.109375 C 252.355469 355.847656 251.882812 355.5625 251.421875 355.257812 C 250.960938 354.949219 250.519531 354.621094 250.089844 354.269531 C 249.664062 353.917969 249.253906 353.546875 248.863281 353.15625 C 248.472656 352.765625 248.101562 352.355469 247.75 351.929688 C 247.398438 351.5 247.070312 351.054688 246.761719 350.597656 C 246.453125 350.136719 246.171875 349.664062 245.910156 349.175781 C 245.648438 348.6875 245.414062 348.1875 245.199219 347.675781 C 244.988281 347.164062 244.804688 346.644531 244.640625 346.113281 C 244.480469 345.585938 244.347656 345.050781 244.238281 344.507812 C 244.132812 343.964844 244.050781 343.417969 243.996094 342.867188 C 243.941406 342.316406 243.914062 341.765625 243.914062 341.210938 L 243.914062 297.292969 C 244.175781 294.765625 244.175781 292.242188 243.90625 289.714844 C 243.640625 287.191406 243.113281 284.71875 242.328125 282.304688 C 241.542969 279.890625 240.515625 277.582031 239.246094 275.382812 C 237.976562 273.183594 236.492188 271.140625 234.792969 269.253906 C 233.742188 268.113281 232.863281 266.851562 232.160156 265.46875 C 231.457031 264.085938 230.953125 262.636719 230.648438 261.113281 C 230.34375 259.59375 230.25 258.058594 230.371094 256.511719 C 230.488281 254.964844 230.8125 253.464844 231.34375 252.007812 C 231.878906 250.550781 232.597656 249.191406 233.503906 247.933594 C 234.410156 246.675781 235.46875 245.5625 236.683594 244.59375 C 237.894531 243.628906 239.214844 242.84375 240.644531 242.238281 C 242.074219 241.636719 243.558594 241.238281 245.097656 241.042969 C 286.3125 236.144531 324.320312 222.96875 324.320312 151.515625 C 324.324219 148.199219 324.082031 144.898438 323.601562 141.617188 C 323.117188 138.335938 322.398438 135.105469 321.4375 131.929688 C 320.480469 128.753906 319.292969 125.664062 317.878906 122.660156 C 316.464844 119.660156 314.839844 116.777344 313.003906 114.015625 C 311.3125 111.484375 309.886719 108.8125 308.722656 106 C 307.558594 103.1875 306.679688 100.289062 306.085938 97.304688 C 305.492188 94.320312 305.195312 91.304688 305.191406 88.261719 C 305.191406 85.21875 305.484375 82.207031 306.078125 79.21875 C 307.613281 71.28125 307.613281 63.339844 306.078125 55.402344 C 293.351562 59.703125 281.582031 65.84375 270.773438 73.8125 C 269.757812 74.535156 268.675781 75.136719 267.527344 75.621094 C 266.375 76.101562 265.1875 76.453125 263.960938 76.671875 C 262.734375 76.890625 261.5 76.972656 260.253906 76.917969 C 259.011719 76.863281 257.785156 76.671875 256.582031 76.347656 C 249 74.203125 241.304688 72.59375 233.496094 71.511719 C 225.6875 70.429688 217.84375 69.886719 209.960938 69.886719 C 202.082031 69.886719 194.234375 70.429688 186.429688 71.511719 C 178.621094 72.59375 170.925781 74.203125 163.339844 76.347656 C 162.136719 76.671875 160.914062 76.863281 159.667969 76.917969 C 158.425781 76.972656 157.1875 76.890625 155.960938 76.671875 C 154.734375 76.453125 153.546875 76.101562 152.398438 75.621094 C 151.25 75.136719 150.167969 74.535156 149.152344 73.8125 C 138.269531 65.746094 126.386719 59.609375 113.511719 55.402344 C 111.886719 63.339844 111.886719 71.28125 113.511719 79.21875 C 114.058594 82.242188 114.3125 85.292969 114.277344 88.367188 C 114.238281 91.441406 113.910156 94.480469 113.285156 97.492188 C 112.664062 100.5 111.761719 103.425781 110.578125 106.261719 C 109.394531 109.097656 107.949219 111.796875 106.246094 114.355469 C 104.417969 117.136719 102.796875 120.035156 101.386719 123.054688 C 99.976562 126.070312 98.792969 129.171875 97.835938 132.363281 C 96.878906 135.550781 96.15625 138.792969 95.667969 142.085938 C 95.179688 145.382812 94.933594 148.695312 94.929688 152.023438 C 94.929688 217.734375 126.6875 235.300781 174.320312 241.382812 C 175.878906 241.574219 177.382812 241.976562 178.828125 242.589844 C 180.273438 243.203125 181.609375 244 182.832031 244.984375 C 184.054688 245.96875 185.121094 247.101562 186.027344 248.386719 C 186.933594 249.667969 187.648438 251.046875 188.171875 252.53125 C 188.664062 253.96875 188.953125 255.445312 189.046875 256.960938 C 189.140625 258.476562 189.03125 259.976562 188.71875 261.464844 C 188.40625 262.949219 187.902344 264.367188 187.207031 265.71875 C 186.511719 267.070312 185.652344 268.304688 184.625 269.421875 C 182.980469 271.175781 181.535156 273.082031 180.289062 275.140625 C 179.042969 277.195312 178.019531 279.355469 177.21875 281.625 C 176.417969 283.890625 175.859375 286.21875 175.542969 288.601562 C 175.226562 290.984375 175.15625 293.375 175.335938 295.773438 L 175.335938 341.210938 C 175.335938 341.765625 175.308594 342.316406 175.253906 342.867188 C 175.199219 343.417969 175.117188 343.964844 175.007812 344.507812 C 174.902344 345.050781 174.765625 345.585938 174.605469 346.113281 C 174.445312 346.644531 174.261719 347.164062 174.046875 347.675781 C 173.835938 348.1875 173.601562 348.6875 173.339844 349.175781 C 173.078125 349.664062 172.792969 350.136719 172.488281 350.597656 C 172.179688 351.054688 171.851562 351.5 171.5 351.929688 C 171.148438 352.355469 170.777344 352.765625 170.386719 353.15625 C 169.996094 353.546875 169.585938 353.917969 169.160156 354.269531 C 168.730469 354.621094 168.285156 354.949219 167.828125 355.257812 C 167.367188 355.5625 166.894531 355.847656 166.40625 356.109375 C 165.917969 356.371094 165.417969 356.605469 164.90625 356.816406 C 164.394531 357.03125 163.875 357.214844 163.34375 357.375 C 162.816406 357.535156 162.28125 357.671875 161.738281 357.777344 C 161.195312 357.886719 160.648438 357.96875 160.097656 358.023438 C 159.546875 358.078125 158.996094 358.105469 158.441406 358.105469 C 157.890625 358.105469 157.335938 358.078125 156.785156 358.023438 C 156.234375 357.96875 155.6875 357.886719 155.148438 357.777344 C 154.605469 357.671875 154.066406 357.535156 153.539062 357.375 C 153.007812 357.214844 152.488281 357.03125 151.976562 356.816406 C 151.46875 356.605469 150.96875 356.371094 150.480469 356.109375 C 149.992188 355.847656 149.519531 355.5625 149.058594 355.257812 C 148.597656 354.949219 148.152344 354.621094 147.726562 354.269531 C 147.296875 353.917969 146.890625 353.546875 146.496094 353.15625 C 146.105469 352.765625 145.734375 352.355469 145.382812 351.929688 C 145.035156 351.5 144.703125 351.054688 144.398438 350.597656 C 144.089844 350.136719 143.804688 349.664062 143.546875 349.175781 C 143.285156 348.6875 143.046875 348.1875 142.835938 347.675781 C 142.625 347.164062 142.4375 346.644531 142.277344 346.113281 C 142.117188 345.585938 141.984375 345.050781 141.875 344.507812 C 141.765625 343.964844 141.6875 343.417969 141.632812 342.867188 C 141.578125 342.316406 141.550781 341.765625 141.550781 341.210938 L 141.550781 331.582031 C 137.417969 332.058594 133.269531 332.277344 129.109375 332.242188 C 124.945312 332.207031 120.804688 331.917969 116.679688 331.371094 C 112.554688 330.824219 108.476562 330.027344 104.449219 328.980469 C 100.421875 327.933594 96.476562 326.644531 92.609375 325.109375 C 88.738281 323.574219 84.980469 321.808594 81.328125 319.8125 C 77.679688 317.816406 74.164062 315.601562 70.785156 313.171875 C 67.410156 310.742188 64.191406 308.113281 61.136719 305.289062 C 58.085938 302.460938 55.214844 299.460938 52.53125 296.28125 C 46.941406 290.082031 40.410156 285.128906 32.9375 281.414062 C 32.398438 281.277344 31.871094 281.113281 31.351562 280.921875 C 30.828125 280.730469 30.320312 280.515625 29.820312 280.277344 C 29.320312 280.035156 28.832031 279.773438 28.359375 279.484375 C 27.886719 279.195312 27.429688 278.886719 26.984375 278.550781 C 26.542969 278.21875 26.117188 277.867188 25.707031 277.492188 C 25.300781 277.117188 24.910156 276.722656 24.542969 276.308594 C 24.171875 275.894531 23.824219 275.464844 23.496094 275.019531 C 23.167969 274.570312 22.863281 274.109375 22.582031 273.628906 C 22.300781 273.152344 22.042969 272.664062 21.808594 272.160156 C 21.574219 271.65625 21.367188 271.144531 21.183594 270.621094 C 21 270.097656 20.84375 269.566406 20.710938 269.03125 C 20.582031 268.492188 20.476562 267.949219 20.398438 267.398438 C 20.320312 266.851562 20.269531 266.296875 20.246094 265.746094 C 20.222656 265.191406 20.226562 264.636719 20.257812 264.082031 C 20.289062 263.53125 20.347656 262.980469 20.433594 262.433594 C 20.519531 261.882812 20.628906 261.34375 20.769531 260.804688 C 20.90625 260.269531 21.070312 259.738281 21.261719 259.21875 C 21.453125 258.699219 21.667969 258.1875 21.90625 257.6875 C 22.148438 257.191406 22.410156 256.703125 22.699219 256.230469 C 22.988281 255.757812 23.300781 255.296875 23.632812 254.855469 C 23.964844 254.414062 24.320312 253.988281 24.695312 253.578125 C 25.070312 253.171875 25.464844 252.78125 25.878906 252.414062 C 26.289062 252.042969 26.722656 251.695312 27.167969 251.367188 C 27.617188 251.039062 28.078125 250.734375 28.554688 250.453125 C 29.035156 250.171875 29.523438 249.914062 30.027344 249.683594 C 30.527344 249.449219 31.042969 249.242188 31.566406 249.058594 C 32.089844 248.875 32.617188 248.71875 33.15625 248.585938 C 33.695312 248.457031 34.238281 248.351562 34.789062 248.273438 C 35.335938 248.195312 35.890625 248.144531 36.441406 248.121094 C 36.996094 248.097656 37.550781 248.101562 38.105469 248.132812 C 38.65625 248.164062 39.207031 248.222656 39.753906 248.308594 C 40.304688 248.394531 40.84375 248.507812 41.382812 248.644531 C 47.878906 251.011719 53.988281 254.140625 59.703125 258.027344 C 65.421875 261.914062 70.574219 266.445312 75.164062 271.617188 C 92.058594 288.507812 108.949219 303.375 141.042969 297.292969 C 140.761719 292.757812 140.949219 288.242188 141.601562 283.746094 C 142.257812 279.25 143.367188 274.871094 144.929688 270.605469 C 110.132812 261.820312 60.46875 236.820312 60.46875 152.359375 C 60.457031 147.386719 60.8125 142.4375 61.53125 137.515625 C 62.246094 132.59375 63.320312 127.75 64.75 122.984375 C 66.183594 118.222656 67.953125 113.589844 70.066406 109.085938 C 72.179688 104.582031 74.613281 100.257812 77.363281 96.113281 C 78.386719 94.574219 79.09375 92.898438 79.472656 91.085938 C 79.851562 89.277344 79.878906 87.460938 79.558594 85.636719 C 78.707031 81.105469 78.1875 76.53125 78 71.921875 C 77.808594 67.3125 77.949219 62.714844 78.421875 58.125 C 78.890625 53.535156 79.691406 49.003906 80.816406 44.527344 C 81.9375 40.054688 83.378906 35.683594 85.132812 31.414062 C 85.609375 30.273438 86.207031 29.195312 86.925781 28.183594 C 87.640625 27.167969 88.460938 26.246094 89.378906 25.414062 C 90.300781 24.582031 91.296875 23.859375 92.375 23.25 C 93.457031 22.636719 94.585938 22.148438 95.773438 21.789062 C 101.515625 20.097656 122.125 16.71875 161.144531 42.058594 C 169.015625 40.164062 176.96875 38.742188 185.003906 37.785156 C 193.042969 36.832031 201.109375 36.355469 209.203125 36.355469 C 217.296875 36.355469 225.363281 36.832031 233.398438 37.785156 C 241.4375 38.742188 249.390625 40.164062 257.257812 42.058594 C 296.28125 16.71875 316.886719 19.929688 322.460938 21.789062 C 323.648438 22.148438 324.78125 22.636719 325.859375 23.25 C 326.9375 23.859375 327.9375 24.582031 328.855469 25.414062 C 329.777344 26.246094 330.59375 27.167969 331.308594 28.183594 C 332.027344 29.195312 332.625 30.273438 333.105469 31.414062 C 334.859375 35.695312 336.300781 40.082031 337.429688 44.570312 C 338.554688 49.058594 339.355469 53.605469 339.824219 58.207031 C 340.296875 62.8125 340.4375 67.425781 340.246094 72.050781 C 340.050781 76.671875 339.53125 81.257812 338.679688 85.808594 C 338.328125 87.472656 338.316406 89.140625 338.636719 90.808594 C 338.960938 92.476562 339.59375 94.019531 340.535156 95.4375 C 343.292969 99.59375 345.730469 103.929688 347.847656 108.445312 C 349.964844 112.964844 351.738281 117.613281 353.171875 122.390625 C 354.601562 127.171875 355.671875 132.027344 356.386719 136.964844 C 357.101562 141.902344 357.449219 146.867188 357.429688 151.855469 C 357.429688 237.496094 308.105469 262.328125 272.96875 270.097656 C 276.09375 279.25 277.332031 288.65625 276.683594 298.304688 L 276.683594 341.210938 C 276.6875 342.28125 276.589844 343.339844 276.390625 344.386719 C 276.191406 345.4375 275.894531 346.457031 275.503906 347.449219 C 275.109375 348.441406 274.628906 349.390625 274.054688 350.292969 C 273.484375 351.195312 272.832031 352.035156 272.101562 352.8125 C 271.371094 353.589844 270.570312 354.292969 269.707031 354.917969 C 268.84375 355.546875 267.925781 356.085938 266.960938 356.539062 C 265.992188 356.992188 264.992188 357.347656 263.957031 357.613281 C 262.921875 357.875 261.871094 358.039062 260.808594 358.105469 Z M 260.808594 358.105469 " fill-opacity="1" fill-rule="nonzero"/></g></svg>