<svg xmlns="http://www.w3.org/2000/svg" xmlns:xlink="http://www.w3.org/1999/xlink" width="500" zoomAndPan="magnify" viewBox="0 0 375 374.999991" height="500" preserveAspectRatio="xMidYMid meet" version="1.0"><defs><clipPath id="81a7008623"><path d="M 18.75 19.363281 L 356.171875 19.363281 L 356.171875 355.363281 L 18.75 355.363281 Z M 18.75 19.363281 " clip-rule="nonzero"/></clipPath></defs><g clip-path="url(#81a7008623)"><path fill="#fefefe" d="M 296.191406 355.632812 L 78.605469 355.632812 C 62.78125 355.632812 47.75 349.5 36.277344 338.027344 C 25 326.554688 18.671875 311.523438 18.671875 295.699219 L 18.671875 79.496094 C 18.671875 63.476562 25 48.441406 36.277344 37.167969 C 47.75 25.695312 62.78125 19.363281 78.605469 19.363281 L 296.191406 19.363281 C 312.214844 19.363281 327.246094 25.695312 338.519531 37.167969 C 349.992188 48.441406 356.324219 63.476562 356.324219 79.496094 L 356.324219 295.699219 C 356.324219 311.523438 349.992188 326.554688 338.519531 338.027344 C 327.246094 349.5 312.214844 355.632812 296.191406 355.632812 Z M 296.191406 355.632812 " fill-opacity="1" fill-rule="evenodd"/></g><path fill="#ffffff" d="M 296.191406 329.324219 C 305.289062 329.324219 313.597656 325.765625 319.925781 319.433594 C 326.257812 313.105469 329.816406 304.796875 329.816406 295.699219 L 329.816406 79.496094 C 329.816406 70.398438 326.257812 62.089844 319.925781 55.761719 C 313.597656 49.429688 305.289062 45.871094 296.191406 45.871094 L 78.605469 45.871094 C 69.703125 45.871094 61.398438 49.429688 55.066406 55.761719 C 48.539062 62.089844 44.980469 70.398438 44.980469 79.496094 L 44.980469 295.699219 C 44.980469 304.796875 48.539062 313.105469 55.066406 319.433594 C 61.398438 325.765625 69.703125 329.324219 78.605469 329.324219 Z M 296.191406 329.324219 " fill-opacity="1" fill-rule="evenodd"/><path fill="#fefefe" d="M 187.398438 268.003906 C 165.835938 268.003906 145.660156 259.695312 130.429688 244.464844 C 115.398438 229.433594 107.089844 209.257812 107.089844 187.5 C 107.089844 165.9375 115.398438 145.761719 130.429688 130.53125 C 145.660156 115.496094 165.835938 107.191406 187.398438 107.191406 C 209.15625 107.191406 229.332031 115.496094 244.367188 130.53125 C 259.597656 145.761719 267.90625 165.9375 267.90625 187.5 C 267.90625 209.257812 259.597656 229.433594 244.367188 244.464844 C 229.332031 259.695312 209.15625 268.003906 187.398438 268.003906 Z M 187.398438 268.003906 " fill-opacity="1" fill-rule="evenodd"/><path fill="#fefefe" d="M 288.277344 114.3125 C 273.839844 114.3125 261.972656 102.839844 261.972656 88.597656 C 261.972656 74.355469 274.035156 62.289062 288.277344 62.289062 C 302.519531 62.289062 313.992188 74.15625 313.992188 88.597656 C 313.992188 103.035156 302.71875 114.3125 288.277344 114.3125 Z M 288.277344 114.3125 " fill-opacity="1" fill-rule="evenodd"/><path fill="#fefefe" d="M 187.398438 244.464844 C 172.167969 244.464844 157.726562 238.730469 147.046875 227.851562 C 136.363281 217.167969 130.429688 202.925781 130.429688 187.5 C 130.429688 172.265625 136.363281 157.828125 147.046875 147.144531 C 157.925781 136.464844 172.167969 130.53125 187.398438 130.53125 C 202.828125 130.53125 217.070312 136.464844 227.75 147.144531 C 238.433594 158.027344 244.367188 172.265625 244.367188 187.5 C 244.367188 202.925781 238.628906 217.167969 227.75 227.851562 C 217.070312 238.53125 202.828125 244.464844 187.398438 244.464844 Z M 187.398438 244.464844 " fill-opacity="1" fill-rule="evenodd"/><path fill="#fefefe" d="M 288.277344 103.035156 C 279.972656 103.035156 273.445312 96.507812 273.445312 88.597656 C 273.445312 80.484375 280.167969 73.761719 288.277344 73.761719 C 296.191406 73.761719 302.71875 80.289062 302.71875 88.597656 C 302.71875 96.707031 296.390625 103.035156 288.277344 103.035156 Z M 288.277344 103.035156 " fill-opacity="1" fill-rule="evenodd"/></svg>