<svg xmlns="http://www.w3.org/2000/svg" xmlns:xlink="http://www.w3.org/1999/xlink" width="500" zoomAndPan="magnify" viewBox="0 0 375 374.999991" height="500" preserveAspectRatio="xMidYMid meet" version="1.0"><defs><clipPath id="03000a39f5"><path d="M 173 18.75 L 356.25 18.75 L 356.25 203 L 173 203 Z M 173 18.75 " clip-rule="nonzero"/></clipPath><clipPath id="d71c03e8a5"><path d="M 19 172 L 203 172 L 203 356.25 L 19 356.25 Z M 19 172 " clip-rule="nonzero"/></clipPath></defs><path fill="#ffffff" d="M 129.253906 41.308594 C 129.929688 41.429688 130.605469 41.429688 131.28125 41.308594 C 136.351562 39.3125 141.523438 37.609375 146.789062 36.199219 C 147.199219 36.128906 147.597656 36.015625 147.984375 35.863281 C 148.371094 35.707031 148.734375 35.515625 149.082031 35.28125 C 149.425781 35.046875 149.742188 34.78125 150.03125 34.480469 C 150.316406 34.179688 150.570312 33.851562 150.785156 33.496094 C 151.003906 33.140625 151.179688 32.769531 151.316406 32.375 C 151.453125 31.980469 151.546875 31.578125 151.597656 31.164062 C 151.648438 30.753906 151.65625 30.339844 151.617188 29.925781 C 151.578125 29.511719 151.496094 29.105469 151.371094 28.707031 C 151.199219 28.089844 150.933594 27.515625 150.574219 26.984375 C 150.214844 26.457031 149.78125 25.996094 149.273438 25.605469 C 148.765625 25.214844 148.207031 24.917969 147.601562 24.710938 C 146.996094 24.5 146.371094 24.394531 145.730469 24.390625 L 144.234375 24.390625 C 138.582031 25.90625 133.03125 27.726562 127.578125 29.851562 C 126.960938 30.109375 126.402344 30.460938 125.90625 30.90625 C 125.410156 31.355469 125 31.871094 124.683594 32.460938 C 124.363281 33.046875 124.152344 33.671875 124.050781 34.332031 C 123.945312 34.992188 123.957031 35.652344 124.082031 36.308594 C 124.207031 36.964844 124.4375 37.582031 124.773438 38.160156 C 125.109375 38.738281 125.535156 39.242188 126.046875 39.675781 C 126.558594 40.105469 127.125 40.4375 127.75 40.671875 C 128.378906 40.910156 129.023438 41.03125 129.691406 41.042969 Z M 129.253906 41.308594 " fill-opacity="1" fill-rule="nonzero"/><path fill="#ffffff" d="M 193.933594 224.246094 L 193.933594 193.492188 L 240.371094 193.492188 C 240.753906 193.5 241.136719 193.464844 241.511719 193.394531 C 241.890625 193.324219 242.257812 193.21875 242.613281 193.074219 C 242.96875 192.929688 243.304688 192.75 243.625 192.539062 C 243.945312 192.328125 244.238281 192.085938 244.511719 191.816406 C 244.78125 191.542969 245.023438 191.25 245.234375 190.929688 C 245.449219 190.609375 245.625 190.269531 245.769531 189.914062 C 245.914062 189.558594 246.019531 189.195312 246.089844 188.816406 C 246.160156 188.441406 246.195312 188.058594 246.1875 187.675781 L 246.1875 150.929688 C 246.195312 150.546875 246.160156 150.167969 246.089844 149.789062 C 246.019531 149.414062 245.914062 149.046875 245.769531 148.691406 C 245.625 148.335938 245.449219 147.996094 245.234375 147.675781 C 245.023438 147.359375 244.78125 147.0625 244.511719 146.792969 C 244.238281 146.519531 243.945312 146.277344 243.625 146.066406 C 243.304688 145.855469 242.96875 145.675781 242.613281 145.53125 C 242.257812 145.386719 241.890625 145.28125 241.511719 145.210938 C 241.136719 145.140625 240.753906 145.109375 240.371094 145.113281 L 188.117188 145.113281 C 187.734375 145.113281 187.355469 145.152344 186.980469 145.226562 C 186.609375 145.300781 186.242188 145.410156 185.890625 145.558594 C 185.539062 145.703125 185.203125 145.882812 184.886719 146.09375 C 184.566406 146.304688 184.273438 146.546875 184.003906 146.816406 C 183.734375 147.085938 183.492188 147.382812 183.28125 147.699219 C 183.070312 148.015625 182.890625 148.351562 182.742188 148.703125 C 182.597656 149.058594 182.488281 149.421875 182.414062 149.796875 C 182.339844 150.171875 182.300781 150.546875 182.300781 150.929688 L 182.300781 223.980469 C 182.300781 224.363281 182.339844 224.742188 182.414062 225.117188 C 182.488281 225.492188 182.597656 225.855469 182.742188 226.207031 C 182.890625 226.558594 183.070312 226.894531 183.28125 227.210938 C 183.492188 227.53125 183.734375 227.824219 184.003906 228.09375 C 184.273438 228.363281 184.566406 228.605469 184.886719 228.816406 C 185.203125 229.03125 185.539062 229.207031 185.890625 229.355469 C 186.242188 229.5 186.609375 229.613281 186.980469 229.6875 C 187.355469 229.761719 187.734375 229.796875 188.117188 229.796875 C 188.5 229.796875 188.875 229.761719 189.25 229.6875 C 189.625 229.613281 189.988281 229.5 190.34375 229.355469 C 190.695312 229.207031 191.03125 229.03125 191.347656 228.816406 C 191.664062 228.605469 191.960938 228.363281 192.230469 228.09375 C 192.5 227.824219 192.742188 227.53125 192.953125 227.210938 C 193.164062 226.894531 193.34375 226.558594 193.488281 226.207031 C 193.636719 225.855469 193.746094 225.492188 193.820312 225.117188 C 193.894531 224.742188 193.933594 224.363281 193.933594 223.980469 Z M 234.644531 157.011719 L 234.644531 181.859375 L 193.933594 181.859375 L 193.933594 157.011719 Z M 234.644531 157.011719 " fill-opacity="1" fill-rule="nonzero"/><g clip-path="url(#03000a39f5)"><path fill="#ffffff" d="M 188.117188 18.75 C 184.945312 18.75 181.683594 18.75 178.511719 18.75 C 178.132812 18.773438 177.761719 18.832031 177.394531 18.925781 C 177.027344 19.023438 176.671875 19.152344 176.332031 19.316406 C 175.992188 19.480469 175.667969 19.675781 175.367188 19.90625 C 175.0625 20.132812 174.785156 20.386719 174.53125 20.667969 C 174.277344 20.949219 174.054688 21.253906 173.859375 21.578125 C 173.667969 21.90625 173.507812 22.246094 173.378906 22.601562 C 173.253906 22.960938 173.160156 23.324219 173.105469 23.699219 C 173.050781 24.074219 173.03125 24.453125 173.046875 24.832031 C 173.070312 25.199219 173.125 25.5625 173.21875 25.921875 C 173.308594 26.28125 173.429688 26.625 173.585938 26.960938 C 173.742188 27.296875 173.925781 27.613281 174.140625 27.914062 C 174.355469 28.214844 174.597656 28.492188 174.867188 28.75 C 175.132812 29.003906 175.421875 29.230469 175.730469 29.433594 C 176.042969 29.632812 176.367188 29.804688 176.710938 29.945312 C 177.050781 30.085938 177.40625 30.191406 177.765625 30.265625 C 178.128906 30.335938 178.496094 30.378906 178.863281 30.382812 L 188.117188 30.382812 C 190.6875 30.390625 193.257812 30.460938 195.824219 30.59375 C 198.394531 30.726562 200.957031 30.921875 203.515625 31.179688 C 206.074219 31.4375 208.621094 31.757812 211.164062 32.140625 C 213.707031 32.523438 216.238281 32.96875 218.761719 33.476562 C 221.28125 33.984375 223.789062 34.554688 226.28125 35.183594 C 228.773438 35.8125 231.25 36.503906 233.707031 37.253906 C 236.167969 38.007812 238.605469 38.816406 241.027344 39.6875 C 243.445312 40.558594 245.84375 41.488281 248.214844 42.476562 C 250.589844 43.464844 252.9375 44.507812 255.261719 45.613281 C 257.582031 46.714844 259.878906 47.875 262.144531 49.089844 C 264.410156 50.304688 266.644531 51.574219 268.847656 52.898438 C 271.050781 54.222656 273.222656 55.601562 275.359375 57.03125 C 277.496094 58.464844 279.59375 59.945312 281.65625 61.480469 C 283.722656 63.011719 285.746094 64.597656 287.734375 66.230469 C 289.71875 67.863281 291.664062 69.542969 293.566406 71.269531 C 295.472656 73 297.332031 74.773438 299.148438 76.589844 C 300.96875 78.410156 302.738281 80.273438 304.464844 82.179688 C 306.191406 84.085938 307.867188 86.03125 309.5 88.019531 C 311.128906 90.007812 312.710938 92.035156 314.242188 94.101562 C 315.773438 96.164062 317.253906 98.265625 318.683594 100.40625 C 320.109375 102.542969 321.484375 104.714844 322.808594 106.921875 C 324.128906 109.125 325.398438 111.363281 326.609375 113.628906 C 327.824219 115.894531 328.980469 118.191406 330.078125 120.515625 C 331.179688 122.839844 332.222656 125.1875 333.207031 127.5625 C 334.195312 129.9375 335.121094 132.335938 335.988281 134.757812 C 336.855469 137.175781 337.664062 139.617188 338.414062 142.078125 C 339.160156 144.535156 339.847656 147.015625 340.476562 149.507812 C 341.101562 152 341.667969 154.507812 342.171875 157.03125 C 342.679688 159.550781 343.121094 162.082031 343.5 164.625 C 343.882812 167.167969 344.199219 169.71875 344.453125 172.277344 C 344.710938 174.835938 344.902344 177.398438 345.035156 179.96875 C 345.164062 182.535156 345.230469 185.105469 345.234375 187.675781 C 345.234375 190.671875 345.234375 193.609375 345.234375 196.488281 C 345.21875 196.867188 345.234375 197.242188 345.292969 197.617188 C 345.347656 197.992188 345.4375 198.359375 345.566406 198.714844 C 345.691406 199.074219 345.855469 199.414062 346.046875 199.738281 C 346.242188 200.066406 346.464844 200.367188 346.71875 200.648438 C 346.972656 200.933594 347.25 201.1875 347.550781 201.414062 C 347.855469 201.640625 348.179688 201.835938 348.519531 202.003906 C 348.859375 202.167969 349.214844 202.296875 349.582031 202.390625 C 349.949219 202.488281 350.320312 202.546875 350.699219 202.570312 C 351.0625 202.5625 351.421875 202.523438 351.777344 202.453125 C 352.136719 202.378906 352.480469 202.273438 352.820312 202.136719 C 353.15625 202 353.476562 201.832031 353.78125 201.636719 C 354.085938 201.4375 354.371094 201.210938 354.636719 200.960938 C 354.898438 200.710938 355.136719 200.4375 355.347656 200.140625 C 355.558594 199.84375 355.742188 199.53125 355.894531 199.203125 C 356.050781 198.871094 356.171875 198.53125 356.257812 198.179688 C 356.347656 197.824219 356.402344 197.46875 356.425781 197.105469 C 356.425781 193.933594 356.425781 190.761719 356.425781 187.5 C 356.421875 184.746094 356.347656 181.992188 356.207031 179.238281 C 356.066406 176.488281 355.859375 173.738281 355.585938 170.996094 C 355.308594 168.257812 354.96875 165.523438 354.558594 162.796875 C 354.152344 160.070312 353.675781 157.359375 353.136719 154.65625 C 352.597656 151.953125 351.988281 149.265625 351.316406 146.59375 C 350.644531 143.921875 349.90625 141.269531 349.105469 138.632812 C 348.304688 135.996094 347.4375 133.382812 346.507812 130.785156 C 345.578125 128.191406 344.585938 125.625 343.53125 123.078125 C 342.472656 120.53125 341.355469 118.015625 340.179688 115.523438 C 339 113.03125 337.761719 110.574219 336.460938 108.140625 C 335.164062 105.710938 333.804688 103.316406 332.390625 100.949219 C 330.972656 98.585938 329.5 96.257812 327.972656 93.96875 C 326.441406 91.675781 324.855469 89.421875 323.214844 87.207031 C 321.578125 84.992188 319.882812 82.820312 318.136719 80.6875 C 316.390625 78.558594 314.59375 76.46875 312.746094 74.425781 C 310.898438 72.382812 309 70.382812 307.054688 68.433594 C 305.109375 66.484375 303.117188 64.582031 301.078125 62.726562 C 299.039062 60.871094 296.953125 59.070312 294.828125 57.320312 C 292.699219 55.566406 290.53125 53.867188 288.320312 52.222656 C 286.113281 50.578125 283.863281 48.984375 281.574219 47.449219 C 279.285156 45.914062 276.964844 44.433594 274.601562 43.011719 C 272.242188 41.589844 269.847656 40.226562 267.421875 38.921875 C 264.996094 37.617188 262.539062 36.371094 260.050781 35.1875 C 257.5625 34 255.046875 32.878906 252.503906 31.816406 C 249.960938 30.753906 247.394531 29.753906 244.804688 28.816406 C 242.210938 27.878906 239.597656 27.007812 236.964844 26.199219 C 234.332031 25.390625 231.679688 24.644531 229.007812 23.964844 C 226.335938 23.285156 223.652344 22.671875 220.953125 22.125 C 218.25 21.578125 215.539062 21.097656 212.816406 20.679688 C 210.089844 20.265625 207.359375 19.917969 204.617188 19.632812 C 201.875 19.351562 199.128906 19.136719 196.378906 18.992188 C 193.625 18.84375 190.871094 18.761719 188.117188 18.75 Z M 188.117188 18.75 " fill-opacity="1" fill-rule="nonzero"/></g><path fill="#ffffff" d="M 335.894531 169.964844 C 335.886719 169.183594 335.808594 168.414062 335.652344 167.648438 C 335.496094 166.886719 335.265625 166.144531 334.964844 165.425781 C 334.664062 164.707031 334.296875 164.023438 333.863281 163.375 C 333.429688 162.726562 332.9375 162.128906 332.382812 161.578125 C 331.832031 161.027344 331.234375 160.535156 330.585938 160.097656 C 329.9375 159.664062 329.257812 159.296875 328.535156 158.996094 C 327.816406 158.695312 327.078125 158.46875 326.3125 158.3125 C 325.550781 158.15625 324.777344 158.074219 323.996094 158.066406 L 298.441406 158.066406 C 295.957031 148.761719 292.285156 139.949219 287.429688 131.632812 C 287.328125 131.457031 287.328125 131.28125 287.429688 131.101562 L 305.492188 113.480469 C 306.046875 112.925781 306.539062 112.324219 306.972656 111.675781 C 307.40625 111.027344 307.773438 110.339844 308.074219 109.617188 C 308.375 108.894531 308.597656 108.152344 308.75 107.386719 C 308.90625 106.621094 308.980469 105.84375 308.980469 105.0625 C 308.980469 104.28125 308.90625 103.507812 308.75 102.742188 C 308.597656 101.976562 308.375 101.230469 308.074219 100.507812 C 307.773438 99.785156 307.40625 99.101562 306.972656 98.453125 C 306.539062 97.800781 306.046875 97.199219 305.492188 96.648438 L 280.113281 70.742188 C 278.964844 69.554688 277.621094 68.652344 276.085938 68.039062 C 274.546875 67.425781 272.953125 67.148438 271.300781 67.214844 C 269.652344 67.171875 268.0625 67.457031 266.53125 68.070312 C 265 68.679688 263.652344 69.570312 262.488281 70.742188 L 244.867188 88.363281 L 244.335938 88.363281 C 235.980469 83.601562 227.167969 79.929688 217.902344 77.351562 L 217.902344 51.882812 C 217.90625 51.089844 217.835938 50.304688 217.683594 49.527344 C 217.53125 48.75 217.308594 47.996094 217.003906 47.261719 C 216.703125 46.53125 216.332031 45.835938 215.890625 45.175781 C 215.449219 44.515625 214.949219 43.910156 214.386719 43.351562 C 213.824219 42.792969 213.210938 42.296875 212.550781 41.859375 C 211.890625 41.425781 211.191406 41.058594 210.457031 40.761719 C 209.722656 40.464844 208.964844 40.246094 208.1875 40.097656 C 207.40625 39.953125 206.621094 39.886719 205.828125 39.898438 L 170.582031 39.898438 C 169.796875 39.90625 169.023438 39.988281 168.253906 40.144531 C 167.488281 40.300781 166.742188 40.53125 166.023438 40.835938 C 165.300781 41.140625 164.613281 41.511719 163.964844 41.949219 C 163.316406 42.386719 162.714844 42.882812 162.164062 43.441406 C 161.613281 43.996094 161.121094 44.601562 160.6875 45.253906 C 160.253906 45.90625 159.886719 46.59375 159.589844 47.316406 C 159.289062 48.042969 159.066406 48.789062 158.914062 49.554688 C 158.761719 50.324219 158.683594 51.101562 158.683594 51.882812 L 158.683594 77.351562 C 149.410156 79.910156 140.597656 83.582031 132.25 88.363281 L 131.101562 88.363281 L 113.480469 70.742188 C 112.328125 69.554688 110.984375 68.652344 109.449219 68.039062 C 107.914062 67.425781 106.320312 67.148438 104.667969 67.214844 C 103.101562 67.214844 101.589844 67.511719 100.140625 68.105469 C 98.691406 68.703125 97.410156 69.550781 96.296875 70.652344 L 71.09375 95.765625 C 70.546875 96.324219 70.058594 96.925781 69.625 97.574219 C 69.195312 98.226562 68.835938 98.914062 68.539062 99.632812 C 68.242188 100.355469 68.019531 101.097656 67.867188 101.863281 C 67.71875 102.628906 67.640625 103.402344 67.640625 104.183594 C 67.640625 104.960938 67.71875 105.734375 67.867188 106.5 C 68.019531 107.265625 68.242188 108.007812 68.539062 108.730469 C 68.835938 109.453125 69.195312 110.136719 69.625 110.789062 C 70.058594 111.441406 70.546875 112.042969 71.09375 112.597656 L 89.15625 130.222656 C 89.15625 130.222656 89.15625 130.222656 89.15625 130.75 C 84.375 139.101562 80.703125 147.910156 78.144531 157.1875 L 52.324219 157.1875 C 51.503906 157.183594 50.6875 157.265625 49.882812 157.433594 C 49.082031 157.597656 48.300781 157.84375 47.546875 158.167969 C 46.792969 158.492188 46.078125 158.894531 45.40625 159.367188 C 44.734375 159.835938 44.117188 160.375 43.554688 160.972656 C 42.996094 161.570312 42.5 162.222656 42.070312 162.921875 C 41.644531 163.625 41.289062 164.359375 41.011719 165.132812 C 40.738281 165.90625 40.542969 166.699219 40.429688 167.515625 C 40.316406 168.328125 40.285156 169.144531 40.339844 169.964844 L 40.339844 205.210938 C 40.339844 205.996094 40.417969 206.773438 40.570312 207.542969 C 40.722656 208.3125 40.953125 209.058594 41.253906 209.785156 C 41.554688 210.507812 41.925781 211.199219 42.363281 211.847656 C 42.800781 212.5 43.296875 213.101562 43.855469 213.65625 C 44.410156 214.207031 45.019531 214.703125 45.671875 215.132812 C 46.328125 215.566406 47.015625 215.933594 47.746094 216.226562 C 48.472656 216.523438 49.21875 216.746094 49.992188 216.894531 C 50.761719 217.042969 51.539062 217.113281 52.324219 217.109375 L 77.789062 217.109375 C 80.367188 226.375 84.039062 235.1875 88.804688 243.542969 C 88.804688 243.542969 88.804688 243.542969 88.804688 244.074219 L 70.742188 261.695312 C 70.195312 262.257812 69.710938 262.867188 69.285156 263.523438 C 68.859375 264.179688 68.5 264.867188 68.203125 265.59375 C 67.910156 266.316406 67.691406 267.066406 67.539062 267.832031 C 67.390625 268.601562 67.316406 269.375 67.316406 270.15625 C 67.316406 270.9375 67.390625 271.714844 67.539062 272.480469 C 67.691406 273.25 67.910156 273.996094 68.203125 274.71875 C 68.5 275.445312 68.859375 276.136719 69.285156 276.789062 C 69.710938 277.445312 70.195312 278.054688 70.742188 278.617188 L 95.855469 303.640625 C 96.964844 304.746094 98.246094 305.585938 99.699219 306.167969 C 101.152344 306.75 102.660156 307.023438 104.226562 306.992188 C 105.863281 307.070312 107.449219 306.816406 108.980469 306.234375 C 110.511719 305.652344 111.867188 304.789062 113.039062 303.640625 L 130.664062 285.578125 L 131.191406 285.578125 C 139.515625 290.417969 148.328125 294.089844 157.628906 296.59375 L 157.628906 322.148438 C 157.632812 322.925781 157.714844 323.699219 157.871094 324.460938 C 158.027344 325.226562 158.253906 325.96875 158.554688 326.6875 C 158.855469 327.40625 159.226562 328.089844 159.660156 328.734375 C 160.09375 329.382812 160.585938 329.984375 161.136719 330.535156 C 161.6875 331.085938 162.289062 331.578125 162.933594 332.011719 C 163.582031 332.445312 164.265625 332.8125 164.984375 333.113281 C 165.703125 333.414062 166.445312 333.644531 167.207031 333.800781 C 167.972656 333.957031 168.742188 334.039062 169.523438 334.042969 L 204.773438 334.042969 C 205.550781 334.042969 206.328125 333.96875 207.09375 333.816406 C 207.859375 333.664062 208.601562 333.4375 209.324219 333.136719 C 210.046875 332.839844 210.730469 332.472656 211.378906 332.039062 C 212.03125 331.605469 212.632812 331.113281 213.183594 330.558594 C 213.734375 330.007812 214.230469 329.40625 214.664062 328.757812 C 215.097656 328.105469 215.464844 327.421875 215.761719 326.699219 C 216.0625 325.976562 216.285156 325.234375 216.4375 324.46875 C 216.589844 323.703125 216.667969 322.929688 216.667969 322.148438 L 216.667969 296.59375 C 225.964844 294.089844 234.777344 290.417969 243.105469 285.578125 L 243.632812 285.578125 L 261.257812 303.640625 C 261.824219 304.175781 262.4375 304.652344 263.09375 305.070312 C 263.75 305.488281 264.441406 305.84375 265.164062 306.128906 C 265.890625 306.417969 266.632812 306.632812 267.398438 306.78125 C 268.164062 306.925781 268.9375 307 269.714844 307 C 270.496094 307 271.265625 306.925781 272.03125 306.78125 C 272.796875 306.632812 273.542969 306.417969 274.265625 306.128906 C 274.992188 305.84375 275.683594 305.488281 276.339844 305.070312 C 276.996094 304.652344 277.609375 304.175781 278.175781 303.640625 L 303.203125 278.617188 C 303.761719 278.0625 304.261719 277.460938 304.699219 276.808594 C 305.140625 276.15625 305.511719 275.464844 305.816406 274.742188 C 306.117188 274.015625 306.347656 273.265625 306.503906 272.492188 C 306.65625 271.722656 306.734375 270.945312 306.734375 270.15625 C 306.734375 269.371094 306.65625 268.589844 306.503906 267.820312 C 306.347656 267.046875 306.117188 266.300781 305.816406 265.574219 C 305.511719 264.847656 305.140625 264.15625 304.699219 263.503906 C 304.261719 262.851562 303.761719 262.25 303.203125 261.695312 L 285.136719 244.074219 C 285.035156 243.898438 285.035156 243.71875 285.136719 243.542969 C 289.976562 235.21875 293.648438 226.40625 296.152344 217.109375 L 321.707031 217.109375 C 322.488281 217.109375 323.261719 217.03125 324.027344 216.878906 C 324.792969 216.726562 325.539062 216.5 326.257812 216.203125 C 326.980469 215.902344 327.667969 215.539062 328.316406 215.105469 C 328.964844 214.667969 329.566406 214.175781 330.117188 213.625 C 330.671875 213.070312 331.164062 212.472656 331.597656 211.820312 C 332.03125 211.171875 332.398438 210.484375 332.699219 209.765625 C 332.996094 209.042969 333.222656 208.300781 333.375 207.53125 C 333.527344 206.765625 333.601562 205.992188 333.601562 205.210938 Z M 137.359375 98.761719 C 144.890625 94.585938 152.820312 91.414062 161.152344 89.246094 C 161.777344 89.070312 162.386719 88.84375 162.976562 88.570312 C 163.566406 88.296875 164.132812 87.976562 164.667969 87.613281 C 165.207031 87.246094 165.714844 86.839844 166.1875 86.394531 C 166.660156 85.945312 167.09375 85.464844 167.488281 84.949219 C 167.882812 84.429688 168.234375 83.882812 168.539062 83.3125 C 168.847656 82.738281 169.105469 82.140625 169.316406 81.527344 C 169.527344 80.910156 169.6875 80.28125 169.792969 79.640625 C 169.902344 79 169.960938 78.351562 169.964844 77.703125 L 169.964844 51.882812 L 205.210938 51.882812 L 205.210938 77.351562 C 205.210938 78 205.265625 78.648438 205.371094 79.292969 C 205.480469 79.933594 205.636719 80.5625 205.84375 81.179688 C 206.054688 81.796875 206.3125 82.394531 206.617188 82.96875 C 206.925781 83.542969 207.273438 84.089844 207.671875 84.609375 C 208.066406 85.125 208.5 85.609375 208.972656 86.054688 C 209.449219 86.503906 209.957031 86.910156 210.496094 87.273438 C 211.035156 87.636719 211.601562 87.953125 212.195312 88.226562 C 212.785156 88.5 213.394531 88.722656 214.023438 88.894531 C 222.375 91.175781 230.304688 94.464844 237.816406 98.761719 C 238.382812 99.101562 238.972656 99.390625 239.589844 99.628906 C 240.203125 99.867188 240.832031 100.054688 241.480469 100.1875 C 242.125 100.324219 242.777344 100.402344 243.4375 100.429688 C 244.09375 100.453125 244.75 100.425781 245.40625 100.34375 C 246.058594 100.257812 246.703125 100.121094 247.332031 99.933594 C 247.964844 99.742188 248.578125 99.5 249.167969 99.210938 C 249.757812 98.917969 250.324219 98.578125 250.859375 98.195312 C 251.394531 97.808594 251.890625 97.382812 252.355469 96.914062 L 270.421875 79.289062 L 295.445312 104.316406 L 295.445312 104.753906 L 277.382812 122.378906 C 276.921875 122.84375 276.503906 123.34375 276.125 123.875 C 275.746094 124.410156 275.414062 124.96875 275.125 125.558594 C 274.839844 126.144531 274.601562 126.753906 274.414062 127.378906 C 274.226562 128.003906 274.09375 128.644531 274.007812 129.292969 C 273.925781 129.941406 273.894531 130.589844 273.917969 131.246094 C 273.941406 131.898438 274.019531 132.546875 274.148438 133.1875 C 274.277344 133.828125 274.460938 134.453125 274.691406 135.066406 C 274.921875 135.675781 275.203125 136.265625 275.53125 136.832031 C 279.867188 144.328125 283.160156 152.257812 285.402344 160.625 C 285.582031 161.25 285.808594 161.855469 286.085938 162.441406 C 286.359375 163.03125 286.679688 163.59375 287.046875 164.128906 C 287.414062 164.667969 287.820312 165.171875 288.269531 165.644531 C 288.714844 166.113281 289.195312 166.546875 289.714844 166.941406 C 290.230469 167.335938 290.773438 167.6875 291.347656 167.992188 C 291.921875 168.300781 292.515625 168.558594 293.128906 168.773438 C 293.742188 168.984375 294.371094 169.144531 295.011719 169.257812 C 295.648438 169.367188 296.296875 169.425781 296.945312 169.433594 L 322.5 169.433594 L 322.5 204.683594 L 296.945312 204.683594 C 296.292969 204.6875 295.648438 204.746094 295.007812 204.851562 C 294.367188 204.960938 293.738281 205.121094 293.121094 205.332031 C 292.503906 205.542969 291.910156 205.800781 291.335938 206.109375 C 290.761719 206.414062 290.21875 206.765625 289.699219 207.160156 C 289.183594 207.554688 288.699219 207.988281 288.253906 208.460938 C 287.808594 208.933594 287.402344 209.4375 287.035156 209.976562 C 286.667969 210.515625 286.351562 211.082031 286.074219 211.671875 C 285.800781 212.261719 285.578125 212.867188 285.402344 213.496094 C 283.160156 221.859375 279.867188 229.792969 275.53125 237.289062 C 275.203125 237.855469 274.921875 238.449219 274.6875 239.0625 C 274.453125 239.679688 274.273438 240.308594 274.140625 240.953125 C 274.011719 241.597656 273.933594 242.25 273.910156 242.90625 C 273.886719 243.5625 273.914062 244.21875 274 244.871094 C 274.082031 245.523438 274.214844 246.164062 274.40625 246.796875 C 274.59375 247.425781 274.832031 248.035156 275.117188 248.628906 C 275.40625 249.21875 275.738281 249.785156 276.121094 250.320312 C 276.5 250.855469 276.921875 251.359375 277.382812 251.828125 L 295.445312 269.890625 L 295.445312 270.332031 L 270.421875 295.359375 L 252.355469 277.292969 C 251.1875 276.136719 249.839844 275.261719 248.304688 274.664062 C 246.773438 274.066406 245.1875 273.796875 243.542969 273.859375 C 241.382812 273.871094 239.355469 274.402344 237.464844 275.445312 C 229.96875 279.78125 222.035156 283.070312 213.671875 285.3125 C 213.046875 285.488281 212.4375 285.714844 211.847656 285.988281 C 211.257812 286.261719 210.691406 286.582031 210.152344 286.945312 C 209.617188 287.3125 209.109375 287.71875 208.636719 288.164062 C 208.164062 288.613281 207.730469 289.09375 207.335938 289.613281 C 206.941406 290.128906 206.589844 290.675781 206.285156 291.25 C 205.976562 291.824219 205.71875 292.417969 205.507812 293.03125 C 205.296875 293.648438 205.136719 294.277344 205.03125 294.917969 C 204.921875 295.558594 204.863281 296.207031 204.859375 296.855469 L 204.859375 322.410156 L 169.613281 322.410156 L 169.613281 296.855469 C 169.601562 296.210938 169.542969 295.566406 169.429688 294.929688 C 169.316406 294.292969 169.15625 293.667969 168.941406 293.058594 C 168.730469 292.449219 168.46875 291.855469 168.164062 291.289062 C 167.855469 290.71875 167.503906 290.179688 167.109375 289.664062 C 166.714844 289.152344 166.28125 288.675781 165.808594 288.230469 C 165.339844 287.789062 164.835938 287.386719 164.300781 287.023438 C 163.761719 286.660156 163.203125 286.34375 162.613281 286.070312 C 162.027344 285.800781 161.421875 285.574219 160.800781 285.402344 C 152.414062 283.105469 144.453125 279.785156 136.917969 275.445312 C 135.03125 274.390625 133.003906 273.859375 130.839844 273.859375 C 129.195312 273.785156 127.605469 274.050781 126.070312 274.648438 C 124.535156 275.246094 123.1875 276.128906 122.027344 277.292969 L 104.402344 295.359375 L 79.375 271.476562 L 79.375 271.039062 L 97 252.972656 C 97.460938 252.503906 97.882812 252.003906 98.265625 251.464844 C 98.644531 250.929688 98.976562 250.363281 99.265625 249.773438 C 99.554688 249.183594 99.789062 248.570312 99.980469 247.941406 C 100.167969 247.308594 100.300781 246.667969 100.386719 246.015625 C 100.46875 245.363281 100.496094 244.707031 100.472656 244.050781 C 100.449219 243.394531 100.371094 242.742188 100.242188 242.097656 C 100.113281 241.453125 99.929688 240.824219 99.695312 240.210938 C 99.464844 239.59375 99.179688 239.003906 98.851562 238.433594 C 94.796875 230.886719 91.742188 222.957031 89.6875 214.640625 C 89.515625 214.011719 89.292969 213.402344 89.019531 212.8125 C 88.75 212.21875 88.429688 211.652344 88.066406 211.113281 C 87.703125 210.570312 87.296875 210.066406 86.847656 209.589844 C 86.402344 209.117188 85.917969 208.683594 85.402344 208.289062 C 84.882812 207.890625 84.335938 207.542969 83.761719 207.234375 C 83.1875 206.929688 82.589844 206.671875 81.972656 206.460938 C 81.355469 206.253906 80.726562 206.09375 80.085938 205.988281 C 79.441406 205.882812 78.792969 205.828125 78.144531 205.828125 L 52.324219 205.828125 L 52.324219 170.582031 L 77.789062 170.582031 C 78.441406 170.578125 79.085938 170.519531 79.730469 170.410156 C 80.371094 170.300781 81 170.144531 81.613281 169.933594 C 82.230469 169.722656 82.824219 169.464844 83.398438 169.15625 C 83.972656 168.851562 84.519531 168.5 85.035156 168.105469 C 85.554688 167.710938 86.035156 167.277344 86.480469 166.804688 C 86.929688 166.332031 87.335938 165.824219 87.699219 165.285156 C 88.066406 164.75 88.386719 164.183594 88.660156 163.59375 C 88.933594 163.003906 89.160156 162.394531 89.335938 161.769531 C 91.613281 153.417969 94.90625 145.488281 99.203125 137.976562 C 99.53125 137.410156 99.8125 136.824219 100.042969 136.210938 C 100.277344 135.597656 100.457031 134.972656 100.585938 134.332031 C 100.714844 133.691406 100.792969 133.042969 100.816406 132.390625 C 100.839844 131.738281 100.808594 131.085938 100.726562 130.4375 C 100.644531 129.789062 100.507812 129.152344 100.320312 128.523438 C 100.132812 127.898438 99.894531 127.289062 99.609375 126.703125 C 99.324219 126.117188 98.988281 125.554688 98.613281 125.023438 C 98.234375 124.488281 97.8125 123.988281 97.351562 123.523438 L 79.730469 105.902344 C 79.730469 105.902344 79.730469 105.902344 79.730469 105.460938 L 104.402344 78.9375 L 104.84375 78.9375 L 122.46875 96.558594 C 122.929688 97.027344 123.421875 97.453125 123.957031 97.835938 C 124.488281 98.222656 125.046875 98.558594 125.632812 98.847656 C 126.222656 99.140625 126.828125 99.378906 127.457031 99.570312 C 128.085938 99.761719 128.722656 99.898438 129.375 99.980469 C 130.023438 100.0625 130.675781 100.09375 131.332031 100.066406 C 131.988281 100.042969 132.636719 99.960938 133.277344 99.828125 C 133.921875 99.695312 134.546875 99.507812 135.15625 99.269531 C 135.769531 99.03125 136.355469 98.746094 136.917969 98.410156 Z M 137.359375 98.761719 " fill-opacity="1" fill-rule="nonzero"/><g clip-path="url(#d71c03e8a5)"><path fill="#ffffff" d="M 197.371094 344.792969 C 194.375 344.792969 191.4375 344.792969 188.558594 344.792969 C 185.980469 344.796875 183.40625 344.738281 180.835938 344.613281 C 178.261719 344.492188 175.691406 344.304688 173.128906 344.054688 C 170.566406 343.804688 168.007812 343.492188 165.460938 343.117188 C 162.914062 342.742188 160.375 342.308594 157.847656 341.808594 C 155.320312 341.308594 152.808594 340.746094 150.308594 340.125 C 147.808594 339.503906 145.328125 338.820312 142.859375 338.074219 C 140.394531 337.332031 137.949219 336.527344 135.523438 335.664062 C 133.09375 334.800781 130.691406 333.875 128.308594 332.894531 C 125.929688 331.910156 123.574219 330.871094 121.242188 329.773438 C 118.914062 328.675781 116.609375 327.523438 114.335938 326.3125 C 112.0625 325.101562 109.820312 323.835938 107.609375 322.515625 C 105.398438 321.195312 103.21875 319.820312 101.074219 318.394531 C 98.929688 316.964844 96.824219 315.488281 94.75 313.957031 C 92.679688 312.425781 90.648438 310.847656 88.652344 309.214844 C 86.660156 307.585938 84.707031 305.90625 82.792969 304.179688 C 80.882812 302.453125 79.011719 300.683594 77.1875 298.863281 C 75.363281 297.046875 73.582031 295.183594 71.851562 293.28125 C 70.117188 291.375 68.429688 289.429688 66.792969 287.441406 C 65.15625 285.453125 63.566406 283.425781 62.027344 281.359375 C 60.488281 279.296875 59 277.191406 57.566406 275.054688 C 56.128906 272.914062 54.746094 270.742188 53.417969 268.535156 C 52.089844 266.332031 50.816406 264.09375 49.59375 261.824219 C 48.375 259.554688 47.214844 257.257812 46.105469 254.933594 C 45 252.605469 43.949219 250.253906 42.960938 247.875 C 41.96875 245.5 41.035156 243.097656 40.160156 240.675781 C 39.289062 238.253906 38.472656 235.808594 37.71875 233.347656 C 36.964844 230.882812 36.273438 228.402344 35.640625 225.90625 C 35.007812 223.410156 34.4375 220.898438 33.929688 218.375 C 33.421875 215.847656 32.972656 213.3125 32.589844 210.765625 C 32.203125 208.21875 31.882812 205.664062 31.621094 203.101562 C 31.363281 200.539062 31.167969 197.972656 31.035156 195.398438 C 30.898438 192.824219 30.828125 190.253906 30.824219 187.675781 C 30.824219 184.679688 30.824219 181.683594 30.824219 178.863281 C 30.851562 178.480469 30.84375 178.097656 30.796875 177.71875 C 30.75 177.335938 30.664062 176.960938 30.542969 176.597656 C 30.421875 176.234375 30.261719 175.882812 30.070312 175.550781 C 29.878906 175.21875 29.65625 174.910156 29.398438 174.621094 C 29.144531 174.332031 28.863281 174.074219 28.554688 173.84375 C 28.25 173.609375 27.921875 173.414062 27.574219 173.246094 C 27.226562 173.082031 26.867188 172.953125 26.496094 172.859375 C 26.121094 172.765625 25.742188 172.710938 25.359375 172.695312 C 24.992188 172.699219 24.628906 172.738281 24.269531 172.808594 C 23.914062 172.882812 23.5625 172.988281 23.222656 173.125 C 22.882812 173.261719 22.558594 173.425781 22.25 173.625 C 21.941406 173.820312 21.65625 174.046875 21.386719 174.296875 C 21.121094 174.546875 20.878906 174.820312 20.664062 175.117188 C 20.449219 175.410156 20.261719 175.722656 20.101562 176.054688 C 19.945312 176.386719 19.820312 176.726562 19.726562 177.082031 C 19.632812 177.433594 19.570312 177.792969 19.542969 178.160156 C 19.542969 181.332031 19.542969 184.59375 19.542969 187.765625 C 19.546875 190.523438 19.621094 193.28125 19.757812 196.035156 C 19.898438 198.792969 20.105469 201.542969 20.378906 204.289062 C 20.652344 207.035156 20.992188 209.773438 21.402344 212.5 C 21.808594 215.230469 22.285156 217.945312 22.824219 220.652344 C 23.367188 223.359375 23.972656 226.050781 24.644531 228.726562 C 25.316406 231.402344 26.054688 234.058594 26.859375 236.699219 C 27.660156 239.339844 28.527344 241.957031 29.457031 244.554688 C 30.390625 247.152344 31.382812 249.726562 32.441406 252.273438 C 33.496094 254.824219 34.617188 257.34375 35.796875 259.839844 C 36.976562 262.332031 38.21875 264.796875 39.519531 267.230469 C 40.820312 269.664062 42.179688 272.0625 43.597656 274.429688 C 45.015625 276.796875 46.492188 279.125 48.023438 281.421875 C 49.554688 283.714844 51.144531 285.972656 52.785156 288.1875 C 54.429688 290.40625 56.125 292.582031 57.875 294.714844 C 59.625 296.847656 61.425781 298.9375 63.277344 300.984375 C 65.128906 303.027344 67.027344 305.027344 68.976562 306.980469 C 70.929688 308.933594 72.925781 310.835938 74.964844 312.691406 C 77.007812 314.546875 79.097656 316.351562 81.226562 318.101562 C 83.359375 319.855469 85.53125 321.554688 87.746094 323.203125 C 89.960938 324.847656 92.210938 326.441406 94.503906 327.976562 C 96.796875 329.511719 99.125 330.992188 101.488281 332.414062 C 103.855469 333.835938 106.253906 335.199219 108.683594 336.503906 C 111.113281 337.808594 113.578125 339.050781 116.070312 340.238281 C 118.5625 341.421875 121.082031 342.542969 123.628906 343.605469 C 126.175781 344.664062 128.746094 345.664062 131.34375 346.597656 C 133.9375 347.535156 136.554688 348.402344 139.195312 349.210938 C 141.832031 350.019531 144.488281 350.761719 147.164062 351.4375 C 149.839844 352.113281 152.527344 352.722656 155.234375 353.269531 C 157.9375 353.816406 160.65625 354.292969 163.382812 354.707031 C 166.113281 355.117188 168.847656 355.464844 171.59375 355.742188 C 174.339844 356.019531 177.089844 356.230469 179.84375 356.375 C 182.601562 356.519531 185.359375 356.59375 188.117188 356.601562 C 191.378906 356.601562 194.550781 356.601562 197.722656 356.601562 C 198.070312 356.558594 198.414062 356.484375 198.75 356.378906 C 199.085938 356.273438 199.40625 356.140625 199.71875 355.976562 C 200.03125 355.8125 200.324219 355.621094 200.601562 355.402344 C 200.878906 355.1875 201.132812 354.945312 201.363281 354.683594 C 201.597656 354.417969 201.804688 354.136719 201.988281 353.835938 C 202.167969 353.535156 202.320312 353.21875 202.445312 352.890625 C 202.570312 352.5625 202.664062 352.222656 202.726562 351.878906 C 202.792969 351.53125 202.824219 351.183594 202.824219 350.832031 C 202.824219 350.480469 202.792969 350.128906 202.726562 349.785156 C 202.664062 349.4375 202.570312 349.101562 202.445312 348.769531 C 202.320312 348.441406 202.167969 348.128906 201.988281 347.824219 C 201.804688 347.523438 201.597656 347.242188 201.363281 346.980469 C 201.132812 346.714844 200.878906 346.476562 200.601562 346.257812 C 200.324219 346.039062 200.03125 345.851562 199.71875 345.6875 C 199.40625 345.523438 199.085938 345.386719 198.75 345.28125 C 198.414062 345.175781 198.070312 345.101562 197.722656 345.058594 Z M 197.371094 344.792969 " fill-opacity="1" fill-rule="nonzero"/></g><path fill="#ffffff" d="M 29.148438 150.929688 C 29.648438 151.015625 30.148438 151.015625 30.644531 150.929688 C 31.289062 150.933594 31.914062 150.832031 32.523438 150.625 C 33.132812 150.421875 33.691406 150.121094 34.203125 149.730469 C 34.710938 149.339844 35.144531 148.878906 35.503906 148.34375 C 35.859375 147.8125 36.121094 147.234375 36.285156 146.613281 C 37.695312 141.355469 39.371094 136.1875 41.308594 131.101562 C 41.449219 130.75 41.558594 130.386719 41.625 130.011719 C 41.695312 129.640625 41.730469 129.261719 41.722656 128.882812 C 41.71875 128.503906 41.675781 128.125 41.597656 127.753906 C 41.515625 127.382812 41.398438 127.023438 41.25 126.675781 C 41.097656 126.324219 40.914062 125.996094 40.695312 125.683594 C 40.476562 125.371094 40.230469 125.085938 39.957031 124.820312 C 39.679688 124.558594 39.382812 124.324219 39.0625 124.121094 C 38.742188 123.917969 38.402344 123.75 38.046875 123.613281 C 37.371094 123.339844 36.664062 123.191406 35.933594 123.171875 C 35.351562 123.175781 34.785156 123.265625 34.230469 123.441406 C 33.671875 123.617188 33.15625 123.867188 32.675781 124.199219 C 32.199219 124.527344 31.777344 124.921875 31.417969 125.375 C 31.054688 125.832031 30.769531 126.332031 30.558594 126.875 C 28.433594 132.355469 26.609375 137.9375 25.09375 143.617188 C 24.96875 143.988281 24.878906 144.371094 24.832031 144.761719 C 24.785156 145.152344 24.78125 145.542969 24.8125 145.9375 C 24.847656 146.328125 24.925781 146.714844 25.039062 147.089844 C 25.15625 147.46875 25.308594 147.828125 25.5 148.171875 C 25.691406 148.515625 25.914062 148.835938 26.171875 149.136719 C 26.429688 149.433594 26.71875 149.699219 27.03125 149.9375 C 27.347656 150.175781 27.679688 150.378906 28.039062 150.542969 C 28.394531 150.710938 28.765625 150.839844 29.148438 150.929688 Z M 29.148438 150.929688 " fill-opacity="1" fill-rule="nonzero"/><path fill="#ffffff" d="M 85.367188 66.777344 C 86.734375 66.78125 87.941406 66.339844 88.980469 65.453125 C 93.210938 62.105469 97.792969 58.84375 102.199219 55.847656 C 102.519531 55.644531 102.816406 55.40625 103.09375 55.144531 C 103.367188 54.878906 103.613281 54.589844 103.832031 54.277344 C 104.046875 53.964844 104.234375 53.632812 104.386719 53.285156 C 104.539062 52.9375 104.65625 52.574219 104.738281 52.203125 C 104.820312 51.832031 104.863281 51.453125 104.871094 51.074219 C 104.878906 50.691406 104.851562 50.316406 104.785156 49.941406 C 104.71875 49.5625 104.613281 49.199219 104.476562 48.84375 C 104.339844 48.488281 104.167969 48.152344 103.960938 47.828125 C 103.417969 46.996094 102.710938 46.34375 101.832031 45.875 C 100.957031 45.40625 100.023438 45.175781 99.027344 45.1875 C 97.867188 45.179688 96.8125 45.5 95.855469 46.15625 C 91.007812 49.328125 86.25 52.765625 81.667969 56.464844 C 81.371094 56.707031 81.101562 56.976562 80.859375 57.273438 C 80.617188 57.570312 80.40625 57.886719 80.226562 58.222656 C 80.046875 58.5625 79.902344 58.914062 79.792969 59.277344 C 79.683594 59.644531 79.609375 60.019531 79.570312 60.398438 C 79.535156 60.777344 79.535156 61.160156 79.574219 61.539062 C 79.613281 61.921875 79.6875 62.292969 79.796875 62.660156 C 79.910156 63.023438 80.058594 63.375 80.238281 63.714844 C 80.417969 64.050781 80.632812 64.367188 80.875 64.660156 C 81.425781 65.335938 82.09375 65.859375 82.878906 66.230469 C 83.667969 66.601562 84.496094 66.78125 85.367188 66.777344 Z M 85.367188 66.777344 " fill-opacity="1" fill-rule="nonzero"/><path fill="#ffffff" d="M 48.269531 103.523438 C 49.230469 104.160156 50.289062 104.480469 51.441406 104.492188 C 52.417969 104.472656 53.332031 104.226562 54.1875 103.761719 C 55.042969 103.292969 55.746094 102.65625 56.289062 101.847656 C 59.234375 97.253906 62.433594 92.847656 65.894531 88.628906 C 66.136719 88.335938 66.351562 88.019531 66.53125 87.683594 C 66.710938 87.34375 66.859375 86.992188 66.96875 86.628906 C 67.082031 86.261719 67.15625 85.890625 67.195312 85.507812 C 67.234375 85.128906 67.234375 84.746094 67.199219 84.367188 C 67.160156 83.988281 67.085938 83.613281 66.976562 83.246094 C 66.867188 82.882812 66.722656 82.527344 66.542969 82.191406 C 66.359375 81.855469 66.148438 81.539062 65.90625 81.242188 C 65.664062 80.945312 65.398438 80.675781 65.101562 80.433594 C 64.019531 79.566406 62.785156 79.125 61.398438 79.113281 C 60.523438 79.121094 59.691406 79.320312 58.902344 79.707031 C 58.117188 80.089844 57.449219 80.628906 56.90625 81.316406 C 53.191406 85.863281 49.726562 90.589844 46.507812 95.503906 C 46.304688 95.824219 46.132812 96.164062 45.992188 96.515625 C 45.855469 96.871094 45.753906 97.238281 45.6875 97.613281 C 45.621094 97.988281 45.589844 98.367188 45.597656 98.746094 C 45.605469 99.128906 45.652344 99.503906 45.734375 99.875 C 45.8125 100.25 45.929688 100.609375 46.085938 100.957031 C 46.238281 101.308594 46.421875 101.636719 46.640625 101.949219 C 46.855469 102.261719 47.101562 102.550781 47.378906 102.816406 C 47.652344 103.082031 47.949219 103.316406 48.269531 103.523438 Z M 48.269531 103.523438 " fill-opacity="1" fill-rule="nonzero"/><path fill="#ffffff" d="M 158.332031 226.183594 C 158.527344 226.753906 158.804688 227.277344 159.164062 227.761719 C 159.523438 228.242188 159.949219 228.65625 160.4375 229.003906 C 160.929688 229.351562 161.460938 229.617188 162.035156 229.796875 C 162.605469 229.980469 163.195312 230.066406 163.796875 230.0625 C 164.441406 230.144531 165.089844 230.144531 165.734375 230.0625 C 166.089844 229.929688 166.425781 229.761719 166.75 229.566406 C 167.074219 229.367188 167.375 229.140625 167.652344 228.882812 C 167.933594 228.628906 168.183594 228.347656 168.410156 228.042969 C 168.632812 227.738281 168.828125 227.414062 168.992188 227.074219 C 169.152344 226.730469 169.28125 226.375 169.378906 226.007812 C 169.472656 225.644531 169.53125 225.269531 169.554688 224.890625 C 169.578125 224.515625 169.5625 224.136719 169.515625 223.761719 C 169.464844 223.386719 169.378906 223.019531 169.257812 222.660156 L 142.824219 149.609375 C 142.628906 149.039062 142.351562 148.515625 141.992188 148.03125 C 141.632812 147.550781 141.207031 147.136719 140.71875 146.789062 C 140.226562 146.441406 139.695312 146.175781 139.121094 145.996094 C 138.546875 145.816406 137.960938 145.726562 137.359375 145.730469 C 136.757812 145.726562 136.171875 145.816406 135.597656 145.996094 C 135.023438 146.175781 134.492188 146.441406 134.003906 146.789062 C 133.511719 147.136719 133.085938 147.550781 132.726562 148.03125 C 132.367188 148.515625 132.089844 149.039062 131.894531 149.609375 L 105.460938 222.660156 C 105.328125 223.015625 105.230469 223.378906 105.167969 223.753906 C 105.109375 224.128906 105.085938 224.507812 105.101562 224.886719 C 105.113281 225.265625 105.167969 225.640625 105.257812 226.011719 C 105.34375 226.378906 105.46875 226.734375 105.628906 227.082031 C 105.789062 227.425781 105.980469 227.75 106.207031 228.054688 C 106.429688 228.363281 106.683594 228.644531 106.964844 228.898438 C 107.242188 229.15625 107.546875 229.382812 107.871094 229.578125 C 108.199219 229.773438 108.539062 229.933594 108.898438 230.0625 C 109.574219 230.144531 110.246094 230.144531 110.921875 230.0625 C 111.523438 230.058594 112.109375 229.96875 112.679688 229.785156 C 113.25 229.601562 113.78125 229.335938 114.269531 228.988281 C 114.757812 228.640625 115.183594 228.230469 115.546875 227.75 C 115.90625 227.273438 116.1875 226.75 116.386719 226.183594 L 123.261719 206.796875 L 151.371094 206.796875 Z M 128.019531 194.988281 L 137.625 168.554688 L 147.230469 194.988281 Z M 128.019531 194.988281 " fill-opacity="1" fill-rule="nonzero"/><path fill="#ffffff" d="M 264.78125 230.238281 C 265.160156 230.234375 265.539062 230.191406 265.910156 230.113281 C 266.28125 230.035156 266.644531 229.921875 266.992188 229.773438 C 267.34375 229.625 267.675781 229.445312 267.992188 229.230469 C 268.308594 229.019531 268.601562 228.777344 268.867188 228.507812 C 269.136719 228.242188 269.378906 227.949219 269.589844 227.632812 C 269.804688 227.316406 269.984375 226.984375 270.132812 226.632812 C 270.28125 226.285156 270.394531 225.921875 270.472656 225.550781 C 270.550781 225.179688 270.589844 224.800781 270.597656 224.421875 L 270.597656 150.929688 C 270.597656 150.546875 270.558594 150.171875 270.484375 149.796875 C 270.410156 149.421875 270.300781 149.058594 270.15625 148.703125 C 270.007812 148.351562 269.828125 148.015625 269.617188 147.699219 C 269.40625 147.382812 269.164062 147.085938 268.894531 146.816406 C 268.625 146.546875 268.328125 146.304688 268.011719 146.09375 C 267.695312 145.882812 267.359375 145.703125 267.007812 145.558594 C 266.652344 145.410156 266.289062 145.300781 265.914062 145.226562 C 265.542969 145.152344 265.164062 145.113281 264.78125 145.113281 C 264.398438 145.113281 264.019531 145.152344 263.648438 145.226562 C 263.273438 145.300781 262.910156 145.410156 262.554688 145.558594 C 262.203125 145.703125 261.867188 145.882812 261.550781 146.09375 C 261.234375 146.304688 260.9375 146.546875 260.667969 146.816406 C 260.398438 147.085938 260.15625 147.382812 259.945312 147.699219 C 259.734375 148.015625 259.554688 148.351562 259.40625 148.703125 C 259.261719 149.058594 259.152344 149.421875 259.078125 149.796875 C 259.003906 150.171875 258.964844 150.546875 258.964844 150.929688 L 258.964844 223.980469 C 258.941406 224.378906 258.957031 224.777344 259.015625 225.171875 C 259.070312 225.566406 259.167969 225.953125 259.300781 226.328125 C 259.4375 226.703125 259.609375 227.0625 259.816406 227.402344 C 260.023438 227.746094 260.261719 228.0625 260.535156 228.355469 C 260.804688 228.648438 261.105469 228.910156 261.429688 229.140625 C 261.753906 229.371094 262.101562 229.570312 262.464844 229.730469 C 262.828125 229.894531 263.207031 230.015625 263.597656 230.101562 C 263.988281 230.1875 264.382812 230.234375 264.78125 230.238281 Z M 264.78125 230.238281 " fill-opacity="1" fill-rule="nonzero"/><path fill="#ffffff" d="M 131.894531 136.214844 C 132.65625 136.214844 133.386719 136.070312 134.089844 135.78125 C 134.792969 135.488281 135.410156 135.078125 135.949219 134.539062 C 136.808594 133.691406 137.6875 132.867188 138.585938 132.0625 C 139.484375 131.261719 140.402344 130.476562 141.339844 129.71875 C 142.277344 128.960938 143.234375 128.222656 144.207031 127.511719 C 145.179688 126.796875 146.167969 126.109375 147.175781 125.445312 C 148.179688 124.78125 149.203125 124.140625 150.242188 123.527344 C 151.277344 122.910156 152.328125 122.320312 153.394531 121.757812 C 154.460938 121.195312 155.542969 120.65625 156.632812 120.144531 C 157.726562 119.632812 158.832031 119.148438 159.945312 118.691406 C 161.0625 118.234375 162.1875 117.804688 163.324219 117.402344 C 164.460938 117 165.609375 116.625 166.761719 116.277344 C 167.917969 115.929688 169.082031 115.613281 170.25 115.320312 C 171.421875 115.03125 172.597656 114.769531 173.78125 114.535156 C 174.964844 114.300781 176.152344 114.097656 177.347656 113.921875 C 178.539062 113.746094 179.738281 113.601562 180.9375 113.484375 C 182.136719 113.367188 183.339844 113.277344 184.542969 113.21875 C 185.75 113.160156 186.953125 113.132812 188.160156 113.132812 C 189.367188 113.132812 190.574219 113.160156 191.777344 113.21875 C 192.980469 113.277344 194.183594 113.367188 195.382812 113.484375 C 196.585938 113.601562 197.78125 113.746094 198.976562 113.921875 C 200.167969 114.097656 201.355469 114.300781 202.539062 114.535156 C 203.722656 114.769531 204.898438 115.03125 206.070312 115.320312 C 207.242188 115.613281 208.402344 115.929688 209.558594 116.277344 C 210.714844 116.625 211.859375 117 212.996094 117.402344 C 214.132812 117.804688 215.257812 118.234375 216.375 118.691406 C 217.492188 119.148438 218.59375 119.632812 219.6875 120.144531 C 220.78125 120.65625 221.859375 121.195312 222.925781 121.757812 C 223.992188 122.320312 225.042969 122.910156 226.082031 123.527344 C 227.117188 124.140625 228.140625 124.78125 229.148438 125.445312 C 230.152344 126.109375 231.144531 126.796875 232.117188 127.511719 C 233.089844 128.222656 234.042969 128.960938 234.980469 129.71875 C 235.917969 130.476562 236.835938 131.261719 237.734375 132.0625 C 238.632812 132.867188 239.511719 133.691406 240.371094 134.539062 C 240.902344 135.085938 241.523438 135.503906 242.226562 135.792969 C 242.929688 136.085938 243.664062 136.226562 244.425781 136.214844 C 245.207031 136.207031 245.953125 136.046875 246.671875 135.742188 C 247.386719 135.4375 248.019531 135.007812 248.566406 134.453125 C 248.835938 134.183594 249.074219 133.890625 249.285156 133.570312 C 249.496094 133.253906 249.671875 132.921875 249.816406 132.570312 C 249.960938 132.21875 250.070312 131.855469 250.144531 131.484375 C 250.21875 131.109375 250.253906 130.734375 250.253906 130.355469 C 250.253906 129.972656 250.21875 129.597656 250.144531 129.226562 C 250.070312 128.851562 249.960938 128.488281 249.816406 128.136719 C 249.671875 127.785156 249.496094 127.453125 249.285156 127.136719 C 249.074219 126.820312 248.835938 126.527344 248.566406 126.257812 C 247.574219 125.28125 246.558594 124.328125 245.515625 123.402344 C 244.476562 122.476562 243.414062 121.578125 242.332031 120.703125 C 241.25 119.828125 240.144531 118.980469 239.019531 118.15625 C 237.894531 117.335938 236.75 116.542969 235.589844 115.777344 C 234.425781 115.011719 233.242188 114.273438 232.042969 113.566406 C 230.847656 112.859375 229.628906 112.179688 228.398438 111.53125 C 227.167969 110.878906 225.921875 110.261719 224.65625 109.671875 C 223.394531 109.082031 222.121094 108.523438 220.832031 107.996094 C 219.542969 107.472656 218.242188 106.976562 216.929688 106.511719 C 215.617188 106.046875 214.292969 105.617188 212.957031 105.214844 C 211.625 104.816406 210.28125 104.449219 208.929688 104.113281 C 207.578125 103.78125 206.21875 103.480469 204.851562 103.210938 C 203.484375 102.941406 202.113281 102.707031 200.734375 102.503906 C 199.359375 102.300781 197.976562 102.132812 196.589844 102 C 195.203125 101.863281 193.816406 101.761719 192.425781 101.695312 C 191.035156 101.628906 189.640625 101.59375 188.25 101.59375 C 186.855469 101.59375 185.464844 101.628906 184.074219 101.695312 C 182.683594 101.761719 181.292969 101.863281 179.910156 102 C 178.523438 102.132812 177.140625 102.300781 175.761719 102.503906 C 174.382812 102.707031 173.011719 102.941406 171.644531 103.210938 C 170.28125 103.480469 168.921875 103.78125 167.570312 104.113281 C 166.21875 104.449219 164.875 104.816406 163.539062 105.214844 C 162.207031 105.617188 160.882812 106.046875 159.570312 106.511719 C 158.257812 106.976562 156.957031 107.472656 155.667969 107.996094 C 154.378906 108.523438 153.101562 109.082031 151.839844 109.671875 C 150.578125 110.261719 149.332031 110.878906 148.097656 111.53125 C 146.867188 112.179688 145.652344 112.859375 144.453125 113.566406 C 143.253906 114.273438 142.074219 115.011719 140.910156 115.777344 C 139.746094 116.542969 138.601562 117.335938 137.476562 118.15625 C 136.355469 118.980469 135.25 119.828125 134.164062 120.703125 C 133.082031 121.578125 132.019531 122.476562 130.980469 123.402344 C 129.941406 124.328125 128.925781 125.28125 127.929688 126.257812 C 127.65625 126.523438 127.414062 126.8125 127.199219 127.128906 C 126.984375 127.445312 126.800781 127.777344 126.652344 128.132812 C 126.507812 128.484375 126.394531 128.847656 126.320312 129.21875 C 126.242188 129.59375 126.207031 129.972656 126.207031 130.355469 C 126.207031 130.734375 126.242188 131.113281 126.320312 131.488281 C 126.394531 131.863281 126.507812 132.226562 126.652344 132.578125 C 126.800781 132.929688 126.984375 133.261719 127.199219 133.578125 C 127.414062 133.894531 127.65625 134.183594 127.929688 134.453125 C 128.457031 134.988281 129.0625 135.40625 129.746094 135.710938 C 130.429688 136.015625 131.148438 136.183594 131.894531 136.214844 Z M 131.894531 136.214844 " fill-opacity="1" fill-rule="nonzero"/><path fill="#ffffff" d="M 247.070312 334.042969 C 246.363281 333.917969 245.660156 333.917969 244.953125 334.042969 C 239.875 336.023438 234.707031 337.730469 229.445312 339.15625 C 229.058594 339.195312 228.679688 339.273438 228.308594 339.390625 C 227.933594 339.507812 227.578125 339.65625 227.234375 339.84375 C 226.894531 340.027344 226.574219 340.246094 226.273438 340.496094 C 225.976562 340.746094 225.703125 341.019531 225.457031 341.324219 C 225.214844 341.625 225 341.949219 224.820312 342.292969 C 224.636719 342.636719 224.492188 342.996094 224.382812 343.371094 C 224.269531 343.742188 224.199219 344.125 224.160156 344.511719 C 224.125 344.898438 224.128906 345.289062 224.167969 345.675781 C 224.210938 346.0625 224.285156 346.441406 224.402344 346.8125 C 224.515625 347.183594 224.667969 347.542969 224.851562 347.882812 C 225.039062 348.226562 225.253906 348.546875 225.503906 348.847656 C 225.753906 349.148438 226.027344 349.417969 226.328125 349.664062 C 226.632812 349.910156 226.957031 350.125 227.300781 350.304688 C 227.644531 350.488281 228.003906 350.636719 228.375 350.746094 C 228.75 350.855469 229.128906 350.929688 229.515625 350.96875 C 229.902344 351.003906 230.292969 351.003906 230.679688 350.960938 L 232.175781 350.960938 C 237.816406 349.375 243.457031 347.527344 248.917969 345.5 C 249.273438 345.355469 249.609375 345.175781 249.925781 344.964844 C 250.246094 344.753906 250.539062 344.515625 250.8125 344.246094 C 251.085938 343.980469 251.328125 343.6875 251.542969 343.371094 C 251.757812 343.058594 251.941406 342.726562 252.09375 342.375 C 252.242188 342.023438 252.359375 341.660156 252.441406 341.289062 C 252.519531 340.914062 252.566406 340.539062 252.574219 340.15625 C 252.582031 339.773438 252.550781 339.394531 252.484375 339.019531 C 252.417969 338.644531 252.316406 338.277344 252.179688 337.921875 C 251.992188 337.382812 251.730469 336.882812 251.394531 336.421875 C 251.058594 335.960938 250.660156 335.558594 250.207031 335.214844 C 249.753906 334.871094 249.257812 334.597656 248.722656 334.398438 C 248.191406 334.199219 247.636719 334.082031 247.070312 334.042969 Z M 247.070312 334.042969 " fill-opacity="1" fill-rule="nonzero"/><path fill="#ffffff" d="M 328.050781 271.917969 C 327.097656 271.253906 326.042969 270.929688 324.878906 270.949219 C 323.894531 270.929688 322.96875 271.15625 322.105469 271.625 C 321.238281 272.097656 320.546875 272.753906 320.03125 273.59375 C 317.035156 278.085938 313.777344 282.40625 310.339844 286.8125 C 310 287.238281 309.730469 287.703125 309.519531 288.203125 C 309.3125 288.707031 309.179688 289.230469 309.117188 289.769531 C 309.054688 290.3125 309.070312 290.847656 309.160156 291.386719 C 309.25 291.921875 309.414062 292.4375 309.648438 292.925781 C 309.878906 293.417969 310.179688 293.867188 310.539062 294.273438 C 310.898438 294.683594 311.308594 295.03125 311.765625 295.324219 C 312.222656 295.617188 312.714844 295.84375 313.234375 296 C 313.757812 296.152344 314.289062 296.234375 314.832031 296.238281 C 315.714844 296.234375 316.554688 296.050781 317.355469 295.679688 C 318.152344 295.3125 318.839844 294.792969 319.414062 294.125 C 323.027344 289.542969 326.554688 284.785156 329.726562 279.9375 C 329.933594 279.621094 330.105469 279.285156 330.246094 278.929688 C 330.386719 278.578125 330.492188 278.214844 330.5625 277.839844 C 330.632812 277.46875 330.667969 277.089844 330.664062 276.710938 C 330.660156 276.332031 330.617188 275.957031 330.539062 275.582031 C 330.460938 275.210938 330.347656 274.851562 330.199219 274.5 C 330.050781 274.152344 329.871094 273.820312 329.660156 273.503906 C 329.445312 273.191406 329.203125 272.898438 328.933594 272.632812 C 328.664062 272.367188 328.367188 272.128906 328.050781 271.917969 Z M 328.050781 271.917969 " fill-opacity="1" fill-rule="nonzero"/><path fill="#ffffff" d="M 347.171875 224.863281 C 346.644531 224.773438 346.117188 224.773438 345.585938 224.863281 C 344.957031 224.859375 344.339844 224.960938 343.742188 225.160156 C 343.144531 225.359375 342.59375 225.652344 342.09375 226.035156 C 341.589844 226.417969 341.164062 226.871094 340.8125 227.394531 C 340.460938 227.917969 340.199219 228.484375 340.035156 229.09375 C 338.597656 234.378906 336.894531 239.578125 334.925781 244.691406 C 334.789062 245.046875 334.691406 245.410156 334.628906 245.785156 C 334.5625 246.164062 334.539062 246.539062 334.550781 246.921875 C 334.558594 247.300781 334.609375 247.675781 334.691406 248.046875 C 334.777344 248.417969 334.898438 248.777344 335.054688 249.125 C 335.207031 249.472656 335.394531 249.804688 335.617188 250.113281 C 335.835938 250.425781 336.085938 250.710938 336.359375 250.972656 C 336.636719 251.234375 336.9375 251.46875 337.257812 251.671875 C 337.578125 251.875 337.917969 252.042969 338.273438 252.179688 C 338.949219 252.3125 339.625 252.3125 340.300781 252.179688 C 340.890625 252.183594 341.464844 252.101562 342.03125 251.929688 C 342.59375 251.761719 343.121094 251.511719 343.609375 251.179688 C 344.09375 250.847656 344.523438 250.453125 344.890625 249.992188 C 345.257812 249.53125 345.550781 249.027344 345.765625 248.480469 C 347.902344 243.03125 349.722656 237.480469 351.226562 231.824219 C 351.316406 231.464844 351.367188 231.097656 351.382812 230.726562 C 351.402344 230.351562 351.382812 229.984375 351.328125 229.617188 C 351.277344 229.246094 351.1875 228.886719 351.066406 228.535156 C 350.941406 228.1875 350.789062 227.851562 350.601562 227.527344 C 350.414062 227.207031 350.199219 226.90625 349.953125 226.625 C 349.707031 226.347656 349.4375 226.09375 349.144531 225.863281 C 348.851562 225.636719 348.539062 225.4375 348.207031 225.269531 C 347.875 225.101562 347.53125 224.964844 347.171875 224.863281 Z M 347.171875 224.863281 " fill-opacity="1" fill-rule="nonzero"/><path fill="#ffffff" d="M 290.863281 308.578125 C 289.503906 308.589844 288.300781 309.027344 287.253906 309.898438 C 283.011719 313.359375 278.605469 316.589844 274.035156 319.59375 C 273.71875 319.800781 273.421875 320.039062 273.152344 320.304688 C 272.882812 320.574219 272.640625 320.863281 272.425781 321.179688 C 272.214844 321.492188 272.03125 321.824219 271.882812 322.175781 C 271.734375 322.523438 271.625 322.886719 271.546875 323.257812 C 271.46875 323.628906 271.425781 324.003906 271.421875 324.382812 C 271.417969 324.765625 271.453125 325.140625 271.523438 325.515625 C 271.589844 325.886719 271.695312 326.25 271.839844 326.605469 C 271.980469 326.957031 272.152344 327.292969 272.359375 327.609375 C 272.910156 328.410156 273.613281 329.035156 274.46875 329.484375 C 275.324219 329.9375 276.238281 330.164062 277.207031 330.167969 C 278.347656 330.175781 279.40625 329.882812 280.378906 329.285156 C 285.226562 326.113281 289.984375 322.589844 294.566406 318.886719 C 294.863281 318.652344 295.132812 318.390625 295.378906 318.097656 C 295.625 317.808594 295.839844 317.5 296.023438 317.167969 C 296.207031 316.835938 296.355469 316.488281 296.46875 316.125 C 296.582031 315.765625 296.660156 315.394531 296.703125 315.019531 C 296.742188 314.640625 296.746094 314.261719 296.710938 313.886719 C 296.679688 313.507812 296.605469 313.136719 296.5 312.773438 C 296.390625 312.410156 296.25 312.058594 296.074219 311.722656 C 295.894531 311.390625 295.6875 311.074219 295.445312 310.78125 C 294.890625 310.085938 294.207031 309.546875 293.40625 309.160156 C 292.601562 308.773438 291.753906 308.578125 290.863281 308.578125 Z M 290.863281 308.578125 " fill-opacity="1" fill-rule="nonzero"/><path fill="#ffffff" d="M 244.425781 239.050781 C 243.671875 239.039062 242.945312 239.167969 242.242188 239.441406 C 241.539062 239.71875 240.917969 240.117188 240.371094 240.636719 C 239.511719 241.484375 238.632812 242.308594 237.734375 243.113281 C 236.835938 243.917969 235.917969 244.699219 234.980469 245.457031 C 234.042969 246.214844 233.089844 246.953125 232.117188 247.664062 C 231.144531 248.378906 230.152344 249.066406 229.148438 249.730469 C 228.140625 250.394531 227.117188 251.035156 226.082031 251.652344 C 225.042969 252.265625 223.992188 252.855469 222.925781 253.417969 C 221.859375 253.980469 220.78125 254.519531 219.6875 255.03125 C 218.59375 255.542969 217.492188 256.027344 216.375 256.484375 C 215.257812 256.941406 214.132812 257.371094 212.996094 257.773438 C 211.859375 258.175781 210.714844 258.550781 209.558594 258.898438 C 208.402344 259.246094 207.242188 259.566406 206.070312 259.855469 C 204.898438 260.144531 203.722656 260.40625 202.539062 260.640625 C 201.355469 260.875 200.167969 261.078125 198.976562 261.253906 C 197.78125 261.429688 196.585938 261.574219 195.382812 261.691406 C 194.183594 261.808594 192.980469 261.898438 191.777344 261.957031 C 190.574219 262.015625 189.367188 262.042969 188.160156 262.042969 C 186.953125 262.042969 185.75 262.015625 184.542969 261.957031 C 183.339844 261.898438 182.136719 261.808594 180.9375 261.691406 C 179.738281 261.574219 178.539062 261.429688 177.347656 261.253906 C 176.152344 261.078125 174.964844 260.875 173.78125 260.640625 C 172.597656 260.40625 171.421875 260.144531 170.25 259.855469 C 169.082031 259.566406 167.917969 259.246094 166.761719 258.898438 C 165.609375 258.550781 164.460938 258.175781 163.324219 257.773438 C 162.1875 257.371094 161.0625 256.941406 159.945312 256.484375 C 158.832031 256.027344 157.726562 255.542969 156.632812 255.03125 C 155.542969 254.519531 154.460938 253.980469 153.394531 253.417969 C 152.328125 252.855469 151.277344 252.265625 150.242188 251.652344 C 149.203125 251.035156 148.179688 250.394531 147.175781 249.730469 C 146.167969 249.066406 145.179688 248.378906 144.207031 247.664062 C 143.234375 246.953125 142.277344 246.214844 141.339844 245.457031 C 140.402344 244.699219 139.484375 243.917969 138.585938 243.113281 C 137.6875 242.308594 136.808594 241.484375 135.949219 240.636719 C 134.8125 239.5625 133.460938 239.007812 131.894531 238.960938 C 131.117188 238.972656 130.367188 239.128906 129.652344 239.433594 C 128.933594 239.738281 128.300781 240.167969 127.753906 240.722656 C 127.480469 240.992188 127.238281 241.28125 127.023438 241.597656 C 126.808594 241.914062 126.625 242.246094 126.476562 242.597656 C 126.328125 242.949219 126.21875 243.3125 126.140625 243.6875 C 126.066406 244.0625 126.027344 244.441406 126.027344 244.820312 C 126.027344 245.203125 126.066406 245.582031 126.140625 245.957031 C 126.21875 246.332031 126.328125 246.691406 126.476562 247.046875 C 126.625 247.398438 126.808594 247.730469 127.023438 248.046875 C 127.238281 248.363281 127.480469 248.652344 127.753906 248.917969 C 128.746094 249.898438 129.761719 250.855469 130.800781 251.785156 C 131.835938 252.714844 132.898438 253.617188 133.980469 254.496094 C 135.0625 255.375 136.164062 256.226562 137.289062 257.050781 C 138.410156 257.875 139.554688 258.671875 140.714844 259.441406 C 141.878906 260.210938 143.058594 260.949219 144.257812 261.664062 C 145.457031 262.375 146.671875 263.054688 147.902344 263.707031 C 149.132812 264.359375 150.382812 264.980469 151.644531 265.574219 C 152.90625 266.164062 154.179688 266.726562 155.46875 267.253906 C 156.757812 267.785156 158.058594 268.28125 159.375 268.75 C 160.6875 269.214844 162.011719 269.648438 163.347656 270.050781 C 164.679688 270.453125 166.023438 270.820312 167.378906 271.15625 C 168.730469 271.492188 170.089844 271.796875 171.457031 272.066406 C 172.824219 272.335938 174.199219 272.570312 175.578125 272.773438 C 176.957031 272.976562 178.339844 273.144531 179.726562 273.28125 C 181.113281 273.417969 182.503906 273.519531 183.894531 273.585938 C 185.285156 273.65625 186.679688 273.6875 188.074219 273.6875 C 189.464844 273.6875 190.859375 273.65625 192.25 273.585938 C 193.644531 273.519531 195.03125 273.417969 196.421875 273.28125 C 197.808594 273.144531 199.191406 272.976562 200.570312 272.773438 C 201.949219 272.570312 203.320312 272.335938 204.6875 272.066406 C 206.054688 271.796875 207.414062 271.492188 208.769531 271.15625 C 210.121094 270.820312 211.464844 270.453125 212.800781 270.050781 C 214.132812 269.648438 215.457031 269.214844 216.773438 268.75 C 218.085938 268.28125 219.386719 267.785156 220.675781 267.253906 C 221.964844 266.726562 223.242188 266.164062 224.503906 265.574219 C 225.765625 264.980469 227.011719 264.359375 228.242188 263.707031 C 229.472656 263.054688 230.691406 262.375 231.886719 261.664062 C 233.085938 260.949219 234.265625 260.210938 235.429688 259.441406 C 236.589844 258.671875 237.734375 257.875 238.859375 257.050781 C 239.980469 256.226562 241.085938 255.375 242.167969 254.496094 C 243.25 253.617188 244.308594 252.714844 245.347656 251.785156 C 246.382812 250.855469 247.398438 249.898438 248.390625 248.917969 C 248.804688 248.523438 249.152344 248.078125 249.429688 247.578125 C 249.710938 247.078125 249.910156 246.550781 250.03125 245.988281 C 250.152344 245.429688 250.191406 244.863281 250.140625 244.292969 C 250.09375 243.722656 249.960938 243.171875 249.75 242.644531 C 249.535156 242.113281 249.25 241.625 248.890625 241.179688 C 248.53125 240.734375 248.113281 240.351562 247.636719 240.03125 C 247.164062 239.710938 246.652344 239.464844 246.105469 239.300781 C 245.558594 239.132812 244.996094 239.050781 244.425781 239.050781 Z M 244.425781 239.050781 " fill-opacity="1" fill-rule="nonzero"/></svg>