<svg xmlns="http://www.w3.org/2000/svg" xmlns:xlink="http://www.w3.org/1999/xlink" width="500" zoomAndPan="magnify" viewBox="0 0 375 374.999991" height="500" preserveAspectRatio="xMidYMid meet" version="1.0"><defs><clipPath id="4bad37be52"><path d="M 223 79 L 356.25 79 L 356.25 295 L 223 295 Z M 223 79 " clip-rule="nonzero"/></clipPath><clipPath id="b55d6a8a7c"><path d="M 18.75 14.019531 L 244 14.019531 L 244 361.238281 L 18.75 361.238281 Z M 18.75 14.019531 " clip-rule="nonzero"/></clipPath><clipPath id="04e7000bfd"><path d="M 18.75 299 L 244 299 L 244 321 L 18.75 321 Z M 18.75 299 " clip-rule="nonzero"/></clipPath></defs><path fill="#ffffff" d="M 243.398438 228.320312 C 238.835938 228.320312 234.347656 227.570312 229.789062 226.074219 C 225.636719 224.714844 222.847656 220.765625 222.847656 216.414062 L 222.847656 158.644531 C 222.847656 154.222656 225.636719 150.34375 229.789062 148.984375 C 234.277344 147.484375 238.90625 146.738281 243.464844 146.738281 C 266.054688 146.738281 284.425781 165.039062 284.425781 187.5625 C 284.425781 210.085938 265.988281 228.320312 243.398438 228.320312 Z M 243.191406 207.90625 C 243.261719 207.90625 243.328125 207.90625 243.398438 207.90625 C 254.761719 207.90625 264.011719 198.722656 264.011719 187.496094 C 264.011719 176.132812 254.691406 166.945312 243.191406 167.082031 Z M 243.191406 207.90625 " fill-opacity="1" fill-rule="nonzero"/><g clip-path="url(#4bad37be52)"><path fill="#ffffff" d="M 267.960938 294.933594 L 233.460938 294.933594 C 227.816406 294.933594 223.257812 290.375 223.257812 284.726562 C 223.257812 279.078125 227.816406 274.519531 233.460938 274.519531 L 257.753906 274.519531 L 257.753906 254.175781 C 257.753906 251.453125 258.84375 248.867188 260.746094 246.964844 C 261.902344 245.808594 263.265625 244.992188 264.761719 244.515625 C 266.597656 243.832031 275.445312 240.296875 277.078125 239.410156 C 281.023438 237.234375 285.921875 237.980469 289.1875 241.179688 L 303.546875 255.535156 L 316.609375 242.472656 L 302.253906 228.117188 C 299.125 224.984375 298.375 220.292969 300.347656 216.34375 C 300.417969 216.207031 300.484375 216.140625 300.550781 216.003906 C 301.367188 214.4375 304.839844 205.796875 305.585938 203.824219 C 306.949219 199.742188 310.757812 196.75 315.316406 196.75 L 335.660156 196.75 L 335.660156 178.242188 L 315.316406 178.242188 C 310.894531 178.242188 307.015625 175.382812 305.65625 171.234375 C 304.976562 169.394531 301.4375 160.550781 300.550781 158.917969 C 298.375 154.96875 299.125 150.070312 302.320312 146.804688 L 316.679688 132.449219 L 303.613281 119.382812 L 289.257812 133.742188 C 286.058594 136.9375 281.09375 137.6875 277.144531 135.441406 C 275.582031 134.625 266.667969 131.085938 264.898438 130.40625 C 260.746094 129.046875 257.957031 125.101562 257.957031 120.746094 L 257.957031 100.402344 L 233.667969 100.402344 C 228.019531 100.402344 223.460938 95.839844 223.460938 90.195312 C 223.460938 84.546875 228.019531 79.988281 233.667969 79.988281 L 268.164062 79.988281 C 273.8125 79.988281 278.371094 84.546875 278.371094 90.195312 L 278.371094 113.804688 C 278.847656 114.007812 279.324219 114.214844 279.800781 114.417969 L 296.46875 97.746094 C 298.375 95.839844 300.960938 94.753906 303.683594 94.753906 C 306.402344 94.753906 308.988281 95.839844 310.894531 97.746094 L 338.382812 125.234375 C 340.289062 127.140625 341.378906 129.726562 341.378906 132.449219 C 341.378906 135.171875 340.289062 137.753906 338.382812 139.660156 L 321.714844 156.332031 C 321.917969 156.808594 322.121094 157.285156 322.324219 157.828125 L 345.9375 157.828125 C 351.582031 157.828125 356.144531 162.386719 356.144531 168.035156 L 356.144531 206.953125 C 356.144531 212.601562 351.582031 217.160156 345.9375 217.160156 L 322.324219 217.160156 C 322.121094 217.636719 321.917969 218.113281 321.714844 218.65625 L 338.382812 235.328125 C 340.289062 237.234375 341.378906 239.820312 341.378906 242.539062 C 341.378906 245.261719 340.289062 247.847656 338.382812 249.753906 L 310.894531 277.242188 C 306.878906 281.257812 300.417969 281.257812 296.46875 277.242188 L 279.800781 260.570312 C 279.324219 260.777344 278.847656 260.980469 278.371094 261.183594 L 278.371094 284.796875 C 278.167969 290.375 273.609375 294.933594 267.960938 294.933594 Z M 265.101562 244.378906 C 265.035156 244.378906 264.898438 244.445312 264.761719 244.445312 C 264.898438 244.445312 264.964844 244.445312 265.101562 244.378906 Z M 305.453125 170.890625 C 305.453125 170.960938 305.519531 171.097656 305.585938 171.234375 C 305.453125 171.097656 305.453125 171.027344 305.453125 170.890625 Z M 264.761719 130.476562 C 264.898438 130.542969 265.035156 130.542969 265.101562 130.613281 C 265.035156 130.542969 264.898438 130.542969 264.761719 130.476562 Z M 264.761719 130.476562 " fill-opacity="1" fill-rule="nonzero"/></g><path fill="#ffffff" d="M 123.574219 167.761719 C 122.417969 167.761719 121.191406 167.558594 120.035156 167.148438 C 114.730469 165.175781 112.007812 159.324219 113.980469 154.085938 L 128.949219 113.261719 C 130.921875 107.953125 136.773438 105.230469 142.015625 107.203125 C 147.320312 109.179688 150.042969 115.03125 148.070312 120.269531 L 133.101562 161.09375 C 131.671875 165.175781 127.792969 167.761719 123.574219 167.761719 Z M 123.574219 167.761719 " fill-opacity="1" fill-rule="nonzero"/><path fill="#ffffff" d="M 161.746094 75.226562 L 131.128906 75.226562 C 125.480469 75.226562 120.921875 70.667969 120.921875 65.019531 C 120.921875 59.371094 125.480469 54.8125 131.128906 54.8125 L 161.746094 54.8125 C 167.394531 54.8125 171.953125 59.371094 171.953125 65.019531 C 171.953125 70.667969 167.324219 75.226562 161.746094 75.226562 Z M 161.746094 75.226562 " fill-opacity="1" fill-rule="nonzero"/><path fill="#ffffff" d="M 90.300781 75.226562 C 89.960938 75.226562 89.621094 75.226562 89.28125 75.15625 C 88.941406 75.089844 88.601562 75.089844 88.328125 75.019531 C 87.988281 74.953125 87.648438 74.882812 87.375 74.75 C 87.035156 74.613281 86.761719 74.542969 86.421875 74.410156 C 86.082031 74.273438 85.8125 74.136719 85.539062 74 C 85.265625 73.863281 84.925781 73.660156 84.652344 73.457031 C 84.382812 73.25 84.109375 73.046875 83.835938 72.84375 C 83.566406 72.640625 83.292969 72.367188 83.089844 72.164062 C 82.886719 71.957031 82.613281 71.6875 82.410156 71.414062 C 82.203125 71.140625 82 70.871094 81.796875 70.597656 C 81.59375 70.324219 81.457031 70.054688 81.253906 69.714844 C 81.117188 69.441406 80.980469 69.101562 80.84375 68.828125 C 80.707031 68.558594 80.640625 68.214844 80.503906 67.875 C 80.433594 67.535156 80.300781 67.265625 80.230469 66.921875 C 80.164062 66.582031 80.09375 66.242188 80.09375 65.972656 C 80.027344 65.632812 80.027344 65.289062 80.027344 64.949219 C 80.027344 64.609375 80.027344 64.269531 80.09375 63.929688 C 80.164062 63.589844 80.164062 63.25 80.230469 62.976562 C 80.300781 62.636719 80.367188 62.296875 80.503906 62.023438 C 80.640625 61.683594 80.707031 61.414062 80.84375 61.070312 C 80.980469 60.730469 81.117188 60.460938 81.253906 60.1875 C 81.386719 59.914062 81.59375 59.574219 81.796875 59.304688 C 82 59.03125 82.203125 58.757812 82.410156 58.488281 C 82.613281 58.214844 82.886719 57.941406 83.089844 57.738281 C 83.292969 57.535156 83.566406 57.261719 83.835938 57.058594 C 84.109375 56.855469 84.382812 56.648438 84.652344 56.445312 C 84.925781 56.242188 85.199219 56.105469 85.539062 55.902344 C 85.8125 55.765625 86.152344 55.628906 86.421875 55.492188 C 86.695312 55.355469 87.035156 55.289062 87.375 55.152344 C 87.714844 55.085938 87.988281 54.949219 88.328125 54.878906 C 88.667969 54.8125 89.007812 54.746094 89.28125 54.746094 C 89.960938 54.675781 90.640625 54.675781 91.320312 54.746094 C 91.664062 54.746094 92.003906 54.8125 92.273438 54.878906 C 92.613281 54.949219 92.957031 55.015625 93.226562 55.152344 C 93.566406 55.289062 93.839844 55.355469 94.179688 55.492188 C 94.453125 55.628906 94.792969 55.765625 95.066406 55.902344 C 95.335938 56.035156 95.675781 56.242188 95.949219 56.445312 C 96.222656 56.648438 96.492188 56.855469 96.765625 57.058594 C 97.039062 57.261719 97.308594 57.535156 97.515625 57.738281 C 97.71875 57.941406 97.992188 58.214844 98.195312 58.488281 C 98.398438 58.757812 98.601562 59.03125 98.808594 59.304688 C 99.011719 59.574219 99.148438 59.847656 99.351562 60.1875 C 99.488281 60.460938 99.625 60.800781 99.757812 61.070312 C 99.894531 61.34375 100.03125 61.683594 100.101562 62.023438 C 100.167969 62.363281 100.304688 62.636719 100.371094 62.976562 C 100.441406 63.316406 100.507812 63.65625 100.507812 63.929688 C 100.507812 64.269531 100.574219 64.609375 100.574219 64.949219 C 100.574219 65.289062 100.574219 65.632812 100.507812 65.972656 C 100.441406 66.3125 100.441406 66.652344 100.371094 66.921875 C 100.304688 67.265625 100.234375 67.605469 100.101562 67.875 C 100.03125 68.214844 99.894531 68.488281 99.757812 68.828125 C 99.625 69.167969 99.488281 69.441406 99.351562 69.714844 C 99.214844 69.984375 99.011719 70.324219 98.808594 70.597656 C 98.601562 70.871094 98.398438 71.140625 98.195312 71.414062 C 97.992188 71.6875 97.785156 71.957031 97.515625 72.164062 C 97.242188 72.367188 97.039062 72.640625 96.765625 72.84375 C 96.492188 73.046875 96.222656 73.25 95.949219 73.457031 C 95.675781 73.660156 95.40625 73.796875 95.066406 74 C 94.722656 74.203125 94.453125 74.273438 94.179688 74.410156 C 93.90625 74.542969 93.566406 74.613281 93.226562 74.75 C 92.886719 74.816406 92.613281 74.953125 92.273438 75.019531 C 91.933594 75.089844 91.59375 75.15625 91.320312 75.15625 C 90.914062 75.226562 90.574219 75.226562 90.300781 75.226562 Z M 90.300781 75.226562 " fill-opacity="1" fill-rule="nonzero"/><g clip-path="url(#b55d6a8a7c)"><path fill="#ffffff" d="M 212.777344 361.003906 L 49.476562 361.003906 C 32.601562 361.003906 18.855469 347.257812 18.855469 330.382812 L 18.855469 44.605469 C 18.855469 27.730469 32.601562 13.988281 49.476562 13.988281 L 212.777344 13.988281 C 229.652344 13.988281 243.398438 27.730469 243.398438 44.605469 L 243.398438 330.382812 C 243.398438 347.257812 229.652344 361.003906 212.777344 361.003906 Z M 49.476562 34.398438 C 43.828125 34.398438 39.269531 38.957031 39.269531 44.605469 L 39.269531 330.382812 C 39.269531 336.03125 43.828125 340.589844 49.476562 340.589844 L 212.777344 340.589844 C 218.425781 340.589844 222.984375 336.03125 222.984375 330.382812 L 222.984375 44.605469 C 222.984375 38.957031 218.425781 34.398438 212.777344 34.398438 Z M 49.476562 34.398438 " fill-opacity="1" fill-rule="nonzero"/></g><g clip-path="url(#04e7000bfd)"><path fill="#ffffff" d="M 233.191406 320.175781 L 29.0625 320.175781 C 23.417969 320.175781 18.855469 315.617188 18.855469 309.972656 C 18.855469 304.324219 23.417969 299.765625 29.0625 299.765625 L 233.191406 299.765625 C 238.835938 299.765625 243.398438 304.324219 243.398438 309.972656 C 243.398438 315.617188 238.769531 320.175781 233.191406 320.175781 Z M 233.191406 320.175781 " fill-opacity="1" fill-rule="nonzero"/></g><path fill="#ffffff" d="M 90.300781 167.761719 C 87.714844 167.761719 85.0625 166.742188 83.089844 164.769531 L 62.675781 144.355469 C 58.660156 140.339844 58.660156 133.878906 62.675781 129.929688 L 83.089844 109.519531 C 87.105469 105.503906 93.566406 105.503906 97.515625 109.519531 C 101.460938 113.53125 101.527344 119.996094 97.515625 123.941406 L 84.3125 137.144531 L 97.515625 150.34375 C 101.527344 154.359375 101.527344 160.820312 97.515625 164.769531 C 95.472656 166.742188 92.886719 167.761719 90.300781 167.761719 Z M 90.300781 167.761719 " fill-opacity="1" fill-rule="nonzero"/><path fill="#ffffff" d="M 171.953125 167.082031 C 169.367188 167.082031 166.714844 166.0625 164.738281 164.089844 C 160.726562 160.074219 160.726562 153.609375 164.738281 149.664062 L 177.871094 136.464844 L 164.671875 123.261719 C 160.65625 119.25 160.65625 112.785156 164.671875 108.835938 C 168.6875 104.824219 175.148438 104.824219 179.097656 108.835938 L 199.507812 129.25 C 203.523438 133.265625 203.523438 139.730469 199.507812 143.675781 L 179.097656 164.089844 C 177.125 166.0625 174.539062 167.082031 171.953125 167.082031 Z M 171.953125 167.082031 " fill-opacity="1" fill-rule="nonzero"/><path fill="#ffffff" d="M 192.160156 238.527344 L 69.683594 238.527344 C 64.039062 238.527344 59.476562 233.96875 59.476562 228.320312 C 59.476562 222.671875 64.039062 218.113281 69.683594 218.113281 L 192.160156 218.113281 C 197.808594 218.113281 202.367188 222.671875 202.367188 228.320312 C 202.367188 233.96875 197.808594 238.527344 192.160156 238.527344 Z M 192.160156 238.527344 " fill-opacity="1" fill-rule="nonzero"/><path fill="#ffffff" d="M 192.160156 279.351562 L 69.683594 279.351562 C 64.039062 279.351562 59.476562 274.792969 59.476562 269.144531 C 59.476562 263.496094 64.039062 258.9375 69.683594 258.9375 L 192.160156 258.9375 C 197.808594 258.9375 202.367188 263.496094 202.367188 269.144531 C 202.367188 274.792969 197.808594 279.351562 192.160156 279.351562 Z M 192.160156 279.351562 " fill-opacity="1" fill-rule="nonzero"/></svg>