<svg xmlns="http://www.w3.org/2000/svg" xmlns:xlink="http://www.w3.org/1999/xlink" width="500" zoomAndPan="magnify" viewBox="0 0 375 374.999991" height="500" preserveAspectRatio="xMidYMid meet" version="1.0"><defs><clipPath id="df7c5e457a"><path d="M 18.75 23.964844 L 307 23.964844 L 307 104 L 18.75 104 Z M 18.75 23.964844 " clip-rule="nonzero"/></clipPath><clipPath id="997f3195f2"><path d="M 18.75 121 L 307 121 L 307 201 L 18.75 201 Z M 18.75 121 " clip-rule="nonzero"/></clipPath><clipPath id="1bc2a947fe"><path d="M 18.75 220 L 230 220 L 230 350.964844 L 18.75 350.964844 Z M 18.75 220 " clip-rule="nonzero"/></clipPath><clipPath id="548cc759ab"><path d="M 194 175 L 356.214844 175 L 356.214844 350.964844 L 194 350.964844 Z M 194 175 " clip-rule="nonzero"/></clipPath></defs><g clip-path="url(#df7c5e457a)"><path fill="#ffffff" d="M 40.648438 103.039062 L 284.738281 103.039062 C 296.816406 103.039062 306.640625 93.214844 306.640625 81.140625 L 306.640625 45.894531 C 306.640625 33.820312 296.816406 23.996094 284.738281 23.996094 L 40.648438 23.996094 C 28.574219 23.996094 18.75 33.820312 18.75 45.894531 L 18.75 81.140625 C 18.75 93.214844 28.574219 103.039062 40.648438 103.039062 Z M 29.261719 45.894531 C 29.261719 39.617188 34.371094 34.507812 40.648438 34.507812 L 284.738281 34.507812 C 291.019531 34.507812 296.128906 39.617188 296.128906 45.894531 L 296.128906 81.140625 C 296.128906 87.417969 291.019531 92.527344 284.738281 92.527344 L 40.648438 92.527344 C 34.371094 92.527344 29.261719 87.417969 29.261719 81.140625 Z M 29.261719 45.894531 " fill-opacity="1" fill-rule="nonzero"/></g><path fill="#ffffff" d="M 58.851562 68.773438 L 146.804688 68.773438 C 149.707031 68.773438 152.058594 66.421875 152.058594 63.519531 C 152.058594 60.613281 149.707031 58.261719 146.804688 58.261719 L 58.851562 58.261719 C 55.945312 58.261719 53.59375 60.613281 53.59375 63.519531 C 53.59375 66.421875 55.949219 68.773438 58.851562 68.773438 Z M 58.851562 68.773438 " fill-opacity="1" fill-rule="nonzero"/><path fill="#ffffff" d="M 219.078125 68.773438 L 222.066406 68.773438 C 224.972656 68.773438 227.324219 66.421875 227.324219 63.519531 C 227.324219 60.613281 224.972656 58.261719 222.066406 58.261719 L 219.078125 58.261719 C 216.175781 58.261719 213.824219 60.613281 213.824219 63.519531 C 213.824219 66.421875 216.175781 68.773438 219.078125 68.773438 Z M 219.078125 68.773438 " fill-opacity="1" fill-rule="nonzero"/><path fill="#ffffff" d="M 241.316406 68.773438 L 244.304688 68.773438 C 247.207031 68.773438 249.558594 66.421875 249.558594 63.519531 C 249.558594 60.613281 247.207031 58.261719 244.304688 58.261719 L 241.316406 58.261719 C 238.414062 58.261719 236.058594 60.613281 236.058594 63.519531 C 236.058594 66.421875 238.414062 68.773438 241.316406 68.773438 Z M 241.316406 68.773438 " fill-opacity="1" fill-rule="nonzero"/><path fill="#ffffff" d="M 263.550781 68.773438 L 266.539062 68.773438 C 269.441406 68.773438 271.792969 66.421875 271.792969 63.519531 C 271.792969 60.613281 269.441406 58.261719 266.539062 58.261719 L 263.550781 58.261719 C 260.648438 58.261719 258.292969 60.613281 258.292969 63.519531 C 258.292969 66.421875 260.648438 68.773438 263.550781 68.773438 Z M 263.550781 68.773438 " fill-opacity="1" fill-rule="nonzero"/><g clip-path="url(#997f3195f2)"><path fill="#ffffff" d="M 40.648438 200.859375 L 186.515625 200.859375 C 189.421875 200.859375 191.773438 198.507812 191.773438 195.605469 C 191.773438 192.703125 189.421875 190.347656 186.515625 190.347656 L 40.648438 190.347656 C 34.371094 190.347656 29.261719 185.238281 29.261719 178.960938 L 29.261719 143.71875 C 29.261719 137.4375 34.371094 132.328125 40.648438 132.328125 L 284.738281 132.328125 C 291.019531 132.328125 296.128906 137.4375 296.128906 143.71875 L 296.128906 161.339844 C 296.128906 164.242188 298.480469 166.59375 301.382812 166.59375 C 304.285156 166.59375 306.640625 164.242188 306.640625 161.339844 L 306.640625 143.71875 C 306.640625 131.640625 296.816406 121.816406 284.738281 121.816406 L 40.648438 121.816406 C 28.574219 121.816406 18.75 131.640625 18.75 143.71875 L 18.75 178.960938 C 18.75 191.035156 28.574219 200.859375 40.648438 200.859375 Z M 40.648438 200.859375 " fill-opacity="1" fill-rule="nonzero"/></g><path fill="#ffffff" d="M 58.851562 156.082031 C 55.945312 156.082031 53.59375 158.4375 53.59375 161.339844 C 53.59375 164.242188 55.945312 166.59375 58.851562 166.59375 L 146.804688 166.59375 C 149.707031 166.59375 152.058594 164.242188 152.058594 161.339844 C 152.058594 158.4375 149.707031 156.082031 146.804688 156.082031 Z M 58.851562 156.082031 " fill-opacity="1" fill-rule="nonzero"/><path fill="#ffffff" d="M 219.078125 156.082031 C 216.175781 156.082031 213.824219 158.4375 213.824219 161.339844 C 213.824219 164.242188 216.175781 166.59375 219.078125 166.59375 L 222.066406 166.59375 C 224.972656 166.59375 227.324219 164.242188 227.324219 161.339844 C 227.324219 158.4375 224.972656 156.082031 222.066406 156.082031 Z M 219.078125 156.082031 " fill-opacity="1" fill-rule="nonzero"/><path fill="#ffffff" d="M 241.316406 156.082031 C 238.414062 156.082031 236.058594 158.4375 236.058594 161.339844 C 236.058594 164.242188 238.414062 166.59375 241.316406 166.59375 L 244.304688 166.59375 C 247.207031 166.59375 249.558594 164.242188 249.558594 161.339844 C 249.558594 158.4375 247.207031 156.082031 244.304688 156.082031 Z M 241.316406 156.082031 " fill-opacity="1" fill-rule="nonzero"/><path fill="#ffffff" d="M 263.550781 156.082031 C 260.648438 156.082031 258.292969 158.4375 258.292969 161.339844 C 258.292969 164.242188 260.648438 166.59375 263.550781 166.59375 L 266.539062 166.59375 C 269.441406 166.59375 271.792969 164.242188 271.792969 161.339844 C 271.792969 158.4375 269.441406 156.082031 266.539062 156.082031 Z M 263.550781 156.082031 " fill-opacity="1" fill-rule="nonzero"/><path fill="#ffffff" d="M 58.851562 254.605469 C 55.945312 254.605469 53.59375 256.957031 53.59375 259.863281 C 53.59375 262.765625 55.945312 265.117188 58.851562 265.117188 L 146.804688 265.117188 C 149.707031 265.117188 152.058594 262.765625 152.058594 259.863281 C 152.058594 256.957031 149.707031 254.605469 146.804688 254.605469 Z M 58.851562 254.605469 " fill-opacity="1" fill-rule="nonzero"/><g clip-path="url(#1bc2a947fe)"><path fill="#ffffff" d="M 224.738281 340.574219 L 174.957031 340.574219 L 174.957031 299.382812 L 178.261719 299.382812 C 181.164062 299.382812 183.515625 297.03125 183.515625 294.128906 C 183.515625 291.222656 181.164062 288.871094 178.261719 288.871094 L 40.648438 288.871094 C 34.371094 288.871094 29.261719 283.761719 29.261719 277.484375 L 29.261719 242.238281 C 29.261719 235.960938 34.371094 230.851562 40.648438 230.851562 L 178.261719 230.851562 C 181.164062 230.851562 183.515625 228.5 183.515625 225.597656 C 183.515625 222.691406 181.164062 220.339844 178.261719 220.339844 L 40.648438 220.339844 C 28.574219 220.339844 18.75 230.164062 18.75 242.238281 L 18.75 277.484375 C 18.75 289.558594 28.574219 299.382812 40.648438 299.382812 L 164.445312 299.382812 L 164.445312 340.574219 L 95.339844 340.574219 C 92.433594 340.574219 90.082031 342.925781 90.082031 345.832031 C 90.082031 348.734375 92.433594 351.085938 95.339844 351.085938 L 224.738281 351.085938 C 227.640625 351.085938 229.992188 348.734375 229.992188 345.832031 C 229.992188 342.925781 227.640625 340.574219 224.738281 340.574219 Z M 224.738281 340.574219 " fill-opacity="1" fill-rule="nonzero"/></g><g clip-path="url(#548cc759ab)"><path fill="#ffffff" d="M 338.652344 206.8125 L 293.046875 180.480469 C 282.257812 174.253906 268.851562 174.253906 258.0625 180.480469 L 212.453125 206.8125 C 201.664062 213.042969 194.964844 224.652344 194.964844 237.109375 L 194.964844 289.773438 C 194.964844 302.230469 201.664062 313.839844 212.453125 320.066406 L 258.0625 346.398438 C 263.457031 349.511719 269.503906 351.070312 275.554688 351.070312 C 281.601562 351.070312 287.652344 349.511719 293.046875 346.398438 L 338.652344 320.066406 C 349.441406 313.835938 356.144531 302.230469 356.144531 289.773438 L 356.144531 237.109375 C 356.144531 224.652344 349.441406 213.042969 338.652344 206.8125 Z M 345.632812 289.773438 C 345.632812 298.488281 340.945312 306.605469 333.398438 310.964844 L 287.789062 337.296875 C 280.242188 341.652344 270.867188 341.652344 263.320312 337.296875 L 217.710938 310.964844 C 210.164062 306.605469 205.476562 298.488281 205.476562 289.773438 L 205.476562 237.109375 C 205.476562 228.394531 210.164062 220.273438 217.710938 215.917969 L 263.320312 189.585938 C 267.09375 187.410156 271.324219 186.320312 275.554688 186.320312 C 279.785156 186.320312 284.015625 187.410156 287.789062 189.585938 L 333.398438 215.917969 C 340.945312 220.273438 345.632812 228.394531 345.632812 237.109375 Z M 345.632812 289.773438 " fill-opacity="1" fill-rule="nonzero"/></g><path fill="#ffffff" d="M 246.09375 239.246094 L 224.734375 259.640625 C 222.6875 261.59375 222.554688 264.816406 224.429688 266.929688 L 242.539062 287.328125 C 243.578125 288.496094 245.023438 289.09375 246.472656 289.09375 C 247.714844 289.09375 248.960938 288.65625 249.960938 287.769531 C 252.132812 285.839844 252.328125 282.519531 250.402344 280.347656 L 235.65625 263.742188 L 253.355469 246.847656 C 255.453125 244.84375 255.53125 241.515625 253.527344 239.417969 C 251.519531 237.316406 248.191406 237.238281 246.09375 239.246094 Z M 246.09375 239.246094 " fill-opacity="1" fill-rule="nonzero"/><path fill="#ffffff" d="M 305.011719 239.246094 C 302.914062 237.242188 299.585938 237.316406 297.582031 239.417969 C 295.578125 241.515625 295.65625 244.84375 297.753906 246.847656 L 315.132812 263.441406 L 297.753906 280.035156 C 295.65625 282.039062 295.578125 285.367188 297.582031 287.46875 C 298.613281 288.550781 300 289.09375 301.382812 289.09375 C 302.6875 289.09375 303.996094 288.613281 305.011719 287.640625 L 326.375 267.246094 C 327.414062 266.253906 328 264.878906 328 263.441406 C 328 262.007812 327.414062 260.632812 326.375 259.640625 Z M 305.011719 239.246094 " fill-opacity="1" fill-rule="nonzero"/><path fill="#ffffff" d="M 284.792969 238.25 C 282.140625 237.0625 279.03125 238.25 277.847656 240.898438 L 259.578125 281.6875 C 258.394531 284.339844 259.578125 287.449219 262.226562 288.632812 C 262.925781 288.945312 263.65625 289.09375 264.375 289.09375 C 266.382812 289.09375 268.300781 287.9375 269.171875 285.984375 L 287.441406 245.191406 C 288.625 242.546875 287.441406 239.433594 284.792969 238.25 Z M 284.792969 238.25 " fill-opacity="1" fill-rule="nonzero"/></svg>