<svg xmlns="http://www.w3.org/2000/svg" xmlns:xlink="http://www.w3.org/1999/xlink" width="500" zoomAndPan="magnify" viewBox="0 0 375 374.999991" height="500" preserveAspectRatio="xMidYMid meet" version="1.0"><defs><clipPath id="f70e97f679"><path d="M 32 162 L 346 162 L 346 356.089844 L 32 356.089844 Z M 32 162 " clip-rule="nonzero"/></clipPath></defs><path fill="#ffffff" d="M 79.078125 207.714844 C 79.695312 207.804688 80.3125 207.804688 80.929688 207.714844 C 81.527344 207.660156 82.097656 207.515625 82.648438 207.273438 C 83.195312 207.035156 83.695312 206.714844 84.140625 206.316406 C 84.585938 205.917969 84.957031 205.457031 85.253906 204.9375 C 85.550781 204.417969 85.757812 203.863281 85.875 203.277344 C 85.996094 202.691406 86.019531 202.097656 85.945312 201.503906 C 85.875 200.910156 85.710938 200.34375 85.453125 199.800781 C 85.199219 199.261719 84.863281 198.773438 84.449219 198.339844 C 84.035156 197.90625 83.566406 197.550781 83.035156 197.269531 C 81.191406 196.6875 79.375 196.019531 77.597656 195.261719 C 75.816406 194.503906 74.074219 193.660156 72.378906 192.730469 C 70.679688 191.800781 69.03125 190.792969 67.433594 189.703125 C 65.832031 188.609375 64.292969 187.445312 62.808594 186.203125 C 61.324219 184.960938 59.902344 183.648438 58.546875 182.265625 C 57.191406 180.882812 55.910156 179.4375 54.695312 177.929688 C 53.480469 176.421875 52.34375 174.859375 51.285156 173.238281 C 50.226562 171.621094 49.246094 169.953125 48.351562 168.238281 C 47.457031 166.519531 46.644531 164.765625 45.921875 162.972656 C 45.199219 161.175781 44.566406 159.347656 44.019531 157.492188 C 43.476562 155.632812 43.023438 153.753906 42.664062 151.851562 C 42.304688 149.949219 42.039062 148.035156 41.871094 146.109375 C 41.699219 144.179688 41.621094 142.25 41.640625 140.3125 C 41.65625 138.378906 41.769531 136.449219 41.980469 134.523438 C 42.1875 132.597656 42.488281 130.691406 42.882812 128.796875 C 43.28125 126.902344 43.765625 125.03125 44.347656 123.183594 C 44.925781 121.335938 45.59375 119.523438 46.351562 117.742188 C 47.109375 115.960938 47.953125 114.21875 48.878906 112.523438 C 49.808594 110.824219 50.816406 109.175781 51.910156 107.574219 C 53 105.976562 54.164062 104.433594 55.40625 102.949219 C 56.648438 101.464844 57.960938 100.042969 59.339844 98.6875 C 60.722656 97.332031 62.167969 96.046875 63.675781 94.835938 C 65.183594 93.621094 66.746094 92.484375 68.363281 91.421875 C 69.984375 90.363281 71.652344 89.382812 73.367188 88.488281 C 75.082031 87.589844 76.835938 86.78125 78.632812 86.054688 C 80.425781 85.332031 82.253906 84.699219 84.109375 84.152344 C 85.96875 83.609375 87.847656 83.15625 89.75 82.796875 C 91.652344 82.4375 93.566406 82.167969 95.492188 81.996094 C 97.421875 81.824219 99.351562 81.75 101.289062 81.765625 C 103.222656 81.785156 105.152344 81.894531 107.078125 82.101562 C 109.003906 82.3125 110.910156 82.613281 112.804688 83.007812 C 114.703125 83.402344 116.574219 83.886719 118.417969 84.46875 L 119.851562 84.46875 C 120.421875 84.484375 120.984375 84.417969 121.535156 84.261719 C 122.085938 84.105469 122.597656 83.867188 123.074219 83.550781 C 123.550781 83.234375 123.964844 82.851562 124.320312 82.402344 C 124.675781 81.957031 124.957031 81.464844 125.160156 80.929688 C 125.828125 79.023438 126.578125 77.152344 127.40625 75.3125 C 128.234375 73.472656 129.136719 71.667969 130.117188 69.90625 C 131.097656 68.140625 132.152344 66.421875 133.277344 64.746094 C 134.402344 63.074219 135.597656 61.449219 136.863281 59.875 C 138.125 58.300781 139.453125 56.785156 140.84375 55.320312 C 142.238281 53.859375 143.6875 52.460938 145.199219 51.121094 C 146.707031 49.785156 148.273438 48.511719 149.890625 47.304688 C 151.507812 46.101562 153.175781 44.964844 154.890625 43.898438 C 156.605469 42.835938 158.359375 41.84375 160.160156 40.925781 C 161.957031 40.011719 163.789062 39.171875 165.660156 38.410156 C 167.527344 37.648438 169.425781 36.96875 171.351562 36.367188 C 173.28125 35.769531 175.230469 35.25 177.199219 34.816406 C 179.167969 34.378906 181.15625 34.027344 183.15625 33.761719 C 185.15625 33.492188 187.164062 33.3125 189.179688 33.214844 C 191.195312 33.117188 193.210938 33.105469 195.230469 33.175781 C 197.246094 33.25 199.253906 33.410156 201.257812 33.652344 C 203.261719 33.894531 205.253906 34.222656 207.226562 34.636719 C 209.203125 35.046875 211.15625 35.542969 213.09375 36.121094 C 215.027344 36.695312 216.933594 37.355469 218.808594 38.09375 C 220.6875 38.832031 222.53125 39.648438 224.339844 40.542969 C 226.148438 41.4375 227.917969 42.40625 229.644531 43.453125 C 231.371094 44.496094 233.050781 45.613281 234.683594 46.796875 C 236.316406 47.984375 237.894531 49.238281 239.421875 50.558594 C 240.949219 51.878906 242.414062 53.261719 243.824219 54.707031 C 245.234375 56.148438 246.582031 57.652344 247.863281 59.210938 C 249.144531 60.769531 250.359375 62.378906 251.503906 64.039062 C 252.652344 65.699219 253.726562 67.40625 254.726562 69.160156 C 255.726562 70.910156 256.652344 72.703125 257.503906 74.535156 C 258.351562 76.363281 259.125 78.226562 259.816406 80.121094 C 260.507812 82.019531 261.121094 83.941406 261.648438 85.886719 C 262.179688 87.835938 262.625 89.800781 262.988281 91.785156 C 263.351562 93.773438 263.628906 95.769531 263.824219 97.777344 C 263.894531 98.605469 264.136719 99.378906 264.546875 100.101562 C 264.960938 100.824219 265.503906 101.425781 266.183594 101.90625 C 267.132812 102.511719 268.171875 102.820312 269.300781 102.832031 C 269.804688 102.914062 270.308594 102.914062 270.816406 102.832031 C 275.136719 101.589844 279.546875 100.972656 284.042969 100.980469 C 285.53125 100.996094 287.015625 101.082031 288.496094 101.234375 C 289.976562 101.386719 291.449219 101.601562 292.910156 101.886719 C 294.371094 102.167969 295.816406 102.519531 297.246094 102.929688 C 298.679688 103.34375 300.085938 103.820312 301.476562 104.359375 C 302.863281 104.898438 304.222656 105.5 305.554688 106.164062 C 306.890625 106.824219 308.191406 107.542969 309.460938 108.324219 C 310.730469 109.101562 311.960938 109.933594 313.15625 110.824219 C 314.351562 111.710938 315.5 112.652344 316.613281 113.644531 C 317.722656 114.636719 318.785156 115.675781 319.800781 116.765625 C 320.816406 117.851562 321.785156 118.984375 322.699219 120.15625 C 323.613281 121.332031 324.476562 122.542969 325.28125 123.796875 C 326.085938 125.046875 326.835938 126.332031 327.527344 127.652344 C 328.21875 128.96875 328.847656 130.316406 329.417969 131.691406 C 329.988281 133.066406 330.496094 134.464844 330.941406 135.886719 C 331.386719 137.308594 331.765625 138.746094 332.082031 140.199219 C 332.398438 141.65625 332.648438 143.121094 332.832031 144.597656 C 333.019531 146.074219 333.136719 147.558594 333.1875 149.046875 C 333.238281 150.535156 333.222656 152.019531 333.140625 153.507812 C 333.058594 154.992188 332.910156 156.472656 332.695312 157.945312 C 332.480469 159.417969 332.199219 160.878906 331.855469 162.328125 C 331.507812 163.777344 331.097656 165.207031 330.625 166.617188 C 330.152344 168.027344 329.613281 169.414062 329.015625 170.777344 C 328.417969 172.140625 327.757812 173.476562 327.039062 174.78125 C 326.324219 176.082031 325.546875 177.351562 324.714844 178.585938 C 323.882812 179.824219 322.996094 181.015625 322.058594 182.171875 C 321.121094 183.328125 320.128906 184.4375 319.089844 185.503906 C 318.054688 186.570312 316.96875 187.589844 315.839844 188.558594 C 314.707031 189.527344 313.535156 190.445312 312.324219 191.308594 C 311.113281 192.171875 309.863281 192.980469 308.578125 193.730469 C 307.292969 194.484375 305.976562 195.175781 304.628906 195.8125 C 303.285156 196.445312 301.910156 197.015625 300.511719 197.527344 C 299.113281 198.039062 297.695312 198.484375 296.257812 198.871094 C 295.601562 199.035156 294.992188 199.3125 294.4375 199.699219 C 293.882812 200.085938 293.414062 200.558594 293.027344 201.117188 C 292.644531 201.675781 292.375 202.285156 292.214844 202.945312 C 292.054688 203.601562 292.015625 204.269531 292.097656 204.941406 C 292.179688 205.613281 292.378906 206.25 292.695312 206.847656 C 293.007812 207.449219 293.421875 207.972656 293.929688 208.421875 C 294.433594 208.871094 295.003906 209.21875 295.640625 209.457031 C 296.273438 209.699219 296.925781 209.820312 297.605469 209.820312 L 298.953125 209.820312 C 300.714844 209.355469 302.457031 208.8125 304.171875 208.191406 C 305.886719 207.566406 307.570312 206.871094 309.21875 206.097656 C 310.871094 205.324219 312.488281 204.476562 314.0625 203.558594 C 315.636719 202.640625 317.171875 201.65625 318.65625 200.597656 C 320.144531 199.542969 321.582031 198.421875 322.96875 197.238281 C 324.355469 196.054688 325.6875 194.808594 326.960938 193.503906 C 328.234375 192.199219 329.449219 190.839844 330.601562 189.425781 C 331.753906 188.015625 332.84375 186.550781 333.863281 185.039062 C 334.886719 183.53125 335.835938 181.976562 336.71875 180.378906 C 337.601562 178.78125 338.410156 177.148438 339.144531 175.480469 C 339.878906 173.8125 340.539062 172.113281 341.121094 170.382812 C 341.703125 168.65625 342.207031 166.902344 342.632812 165.128906 C 343.058594 163.355469 343.402344 161.566406 343.667969 159.761719 C 343.929688 157.957031 344.113281 156.144531 344.214844 154.324219 C 344.316406 152.503906 344.335938 150.679688 344.277344 148.859375 C 344.214844 147.035156 344.070312 145.21875 343.84375 143.410156 C 343.617188 141.597656 343.3125 139.800781 342.925781 138.019531 C 342.539062 136.238281 342.074219 134.476562 341.527344 132.734375 C 340.984375 130.992188 340.363281 129.28125 339.664062 127.597656 C 338.964844 125.910156 338.191406 124.261719 337.34375 122.644531 C 336.496094 121.03125 335.578125 119.457031 334.589844 117.921875 C 333.601562 116.390625 332.546875 114.90625 331.425781 113.46875 C 330.304688 112.027344 329.121094 110.644531 327.875 109.3125 C 326.628906 107.980469 325.324219 106.707031 323.960938 105.492188 C 322.601562 104.277344 321.191406 103.128906 319.726562 102.039062 C 318.261719 100.953125 316.75 99.933594 315.195312 98.980469 C 313.640625 98.027344 312.042969 97.148438 310.410156 96.339844 C 308.773438 95.53125 307.105469 94.796875 305.40625 94.136719 C 303.707031 93.476562 301.976562 92.898438 300.226562 92.394531 C 298.472656 91.890625 296.699219 91.464844 294.910156 91.121094 C 293.117188 90.777344 291.316406 90.511719 289.5 90.328125 C 287.683594 90.148438 285.867188 90.046875 284.042969 90.027344 C 280.675781 90.019531 277.335938 90.296875 274.015625 90.871094 C 273.640625 88.691406 273.179688 86.535156 272.628906 84.394531 C 272.082031 82.253906 271.445312 80.140625 270.726562 78.054688 C 270.007812 75.964844 269.207031 73.910156 268.324219 71.882812 C 267.441406 69.859375 266.476562 67.875 265.433594 65.925781 C 264.390625 63.980469 263.269531 62.078125 262.074219 60.222656 C 260.878906 58.363281 259.609375 56.558594 258.269531 54.800781 C 256.929688 53.046875 255.519531 51.347656 254.042969 49.707031 C 252.5625 48.0625 251.023438 46.484375 249.417969 44.964844 C 247.816406 43.445312 246.152344 41.996094 244.433594 40.609375 C 242.710938 39.226562 240.9375 37.910156 239.113281 36.667969 C 237.285156 35.425781 235.414062 34.257812 233.492188 33.164062 C 231.574219 32.074219 229.613281 31.058594 227.613281 30.125 C 225.613281 29.1875 223.578125 28.335938 221.507812 27.5625 C 219.4375 26.792969 217.339844 26.105469 215.214844 25.5 C 213.089844 24.898438 210.945312 24.382812 208.777344 23.949219 C 206.613281 23.519531 204.433594 23.175781 202.238281 22.917969 C 200.042969 22.664062 197.84375 22.496094 195.636719 22.414062 C 193.429688 22.335938 191.222656 22.34375 189.015625 22.441406 C 186.808594 22.539062 184.609375 22.726562 182.417969 23 C 180.226562 23.273438 178.046875 23.636719 175.886719 24.085938 C 173.722656 24.535156 171.582031 25.066406 169.460938 25.6875 C 167.339844 26.308594 165.25 27.015625 163.1875 27.804688 C 161.125 28.589844 159.09375 29.460938 157.101562 30.414062 C 155.109375 31.363281 153.15625 32.394531 151.246094 33.503906 C 149.335938 34.609375 147.472656 35.792969 145.65625 37.050781 C 143.839844 38.308594 142.078125 39.636719 140.367188 41.035156 C 138.660156 42.433594 137.007812 43.902344 135.417969 45.433594 C 133.824219 46.964844 132.296875 48.554688 130.835938 50.210938 C 129.371094 51.863281 127.976562 53.574219 126.648438 55.339844 C 125.324219 57.109375 124.070312 58.925781 122.886719 60.789062 C 121.707031 62.65625 120.601562 64.570312 119.578125 66.523438 C 118.550781 68.480469 117.601562 70.472656 116.734375 72.503906 C 112.257812 71.597656 107.738281 71.148438 103.171875 71.15625 C 101.117188 71.148438 99.066406 71.230469 97.019531 71.402344 C 94.972656 71.574219 92.9375 71.835938 90.914062 72.1875 C 88.890625 72.535156 86.886719 72.976562 84.902344 73.5 C 82.917969 74.027344 80.957031 74.640625 79.027344 75.339844 C 77.09375 76.035156 75.199219 76.816406 73.335938 77.683594 C 71.472656 78.546875 69.648438 79.492188 67.871094 80.515625 C 66.089844 81.539062 64.355469 82.640625 62.671875 83.816406 C 60.988281 84.992188 59.359375 86.238281 57.785156 87.558594 C 56.210938 88.875 54.699219 90.261719 53.246094 91.714844 C 51.792969 93.164062 50.40625 94.675781 49.085938 96.25 C 47.765625 97.824219 46.515625 99.453125 45.339844 101.132812 C 44.160156 102.816406 43.058594 104.546875 42.035156 106.328125 C 41.007812 108.105469 40.0625 109.929688 39.195312 111.789062 C 38.332031 113.652344 37.546875 115.550781 36.847656 117.480469 C 36.148438 119.410156 35.535156 121.367188 35.007812 123.355469 C 34.480469 125.339844 34.039062 127.34375 33.6875 129.367188 C 33.335938 131.390625 33.070312 133.425781 32.898438 135.46875 C 32.722656 137.515625 32.640625 139.566406 32.644531 141.621094 C 32.652344 143.675781 32.746094 145.722656 32.933594 147.769531 C 33.121094 149.816406 33.394531 151.847656 33.757812 153.871094 C 34.121094 155.890625 34.574219 157.894531 35.113281 159.875 C 35.652344 161.855469 36.277344 163.808594 36.988281 165.738281 C 37.699219 167.664062 38.496094 169.554688 39.371094 171.414062 C 40.25 173.269531 41.207031 175.085938 42.242188 176.859375 C 43.277344 178.632812 44.390625 180.355469 45.578125 182.03125 C 46.765625 183.707031 48.023438 185.328125 49.351562 186.894531 C 50.679688 188.460938 52.078125 189.964844 53.539062 191.40625 C 55 192.851562 56.519531 194.226562 58.101562 195.535156 C 59.683594 196.847656 61.320312 198.085938 63.011719 199.25 C 64.703125 200.417969 66.441406 201.507812 68.226562 202.519531 C 70.015625 203.535156 71.839844 204.46875 73.707031 205.320312 C 75.578125 206.175781 77.480469 206.945312 79.414062 207.632812 Z M 79.078125 207.714844 " fill-opacity="1" fill-rule="nonzero"/><path fill="#ffffff" d="M 232.820312 258.933594 C 232.820312 257.492188 232.75 256.050781 232.609375 254.617188 C 232.46875 253.179688 232.257812 251.753906 231.976562 250.339844 C 231.695312 248.925781 231.34375 247.527344 230.925781 246.144531 C 230.503906 244.765625 230.019531 243.40625 229.46875 242.074219 C 228.914062 240.742188 228.300781 239.4375 227.621094 238.164062 C 226.9375 236.894531 226.199219 235.65625 225.398438 234.457031 C 224.59375 233.257812 223.738281 232.101562 222.820312 230.984375 C 221.90625 229.867188 220.9375 228.800781 219.917969 227.78125 C 218.898438 226.761719 217.828125 225.792969 216.714844 224.875 C 215.597656 223.960938 214.441406 223.101562 213.242188 222.300781 C 212.039062 221.5 210.804688 220.757812 209.53125 220.078125 C 208.257812 219.398438 206.957031 218.78125 205.625 218.230469 C 204.289062 217.675781 202.933594 217.191406 201.550781 216.773438 C 200.171875 216.355469 198.773438 216.003906 197.359375 215.722656 C 195.941406 215.441406 194.515625 215.230469 193.082031 215.089844 C 191.644531 214.945312 190.207031 214.875 188.761719 214.875 C 187.320312 214.875 185.878906 214.945312 184.445312 215.089844 C 183.007812 215.230469 181.582031 215.441406 180.167969 215.722656 C 178.75 216.003906 177.355469 216.355469 175.972656 216.773438 C 174.59375 217.191406 173.234375 217.675781 171.902344 218.230469 C 170.570312 218.78125 169.265625 219.398438 167.992188 220.078125 C 166.71875 220.757812 165.484375 221.5 164.285156 222.300781 C 163.085938 223.101562 161.925781 223.960938 160.8125 224.875 C 159.695312 225.792969 158.628906 226.761719 157.609375 227.78125 C 156.585938 228.800781 155.621094 229.867188 154.703125 230.984375 C 153.789062 232.101562 152.929688 233.257812 152.128906 234.457031 C 151.328125 235.65625 150.585938 236.894531 149.90625 238.164062 C 149.226562 239.4375 148.609375 240.742188 148.058594 242.074219 C 147.503906 243.40625 147.019531 244.765625 146.601562 246.144531 C 146.179688 247.527344 145.832031 248.925781 145.550781 250.339844 C 145.269531 251.753906 145.058594 253.179688 144.914062 254.617188 C 144.773438 256.050781 144.703125 257.492188 144.703125 258.933594 C 144.703125 260.378906 144.773438 261.816406 144.914062 263.253906 C 145.058594 264.691406 145.269531 266.117188 145.550781 267.53125 C 145.832031 268.945312 146.179688 270.34375 146.601562 271.726562 C 147.019531 273.105469 147.503906 274.460938 148.058594 275.796875 C 148.609375 277.128906 149.226562 278.433594 149.90625 279.703125 C 150.585938 280.976562 151.328125 282.214844 152.128906 283.414062 C 152.929688 284.613281 153.789062 285.769531 154.703125 286.886719 C 155.621094 288 156.585938 289.070312 157.609375 290.089844 C 158.628906 291.109375 159.695312 292.078125 160.8125 292.992188 C 161.925781 293.910156 163.085938 294.765625 164.285156 295.570312 C 165.484375 296.371094 166.71875 297.113281 167.992188 297.792969 C 169.265625 298.472656 170.570312 299.089844 171.902344 299.640625 C 173.234375 300.191406 174.59375 300.679688 175.972656 301.097656 C 177.355469 301.515625 178.75 301.867188 180.167969 302.148438 C 181.582031 302.429688 183.007812 302.640625 184.445312 302.78125 C 185.878906 302.921875 187.320312 302.996094 188.761719 302.996094 C 190.207031 302.996094 191.644531 302.921875 193.082031 302.78125 C 194.515625 302.640625 195.941406 302.429688 197.359375 302.148438 C 198.773438 301.867188 200.171875 301.515625 201.550781 301.097656 C 202.933594 300.679688 204.289062 300.191406 205.625 299.640625 C 206.957031 299.089844 208.257812 298.472656 209.53125 297.792969 C 210.804688 297.113281 212.039062 296.371094 213.242188 295.570312 C 214.441406 294.765625 215.597656 293.910156 216.714844 292.992188 C 217.828125 292.078125 218.898438 291.109375 219.917969 290.089844 C 220.9375 289.070312 221.90625 288 222.820312 286.886719 C 223.738281 285.769531 224.59375 284.613281 225.398438 283.414062 C 226.199219 282.214844 226.9375 280.976562 227.621094 279.703125 C 228.300781 278.433594 228.914062 277.128906 229.46875 275.796875 C 230.019531 274.460938 230.503906 273.105469 230.925781 271.726562 C 231.34375 270.34375 231.695312 268.945312 231.976562 267.53125 C 232.257812 266.117188 232.46875 264.691406 232.609375 263.253906 C 232.75 261.816406 232.820312 260.378906 232.820312 258.933594 Z M 188.761719 291.539062 C 187.679688 291.539062 186.597656 291.488281 185.523438 291.386719 C 184.445312 291.28125 183.375 291.125 182.3125 290.917969 C 181.25 290.710938 180.199219 290.449219 179.164062 290.136719 C 178.125 289.824219 177.105469 289.460938 176.105469 289.050781 C 175.105469 288.636719 174.125 288.179688 173.171875 287.667969 C 172.214844 287.160156 171.285156 286.605469 170.382812 286.007812 C 169.484375 285.40625 168.613281 284.765625 167.773438 284.078125 C 166.9375 283.394531 166.132812 282.667969 165.367188 281.90625 C 164.601562 281.140625 163.871094 280.339844 163.183594 279.503906 C 162.496094 278.667969 161.851562 277.800781 161.246094 276.902344 C 160.644531 276.003906 160.085938 275.074219 159.574219 274.121094 C 159.0625 273.167969 158.601562 272.191406 158.183594 271.191406 C 157.769531 270.191406 157.402344 269.171875 157.089844 268.136719 C 156.773438 267.101562 156.507812 266.050781 156.296875 264.992188 C 156.085938 263.929688 155.925781 262.859375 155.816406 261.78125 C 155.710938 260.703125 155.65625 259.625 155.65625 258.542969 C 155.652344 257.460938 155.707031 256.378906 155.8125 255.300781 C 155.917969 254.222656 156.074219 253.152344 156.285156 252.09375 C 156.496094 251.03125 156.757812 249.980469 157.070312 248.945312 C 157.386719 247.910156 157.75 246.890625 158.164062 245.890625 C 158.578125 244.890625 159.039062 243.910156 159.550781 242.957031 C 160.058594 242 160.613281 241.074219 161.214844 240.171875 C 161.816406 239.273438 162.460938 238.402344 163.148438 237.566406 C 163.835938 236.730469 164.5625 235.929688 165.328125 235.164062 C 166.09375 234.398438 166.894531 233.671875 167.730469 232.984375 C 168.566406 232.296875 169.4375 231.652344 170.335938 231.050781 C 171.238281 230.449219 172.164062 229.894531 173.121094 229.386719 C 174.074219 228.875 175.054688 228.414062 176.054688 228 C 177.054688 227.585938 178.074219 227.222656 179.109375 226.90625 C 180.144531 226.59375 181.195312 226.332031 182.257812 226.121094 C 183.320312 225.910156 184.386719 225.753906 185.464844 225.648438 C 186.542969 225.542969 187.625 225.488281 188.707031 225.492188 C 189.789062 225.492188 190.871094 225.546875 191.945312 225.652344 C 193.023438 225.761719 194.09375 225.917969 195.15625 226.132812 C 196.21875 226.34375 197.265625 226.609375 198.300781 226.921875 C 199.335938 227.238281 200.355469 227.605469 201.355469 228.019531 C 202.355469 228.4375 203.332031 228.898438 204.285156 229.410156 C 205.238281 229.921875 206.167969 230.480469 207.066406 231.082031 C 207.964844 231.6875 208.832031 232.332031 209.667969 233.019531 C 210.503906 233.707031 211.304688 234.4375 212.070312 235.203125 C 212.832031 235.96875 213.558594 236.773438 214.242188 237.609375 C 214.929688 238.449219 215.570312 239.316406 216.171875 240.21875 C 216.769531 241.121094 217.324219 242.050781 217.832031 243.003906 C 218.34375 243.960938 218.800781 244.941406 219.214844 245.941406 C 219.628906 246.941406 219.988281 247.960938 220.300781 249 C 220.613281 250.035156 220.875 251.085938 221.082031 252.148438 C 221.292969 253.210938 221.445312 254.28125 221.550781 255.359375 C 221.652344 256.433594 221.703125 257.515625 221.703125 258.597656 C 221.699219 259.675781 221.644531 260.75 221.535156 261.824219 C 221.425781 262.898438 221.265625 263.960938 221.054688 265.019531 C 220.84375 266.074219 220.578125 267.121094 220.265625 268.152344 C 219.949219 269.183594 219.585938 270.195312 219.171875 271.191406 C 218.757812 272.1875 218.296875 273.160156 217.789062 274.109375 C 217.277344 275.058594 216.722656 275.984375 216.125 276.878906 C 215.523438 277.773438 214.882812 278.640625 214.199219 279.472656 C 213.515625 280.304688 212.792969 281.101562 212.03125 281.863281 C 211.265625 282.628906 210.46875 283.351562 209.636719 284.035156 C 208.804688 284.71875 207.9375 285.359375 207.042969 285.960938 C 206.148438 286.558594 205.222656 287.113281 204.273438 287.625 C 203.324219 288.132812 202.351562 288.59375 201.355469 289.007812 C 200.359375 289.421875 199.347656 289.785156 198.316406 290.101562 C 197.285156 290.414062 196.238281 290.679688 195.183594 290.890625 C 194.125 291.101562 193.0625 291.261719 191.988281 291.371094 C 190.914062 291.480469 189.839844 291.535156 188.761719 291.539062 Z M 188.761719 291.539062 " fill-opacity="1" fill-rule="nonzero"/><g clip-path="url(#f70e97f679)"><path fill="#ffffff" d="M 339.472656 211.167969 C 339.109375 211.175781 338.75 211.214844 338.394531 211.289062 C 338.039062 211.363281 337.695312 211.472656 337.359375 211.613281 C 337.023438 211.757812 336.707031 211.929688 336.40625 212.132812 C 336.101562 212.335938 335.824219 212.566406 335.566406 212.820312 C 335.308594 213.078125 335.078125 213.359375 334.875 213.660156 C 334.671875 213.960938 334.5 214.28125 334.359375 214.613281 C 334.21875 214.949219 334.109375 215.292969 334.035156 215.648438 C 333.960938 216.007812 333.917969 216.367188 333.914062 216.730469 L 333.914062 253.375 L 285.8125 253.375 L 285.8125 249.414062 C 285.804688 248.660156 285.726562 247.914062 285.574219 247.175781 C 285.421875 246.4375 285.199219 245.71875 284.910156 245.023438 C 284.617188 244.328125 284.257812 243.667969 283.835938 243.042969 C 283.414062 242.417969 282.9375 241.839844 282.402344 241.308594 C 281.867188 240.777344 281.285156 240.304688 280.65625 239.886719 C 280.027344 239.46875 279.363281 239.117188 278.667969 238.828125 C 277.96875 238.542969 277.25 238.324219 276.511719 238.179688 C 275.769531 238.03125 275.023438 237.957031 274.269531 237.957031 L 261.378906 237.957031 C 261.257812 237.9375 261.15625 237.878906 261.078125 237.785156 C 260.996094 237.6875 260.957031 237.578125 260.960938 237.453125 C 259.460938 232.40625 257.4375 227.574219 254.894531 222.964844 C 254.894531 222.964844 254.894531 222.375 254.894531 222.289062 L 263.992188 213.105469 C 264.523438 212.570312 264.996094 211.988281 265.414062 211.363281 C 265.832031 210.734375 266.183594 210.070312 266.472656 209.375 C 266.757812 208.675781 266.976562 207.957031 267.121094 207.21875 C 267.269531 206.476562 267.339844 205.730469 267.339844 204.976562 C 267.339844 204.222656 267.269531 203.476562 267.121094 202.738281 C 266.976562 201.996094 266.757812 201.277344 266.472656 200.582031 C 266.183594 199.882812 265.832031 199.222656 265.414062 198.59375 C 264.996094 197.964844 264.523438 197.382812 263.992188 196.847656 L 250.765625 183.707031 C 250.226562 183.171875 249.640625 182.699219 249.011719 182.28125 C 248.378906 181.863281 247.710938 181.507812 247.011719 181.222656 C 246.308594 180.933594 245.589844 180.714844 244.84375 180.570312 C 244.101562 180.421875 243.351562 180.347656 242.59375 180.347656 C 241.835938 180.347656 241.085938 180.421875 240.34375 180.570312 C 239.601562 180.714844 238.878906 180.933594 238.175781 181.222656 C 237.476562 181.507812 236.808594 181.863281 236.179688 182.28125 C 235.546875 182.699219 234.960938 183.171875 234.421875 183.707031 L 225.324219 192.804688 L 224.648438 192.804688 C 220.027344 190.289062 215.195312 188.269531 210.160156 186.738281 C 210.160156 186.738281 209.65625 186.738281 209.65625 186.738281 L 209.65625 173.597656 C 209.65625 172.839844 209.582031 172.089844 209.433594 171.34375 C 209.285156 170.601562 209.066406 169.878906 208.777344 169.179688 C 208.488281 168.480469 208.132812 167.816406 207.710938 167.183594 C 207.289062 166.554688 206.808594 165.972656 206.273438 165.4375 C 205.738281 164.898438 205.15625 164.421875 204.527344 164 C 203.894531 163.578125 203.230469 163.222656 202.53125 162.933594 C 201.832031 162.644531 201.109375 162.425781 200.363281 162.277344 C 199.621094 162.128906 198.871094 162.054688 198.113281 162.054688 L 179.328125 162.054688 C 178.570312 162.054688 177.824219 162.128906 177.082031 162.277344 C 176.339844 162.425781 175.621094 162.644531 174.921875 162.933594 C 174.226562 163.226562 173.5625 163.582031 172.9375 164.003906 C 172.308594 164.425781 171.726562 164.902344 171.195312 165.441406 C 170.664062 165.976562 170.1875 166.558594 169.773438 167.191406 C 169.355469 167.820312 169.003906 168.488281 168.71875 169.1875 C 168.433594 169.886719 168.21875 170.605469 168.074219 171.347656 C 167.933594 172.089844 167.863281 172.839844 167.871094 173.597656 L 167.871094 186.484375 C 167.871094 186.484375 167.871094 186.484375 167.363281 186.484375 C 162.328125 188.015625 157.5 190.039062 152.875 192.550781 L 152.199219 192.550781 L 143.101562 183.707031 C 142.5625 183.171875 141.976562 182.699219 141.347656 182.28125 C 140.714844 181.863281 140.046875 181.507812 139.347656 181.222656 C 138.648438 180.933594 137.925781 180.714844 137.183594 180.570312 C 136.4375 180.421875 135.6875 180.347656 134.929688 180.347656 C 134.171875 180.347656 133.421875 180.421875 132.679688 180.570312 C 131.9375 180.714844 131.214844 180.933594 130.515625 181.222656 C 129.8125 181.507812 129.148438 181.863281 128.515625 182.28125 C 127.882812 182.699219 127.296875 183.171875 126.757812 183.707031 L 113.53125 196.933594 C 112.992188 197.460938 112.507812 198.039062 112.082031 198.664062 C 111.65625 199.292969 111.296875 199.953125 111.003906 200.652344 C 110.710938 201.351562 110.488281 202.070312 110.339844 202.8125 C 110.1875 203.554688 110.113281 204.304688 110.113281 205.0625 C 110.113281 205.820312 110.1875 206.570312 110.339844 207.3125 C 110.488281 208.054688 110.710938 208.773438 111.003906 209.472656 C 111.296875 210.167969 111.65625 210.832031 112.082031 211.457031 C 112.507812 212.082031 112.992188 212.660156 113.53125 213.191406 L 122.632812 222.375 C 122.632812 222.375 122.632812 222.792969 122.632812 223.046875 C 120.144531 227.664062 118.179688 232.496094 116.734375 237.539062 C 116.734375 237.539062 116.734375 238.042969 116.3125 238.042969 L 103.253906 238.042969 C 102.492188 238.019531 101.734375 238.074219 100.984375 238.203125 C 100.230469 238.332031 99.5 238.535156 98.785156 238.808594 C 98.074219 239.082031 97.398438 239.425781 96.753906 239.835938 C 96.109375 240.246094 95.515625 240.71875 94.964844 241.246094 C 94.417969 241.777344 93.925781 242.355469 93.492188 242.984375 C 93.058594 243.613281 92.691406 244.277344 92.390625 244.976562 C 92.089844 245.679688 91.859375 246.402344 91.703125 247.152344 C 91.546875 247.898438 91.464844 248.652344 91.460938 249.414062 L 91.460938 253.289062 L 43.609375 253.289062 L 43.609375 216.730469 C 43.609375 216.363281 43.574219 216.003906 43.503906 215.644531 C 43.433594 215.285156 43.328125 214.9375 43.1875 214.601562 C 43.046875 214.265625 42.875 213.945312 42.675781 213.640625 C 42.472656 213.335938 42.242188 213.054688 41.984375 212.796875 C 41.722656 212.539062 41.445312 212.308594 41.140625 212.105469 C 40.835938 211.902344 40.515625 211.730469 40.179688 211.59375 C 39.839844 211.453125 39.492188 211.347656 39.136719 211.277344 C 38.777344 211.203125 38.417969 211.167969 38.050781 211.167969 C 37.6875 211.167969 37.324219 211.203125 36.964844 211.277344 C 36.609375 211.347656 36.261719 211.453125 35.921875 211.59375 C 35.585938 211.730469 35.265625 211.902344 34.960938 212.105469 C 34.660156 212.308594 34.378906 212.539062 34.121094 212.796875 C 33.859375 213.054688 33.628906 213.335938 33.429688 213.640625 C 33.226562 213.945312 33.054688 214.265625 32.914062 214.601562 C 32.773438 214.9375 32.667969 215.285156 32.597656 215.644531 C 32.527344 216.003906 32.492188 216.363281 32.492188 216.730469 L 32.492188 258.851562 C 32.492188 259.214844 32.527344 259.578125 32.597656 259.9375 C 32.667969 260.292969 32.773438 260.640625 32.914062 260.980469 C 33.054688 261.316406 33.226562 261.636719 33.429688 261.941406 C 33.628906 262.242188 33.859375 262.523438 34.121094 262.78125 C 34.378906 263.039062 34.660156 263.269531 34.960938 263.472656 C 35.265625 263.675781 35.585938 263.847656 35.921875 263.988281 C 36.261719 264.128906 36.609375 264.234375 36.964844 264.304688 C 37.324219 264.375 37.6875 264.410156 38.050781 264.410156 L 91.460938 264.410156 L 91.460938 268.203125 C 91.457031 268.972656 91.527344 269.738281 91.675781 270.496094 C 91.820312 271.253906 92.042969 271.992188 92.339844 272.703125 C 92.632812 273.417969 92.996094 274.09375 93.429688 274.734375 C 93.859375 275.375 94.351562 275.964844 94.898438 276.507812 C 95.449219 277.050781 96.046875 277.53125 96.695312 277.953125 C 97.339844 278.375 98.023438 278.730469 98.742188 279.015625 C 99.460938 279.300781 100.199219 279.511719 100.957031 279.648438 C 101.71875 279.785156 102.484375 279.84375 103.253906 279.828125 L 116.144531 279.828125 C 116.144531 279.828125 116.144531 279.828125 116.566406 280.332031 C 118.097656 285.367188 120.117188 290.199219 122.632812 294.824219 C 122.632812 294.824219 122.632812 295.328125 122.632812 295.496094 L 113.53125 304.59375 C 112.992188 305.125 112.507812 305.703125 112.082031 306.328125 C 111.65625 306.953125 111.296875 307.617188 111.003906 308.316406 C 110.710938 309.011719 110.488281 309.734375 110.339844 310.476562 C 110.1875 311.21875 110.113281 311.96875 110.113281 312.726562 C 110.113281 313.480469 110.1875 314.230469 110.339844 314.972656 C 110.488281 315.714844 110.710938 316.4375 111.003906 317.132812 C 111.296875 317.832031 111.65625 318.496094 112.082031 319.121094 C 112.507812 319.746094 112.992188 320.324219 113.53125 320.855469 L 126.757812 334.164062 C 127.878906 335.265625 129.171875 336.101562 130.632812 336.671875 C 132.097656 337.246094 133.613281 337.503906 135.183594 337.449219 C 136.75 337.492188 138.265625 337.230469 139.726562 336.660156 C 141.191406 336.089844 142.484375 335.257812 143.609375 334.164062 L 152.199219 325.234375 L 152.875 325.234375 C 157.480469 327.773438 162.308594 329.765625 167.363281 331.214844 C 167.363281 331.214844 167.871094 331.214844 167.871094 331.722656 L 167.871094 344.609375 C 167.871094 345.363281 167.945312 346.113281 168.089844 346.851562 C 168.234375 347.59375 168.453125 348.3125 168.742188 349.007812 C 169.027344 349.707031 169.378906 350.367188 169.796875 350.996094 C 170.214844 351.625 170.6875 352.207031 171.222656 352.742188 C 171.753906 353.277344 172.332031 353.757812 172.957031 354.179688 C 173.582031 354.601562 174.242188 354.957031 174.9375 355.25 C 175.632812 355.542969 176.347656 355.765625 177.085938 355.917969 C 177.828125 356.066406 178.574219 356.148438 179.328125 356.152344 L 198.113281 356.152344 C 198.867188 356.136719 199.613281 356.046875 200.351562 355.882812 C 201.085938 355.722656 201.800781 355.488281 202.492188 355.1875 C 203.183594 354.882812 203.839844 354.515625 204.457031 354.085938 C 205.078125 353.652344 205.648438 353.167969 206.171875 352.625 C 206.695312 352.082031 207.160156 351.492188 207.570312 350.855469 C 207.976562 350.222656 208.320312 349.554688 208.597656 348.851562 C 208.875 348.152344 209.082031 347.429688 209.214844 346.6875 C 209.351562 345.945312 209.414062 345.195312 209.402344 344.441406 L 209.402344 331.554688 C 209.570312 331.457031 209.738281 331.457031 209.90625 331.554688 C 215.039062 329.957031 219.953125 327.851562 224.648438 325.234375 L 225.324219 325.234375 L 234.675781 334.164062 C 235.792969 335.265625 237.085938 336.101562 238.550781 336.671875 C 240.011719 337.246094 241.53125 337.503906 243.101562 337.449219 C 244.667969 337.492188 246.183594 337.230469 247.644531 336.660156 C 249.105469 336.089844 250.398438 335.257812 251.523438 334.164062 L 264.75 320.855469 C 265.28125 320.320312 265.753906 319.738281 266.171875 319.109375 C 266.589844 318.480469 266.941406 317.816406 267.230469 317.121094 C 267.515625 316.421875 267.734375 315.707031 267.878906 314.964844 C 268.027344 314.226562 268.097656 313.480469 268.097656 312.726562 C 268.097656 311.96875 268.027344 311.222656 267.878906 310.484375 C 267.734375 309.746094 267.515625 309.027344 267.230469 308.328125 C 266.941406 307.632812 266.589844 306.96875 266.171875 306.339844 C 265.753906 305.710938 265.28125 305.128906 264.75 304.59375 L 254.894531 295.496094 C 254.894531 295.496094 254.894531 294.992188 254.894531 294.824219 C 257.40625 290.199219 259.429688 285.367188 260.960938 280.332031 C 260.957031 280.207031 260.996094 280.097656 261.078125 280.003906 C 261.15625 279.90625 261.257812 279.847656 261.378906 279.828125 L 274.269531 279.828125 C 275.027344 279.828125 275.777344 279.753906 276.519531 279.605469 C 277.265625 279.457031 277.984375 279.238281 278.6875 278.949219 C 279.386719 278.660156 280.050781 278.304688 280.683594 277.882812 C 281.3125 277.460938 281.894531 276.984375 282.429688 276.445312 C 282.964844 275.910156 283.445312 275.328125 283.867188 274.699219 C 284.285156 274.066406 284.640625 273.402344 284.933594 272.703125 C 285.222656 272.003906 285.441406 271.28125 285.589844 270.539062 C 285.738281 269.792969 285.8125 269.042969 285.8125 268.285156 L 285.8125 264.496094 L 339.472656 264.496094 C 339.835938 264.488281 340.199219 264.449219 340.554688 264.375 C 340.910156 264.300781 341.253906 264.191406 341.589844 264.050781 C 341.925781 263.910156 342.242188 263.734375 342.542969 263.53125 C 342.84375 263.328125 343.125 263.101562 343.382812 262.84375 C 343.640625 262.585938 343.867188 262.304688 344.070312 262.003906 C 344.273438 261.703125 344.449219 261.386719 344.589844 261.050781 C 344.730469 260.714844 344.839844 260.371094 344.914062 260.015625 C 344.988281 259.660156 345.027344 259.296875 345.035156 258.933594 L 345.035156 216.8125 C 345.035156 216.445312 345 216.082031 344.929688 215.722656 C 344.855469 215.363281 344.753906 215.011719 344.613281 214.671875 C 344.472656 214.332031 344.304688 214.011719 344.101562 213.703125 C 343.898438 213.398438 343.667969 213.113281 343.410156 212.851562 C 343.152344 212.589844 342.871094 212.355469 342.570312 212.148438 C 342.265625 211.941406 341.945312 211.765625 341.609375 211.621094 C 341.269531 211.476562 340.921875 211.367188 340.5625 211.292969 C 340.203125 211.214844 339.839844 211.175781 339.472656 211.167969 Z M 198.535156 331.554688 L 198.535156 344.441406 L 179.328125 344.441406 C 179.1875 344.523438 179.046875 344.523438 178.90625 344.441406 L 178.90625 331.554688 C 178.902344 330.929688 178.851562 330.308594 178.746094 329.691406 C 178.644531 329.074219 178.492188 328.472656 178.292969 327.878906 C 178.089844 327.289062 177.84375 326.714844 177.550781 326.164062 C 177.257812 325.613281 176.925781 325.085938 176.546875 324.589844 C 176.171875 324.089844 175.753906 323.625 175.304688 323.195312 C 174.851562 322.765625 174.367188 322.371094 173.851562 322.019531 C 173.335938 321.664062 172.796875 321.355469 172.230469 321.089844 C 171.664062 320.824219 171.082031 320.605469 170.480469 320.433594 C 166.191406 319.175781 162.089844 317.460938 158.183594 315.292969 C 156.386719 314.363281 154.476562 313.886719 152.453125 313.863281 C 150.871094 313.792969 149.347656 314.054688 147.878906 314.640625 C 146.410156 315.230469 145.125 316.09375 144.027344 317.230469 L 134.847656 326.328125 L 134.257812 326.328125 L 121.03125 313.019531 L 121.03125 312.429688 L 130.128906 303.332031 C 130.570312 302.886719 130.972656 302.410156 131.335938 301.902344 C 131.695312 301.394531 132.015625 300.859375 132.292969 300.296875 C 132.570312 299.738281 132.796875 299.160156 132.980469 298.5625 C 133.160156 297.964844 133.292969 297.355469 133.378906 296.734375 C 133.460938 296.117188 133.492188 295.492188 133.476562 294.867188 C 133.457031 294.242188 133.390625 293.625 133.269531 293.011719 C 133.152344 292.398438 132.984375 291.796875 132.769531 291.210938 C 132.550781 290.625 132.289062 290.058594 131.984375 289.515625 C 129.847656 285.5625 128.136719 281.433594 126.84375 277.132812 C 126.679688 276.53125 126.464844 275.949219 126.207031 275.382812 C 125.945312 274.816406 125.640625 274.273438 125.292969 273.757812 C 124.945312 273.242188 124.558594 272.757812 124.128906 272.304688 C 123.703125 271.851562 123.242188 271.433594 122.746094 271.058594 C 122.253906 270.679688 121.730469 270.34375 121.179688 270.050781 C 120.628906 269.757812 120.058594 269.511719 119.46875 269.3125 C 118.878906 269.113281 118.277344 268.960938 117.664062 268.859375 C 117.050781 268.757812 116.429688 268.707031 115.808594 268.707031 L 103.253906 268.707031 L 102.835938 268.285156 L 102.835938 249.414062 C 102.976562 249.335938 103.113281 249.335938 103.253906 249.414062 L 116.144531 249.414062 C 116.765625 249.414062 117.386719 249.363281 118 249.261719 C 118.613281 249.160156 119.21875 249.011719 119.808594 248.808594 C 120.398438 248.609375 120.96875 248.363281 121.515625 248.070312 C 122.066406 247.777344 122.589844 247.445312 123.085938 247.066406 C 123.578125 246.6875 124.039062 246.273438 124.46875 245.820312 C 124.894531 245.367188 125.28125 244.882812 125.632812 244.363281 C 125.980469 243.847656 126.285156 243.308594 126.542969 242.742188 C 126.804688 242.175781 127.015625 241.59375 127.179688 240.992188 C 128.472656 236.714844 130.1875 232.617188 132.320312 228.691406 C 132.628906 228.148438 132.890625 227.582031 133.105469 226.996094 C 133.320312 226.410156 133.488281 225.808594 133.605469 225.195312 C 133.726562 224.582031 133.792969 223.964844 133.8125 223.339844 C 133.828125 222.714844 133.796875 222.09375 133.714844 221.472656 C 133.632812 220.851562 133.5 220.246094 133.316406 219.644531 C 133.132812 219.046875 132.90625 218.46875 132.628906 217.910156 C 132.351562 217.347656 132.035156 216.8125 131.671875 216.304688 C 131.308594 215.796875 130.90625 215.320312 130.464844 214.875 L 121.367188 205.691406 L 121.367188 205.105469 L 134.59375 191.878906 L 143.691406 200.976562 C 144.800781 202.097656 146.089844 202.949219 147.554688 203.535156 C 149.019531 204.121094 150.539062 204.390625 152.117188 204.34375 C 154.15625 204.332031 156.066406 203.828125 157.84375 202.828125 C 161.777344 200.710938 165.875 199 170.144531 197.691406 C 170.742188 197.523438 171.324219 197.308594 171.890625 197.046875 C 172.453125 196.78125 172.992188 196.476562 173.507812 196.128906 C 174.023438 195.777344 174.507812 195.390625 174.957031 194.964844 C 175.410156 194.535156 175.824219 194.074219 176.203125 193.582031 C 176.578125 193.085938 176.914062 192.566406 177.207031 192.015625 C 177.5 191.46875 177.746094 190.898438 177.949219 190.308594 C 178.148438 189.722656 178.304688 189.121094 178.40625 188.507812 C 178.511719 187.894531 178.566406 187.277344 178.570312 186.652344 L 178.570312 173.597656 C 178.570312 173.480469 178.609375 173.382812 178.691406 173.296875 C 178.773438 173.214844 178.875 173.175781 178.992188 173.175781 L 197.777344 173.175781 L 198.199219 173.597656 L 198.199219 186.484375 C 198.207031 187.105469 198.261719 187.722656 198.367188 188.335938 C 198.476562 188.949219 198.628906 189.546875 198.832031 190.136719 C 199.035156 190.722656 199.28125 191.289062 199.574219 191.835938 C 199.871094 192.386719 200.203125 192.90625 200.582031 193.398438 C 200.957031 193.894531 201.371094 194.355469 201.824219 194.78125 C 202.273438 195.207031 202.757812 195.597656 203.269531 195.949219 C 203.78125 196.296875 204.320312 196.605469 204.882812 196.871094 C 205.445312 197.132812 206.023438 197.351562 206.621094 197.523438 C 210.925781 198.816406 215.050781 200.527344 219.007812 202.660156 C 220.785156 203.65625 222.695312 204.164062 224.734375 204.175781 C 226.3125 204.21875 227.832031 203.945312 229.292969 203.363281 C 230.757812 202.777344 232.046875 201.925781 233.160156 200.808594 L 242.257812 191.707031 L 255.484375 204.933594 L 255.484375 205.523438 L 246.386719 214.707031 C 245.949219 215.152344 245.546875 215.628906 245.1875 216.136719 C 244.824219 216.644531 244.503906 217.179688 244.230469 217.738281 C 243.953125 218.300781 243.722656 218.878906 243.539062 219.472656 C 243.355469 220.070312 243.222656 220.675781 243.132812 221.296875 C 243.046875 221.914062 243.011719 222.535156 243.023438 223.15625 C 243.035156 223.78125 243.097656 224.402344 243.210938 225.015625 C 243.320312 225.628906 243.480469 226.230469 243.6875 226.820312 C 243.894531 227.40625 244.148438 227.976562 244.449219 228.523438 C 246.863281 232.457031 248.800781 236.613281 250.261719 240.992188 C 250.433594 241.59375 250.652344 242.175781 250.917969 242.742188 C 251.183594 243.304688 251.492188 243.847656 251.847656 244.363281 C 252.199219 244.875 252.589844 245.359375 253.023438 245.8125 C 253.453125 246.265625 253.917969 246.679688 254.417969 247.058594 C 254.914062 247.433594 255.4375 247.769531 255.992188 248.0625 C 256.542969 248.355469 257.117188 248.601562 257.707031 248.800781 C 258.296875 249 258.902344 249.152344 259.519531 249.257812 C 260.136719 249.359375 260.753906 249.414062 261.378906 249.414062 L 274.269531 249.414062 L 274.691406 249.835938 L 274.691406 268.625 L 274.269531 269.042969 L 261.378906 269.042969 C 260.753906 269.046875 260.136719 269.101562 259.519531 269.203125 C 258.902344 269.304688 258.296875 269.457031 257.707031 269.660156 C 257.117188 269.859375 256.542969 270.105469 255.992188 270.398438 C 255.4375 270.691406 254.914062 271.027344 254.417969 271.402344 C 253.917969 271.78125 253.453125 272.195312 253.023438 272.648438 C 252.589844 273.097656 252.199219 273.582031 251.847656 274.097656 C 251.492188 274.613281 251.183594 275.15625 250.917969 275.71875 C 250.652344 276.285156 250.433594 276.867188 250.261719 277.46875 C 249.003906 281.785156 247.289062 285.914062 245.121094 289.851562 C 244.824219 290.402344 244.570312 290.96875 244.363281 291.558594 C 244.15625 292.144531 243.996094 292.746094 243.882812 293.359375 C 243.773438 293.976562 243.710938 294.59375 243.695312 295.21875 C 243.683594 295.839844 243.722656 296.460938 243.808594 297.082031 C 243.894531 297.699219 244.03125 298.304688 244.214844 298.902344 C 244.398438 299.5 244.628906 300.078125 244.902344 300.636719 C 245.179688 301.195312 245.5 301.730469 245.859375 302.238281 C 246.222656 302.746094 246.621094 303.222656 247.058594 303.667969 L 256.15625 312.765625 L 256.15625 313.355469 L 243.101562 326.328125 L 242.257812 326.328125 L 233.160156 317.230469 C 232.058594 316.097656 230.773438 315.234375 229.304688 314.648438 C 227.839844 314.0625 226.3125 313.800781 224.734375 313.863281 C 222.710938 313.886719 220.800781 314.363281 219.007812 315.292969 C 215.066406 317.464844 210.941406 319.175781 206.621094 320.433594 C 206.039062 320.621094 205.472656 320.855469 204.925781 321.136719 C 204.378906 321.414062 203.859375 321.734375 203.363281 322.09375 C 202.867188 322.453125 202.402344 322.851562 201.964844 323.285156 C 201.53125 323.71875 201.136719 324.183594 200.773438 324.679688 C 200.414062 325.175781 200.09375 325.699219 199.816406 326.246094 C 199.535156 326.792969 199.300781 327.355469 199.109375 327.941406 C 198.921875 328.523438 198.777344 329.117188 198.679688 329.722656 C 198.585938 330.328125 198.535156 330.941406 198.535156 331.554688 Z M 198.535156 331.554688 " fill-opacity="1" fill-rule="nonzero"/></g></svg>