<svg xmlns="http://www.w3.org/2000/svg" xmlns:xlink="http://www.w3.org/1999/xlink" width="500" zoomAndPan="magnify" viewBox="0 0 375 374.999991" height="500" preserveAspectRatio="xMidYMid meet" version="1.0"><defs><clipPath id="db04af5ddd"><path d="M 18.75 18.75 L 356.25 18.75 L 356.25 356.25 L 18.75 356.25 Z M 18.75 18.75 " clip-rule="nonzero"/></clipPath></defs><g clip-path="url(#db04af5ddd)"><path fill="#ffffff" d="M 126.421875 128.15625 C 142.667969 125.605469 156.855469 118.238281 167.867188 110.378906 L 207.132812 110.378906 C 218.144531 118.238281 232.332031 125.605469 248.578125 128.15625 C 252.023438 128.699219 254.519531 131.613281 254.519531 135.101562 L 254.519531 187.414062 C 254.519531 225.195312 216.160156 256.941406 187.5 264.621094 C 158.839844 256.941406 120.480469 225.195312 120.480469 187.414062 L 120.480469 135.101562 C 120.480469 131.613281 122.976562 128.699219 126.421875 128.15625 Z M 82.535156 220.898438 C 80.542969 215.59375 75.421875 211.816406 69.421875 211.816406 C 61.6875 211.816406 55.414062 218.085938 55.414062 225.820312 C 55.414062 233.558594 61.6875 239.828125 69.421875 239.828125 C 75.421875 239.828125 80.542969 236.050781 82.535156 230.742188 L 125.140625 230.742188 C 122.957031 227.578125 120.964844 224.292969 119.203125 220.898438 Z M 187.5 192.917969 C 182.988281 192.917969 179.332031 196.574219 179.332031 201.082031 C 179.332031 203.746094 180.605469 206.109375 182.578125 207.601562 L 182.578125 214.667969 C 182.578125 217.386719 184.78125 219.589844 187.5 219.589844 C 190.21875 219.589844 192.421875 217.386719 192.421875 214.667969 L 192.421875 207.601562 C 194.394531 206.109375 195.667969 203.746094 195.667969 201.082031 C 195.667969 196.574219 192.011719 192.917969 187.5 192.917969 Z M 154.101562 259.324219 C 150.667969 256.945312 147.367188 254.402344 144.257812 251.742188 L 144.257812 292.464844 C 138.949219 294.457031 135.171875 299.578125 135.171875 305.578125 C 135.171875 313.316406 141.441406 319.585938 149.179688 319.585938 C 156.914062 319.585938 163.183594 313.316406 163.183594 305.578125 C 163.183594 299.578125 159.40625 294.457031 154.101562 292.464844 Z M 225.820312 319.585938 C 233.558594 319.585938 239.828125 313.3125 239.828125 305.578125 C 239.828125 299.578125 236.050781 294.457031 230.742188 292.464844 L 230.742188 251.742188 C 227.628906 254.398438 224.332031 256.945312 220.898438 259.324219 L 220.898438 292.464844 C 215.59375 294.457031 211.816406 299.574219 211.816406 305.578125 C 211.816406 313.3125 218.085938 319.585938 225.820312 319.585938 Z M 249.859375 230.742188 L 292.464844 230.742188 C 294.457031 236.050781 299.578125 239.828125 305.578125 239.828125 C 313.316406 239.828125 319.585938 233.554688 319.585938 225.820312 C 319.585938 218.085938 313.316406 211.816406 305.578125 211.816406 C 299.578125 211.816406 294.457031 215.59375 292.464844 220.898438 L 255.796875 220.898438 C 254.035156 224.292969 252.042969 227.578125 249.859375 230.742188 Z M 55.414062 149.179688 C 55.414062 141.441406 61.6875 135.171875 69.421875 135.171875 C 75.421875 135.171875 80.542969 138.949219 82.535156 144.257812 L 110.636719 144.257812 L 110.636719 154.101562 L 82.535156 154.101562 C 80.542969 159.40625 75.421875 163.183594 69.421875 163.183594 C 61.6875 163.183594 55.414062 156.914062 55.414062 149.179688 Z M 144.257812 112.644531 C 147.632812 111.15625 150.917969 109.460938 154.101562 107.59375 L 154.101562 82.535156 C 159.40625 80.542969 163.183594 75.425781 163.183594 69.421875 C 163.183594 61.6875 156.914062 55.414062 149.179688 55.414062 C 141.441406 55.414062 135.171875 61.6875 135.171875 69.421875 C 135.171875 75.425781 138.949219 80.542969 144.257812 82.535156 Z M 18.75 187.5 C 18.75 179.765625 25.019531 173.496094 32.753906 173.496094 C 38.757812 173.496094 43.878906 177.269531 45.871094 182.578125 L 110.640625 182.578125 L 110.640625 187.414062 C 110.640625 189.09375 110.703125 190.765625 110.828125 192.421875 L 45.871094 192.421875 C 43.878906 197.726562 38.757812 201.503906 32.753906 201.503906 C 25.019531 201.503906 18.75 195.234375 18.75 187.5 Z M 225.820312 55.414062 C 218.085938 55.414062 211.816406 61.6875 211.816406 69.421875 C 211.816406 75.421875 215.59375 80.542969 220.898438 82.535156 L 220.898438 107.59375 C 224.082031 109.460938 227.367188 111.15625 230.742188 112.644531 L 230.742188 82.535156 C 236.050781 80.542969 239.828125 75.421875 239.828125 69.421875 C 239.828125 61.6875 233.554688 55.414062 225.820312 55.414062 Z M 264.363281 144.257812 L 292.464844 144.257812 C 294.457031 138.949219 299.578125 135.171875 305.578125 135.171875 C 313.316406 135.171875 319.585938 141.441406 319.585938 149.179688 C 319.585938 156.914062 313.316406 163.183594 305.578125 163.183594 C 299.578125 163.183594 294.457031 159.40625 292.464844 154.101562 L 264.363281 154.101562 Z M 187.5 18.75 C 195.234375 18.75 201.503906 25.019531 201.503906 32.753906 C 201.503906 38.757812 197.726562 43.878906 192.421875 45.871094 L 192.421875 100.535156 L 182.578125 100.535156 L 182.578125 45.871094 C 177.269531 43.878906 173.492188 38.757812 173.492188 32.753906 C 173.496094 25.019531 179.765625 18.75 187.5 18.75 Z M 356.25 187.5 C 356.25 179.765625 349.980469 173.496094 342.246094 173.496094 C 336.242188 173.496094 331.121094 177.269531 329.128906 182.578125 L 264.359375 182.578125 L 264.359375 187.414062 C 264.359375 189.09375 264.296875 190.765625 264.171875 192.421875 L 329.128906 192.421875 C 331.121094 197.726562 336.242188 201.503906 342.246094 201.503906 C 349.980469 201.503906 356.25 195.234375 356.25 187.5 Z M 187.5 356.25 C 195.234375 356.25 201.503906 349.980469 201.503906 342.246094 C 201.503906 336.242188 197.726562 331.121094 192.421875 329.128906 L 192.421875 273.453125 C 190.789062 273.945312 189.144531 274.371094 187.5 274.8125 C 185.855469 274.371094 184.207031 273.945312 182.578125 273.453125 L 182.578125 329.128906 C 177.269531 331.121094 173.492188 336.242188 173.492188 342.246094 C 173.496094 349.980469 179.765625 356.25 187.5 356.25 Z M 161.609375 173.617188 L 156.421875 173.617188 C 153.703125 173.617188 151.5 175.820312 151.5 178.539062 L 151.5 206.382812 C 151.5 226.191406 167.6875 242.382812 187.5 242.382812 C 207.308594 242.382812 223.5 226.191406 223.5 206.382812 L 223.5 178.539062 C 223.5 175.820312 221.296875 173.617188 218.578125 173.617188 L 213.390625 173.617188 L 213.390625 158.507812 C 213.390625 144.257812 201.75 132.617188 187.5 132.617188 C 173.25 132.617188 161.609375 144.257812 161.609375 158.507812 Z M 203.546875 173.617188 L 203.546875 158.507812 C 203.546875 149.691406 196.316406 142.460938 187.5 142.460938 C 178.683594 142.460938 171.453125 149.691406 171.453125 158.507812 L 171.453125 173.617188 Z M 203.546875 173.617188 " fill-opacity="1" fill-rule="evenodd"/></g></svg>