<svg xmlns="http://www.w3.org/2000/svg" xmlns:xlink="http://www.w3.org/1999/xlink" width="500" zoomAndPan="magnify" viewBox="0 0 375 374.999991" height="500" preserveAspectRatio="xMidYMid meet" version="1.0"><defs><clipPath id="834a6282c2"><path d="M 72 18.75 L 303 18.75 L 303 224 L 72 224 Z M 72 18.75 " clip-rule="nonzero"/></clipPath><clipPath id="3875416e94"><path d="M 27.953125 70 L 346.703125 70 L 346.703125 288 L 27.953125 288 Z M 27.953125 70 " clip-rule="nonzero"/></clipPath><clipPath id="edf73be8e6"><path d="M 131 323 L 244 323 L 244 356.25 L 131 356.25 Z M 131 323 " clip-rule="nonzero"/></clipPath><clipPath id="0dbe6be928"><path d="M 27.953125 239 L 346.703125 239 L 346.703125 249 L 27.953125 249 Z M 27.953125 239 " clip-rule="nonzero"/></clipPath></defs><g clip-path="url(#834a6282c2)"><path fill="#ffffff" d="M 280.207031 223.09375 L 94.808594 223.09375 C 82.753906 223.09375 72.953125 213.292969 72.953125 201.238281 L 72.953125 40.582031 C 72.953125 28.527344 82.761719 18.726562 94.808594 18.726562 L 280.207031 18.726562 C 292.257812 18.726562 302.0625 28.535156 302.0625 40.582031 L 302.0625 201.238281 C 302.0625 213.292969 292.257812 223.09375 280.207031 223.09375 Z M 94.808594 27.496094 C 87.585938 27.496094 81.71875 33.367188 81.71875 40.582031 L 81.71875 201.238281 C 81.71875 208.460938 87.59375 214.328125 94.808594 214.328125 L 280.207031 214.328125 C 287.425781 214.328125 293.292969 208.453125 293.292969 201.238281 L 293.292969 40.582031 C 293.292969 33.363281 287.417969 27.496094 280.207031 27.496094 Z M 94.808594 27.496094 " fill-opacity="1" fill-rule="nonzero"/></g><path fill="#ffffff" d="M 297.679688 72.242188 L 77.335938 72.242188 C 74.917969 72.242188 72.953125 70.277344 72.953125 67.859375 C 72.953125 65.4375 74.917969 63.472656 77.335938 63.472656 L 297.683594 63.472656 C 300.105469 63.472656 302.070312 65.4375 302.070312 67.859375 C 302.070312 70.277344 300.105469 72.242188 297.679688 72.242188 Z M 297.679688 72.242188 " fill-opacity="1" fill-rule="nonzero"/><path fill="#ffffff" d="M 115.585938 57.417969 L 97.585938 57.417969 C 95.167969 57.417969 93.203125 55.453125 93.203125 53.035156 L 93.203125 37.925781 C 93.203125 35.507812 95.167969 33.542969 97.585938 33.542969 L 115.59375 33.542969 C 118.011719 33.542969 119.976562 35.507812 119.976562 37.925781 L 119.976562 53.035156 C 119.96875 55.460938 118.011719 57.417969 115.585938 57.417969 Z M 101.96875 48.648438 L 111.207031 48.648438 L 111.207031 42.3125 L 101.96875 42.3125 Z M 101.96875 48.648438 " fill-opacity="1" fill-rule="nonzero"/><path fill="#ffffff" d="M 148.527344 57.417969 L 130.523438 57.417969 C 128.101562 57.417969 126.140625 55.453125 126.140625 53.035156 L 126.140625 37.925781 C 126.140625 35.507812 128.101562 33.542969 130.523438 33.542969 L 148.527344 33.542969 C 150.949219 33.542969 152.910156 35.507812 152.910156 37.925781 L 152.910156 53.035156 C 152.910156 55.460938 150.957031 57.417969 148.527344 57.417969 Z M 134.914062 48.648438 L 144.152344 48.648438 L 144.152344 42.3125 L 134.914062 42.3125 Z M 134.914062 48.648438 " fill-opacity="1" fill-rule="nonzero"/><path fill="#ffffff" d="M 181.472656 57.417969 L 163.46875 57.417969 C 161.046875 57.417969 159.082031 55.453125 159.082031 53.035156 L 159.082031 37.925781 C 159.082031 35.507812 161.046875 33.542969 163.46875 33.542969 L 181.472656 33.542969 C 183.890625 33.542969 185.855469 35.507812 185.855469 37.925781 L 185.855469 53.035156 C 185.855469 55.460938 183.898438 57.417969 181.472656 57.417969 Z M 167.859375 48.648438 L 177.097656 48.648438 L 177.097656 42.3125 L 167.859375 42.3125 Z M 167.859375 48.648438 " fill-opacity="1" fill-rule="nonzero"/><path fill="#ffffff" d="M 277.425781 57.417969 L 217.300781 57.417969 C 214.878906 57.417969 212.917969 55.453125 212.917969 53.035156 L 212.917969 37.925781 C 212.917969 35.507812 214.878906 33.542969 217.300781 33.542969 L 277.425781 33.542969 C 279.847656 33.542969 281.8125 35.507812 281.8125 37.925781 L 281.8125 53.035156 C 281.8125 55.460938 279.847656 57.417969 277.425781 57.417969 Z M 221.683594 48.648438 L 273.042969 48.648438 L 273.042969 42.3125 L 221.683594 42.3125 Z M 221.683594 48.648438 " fill-opacity="1" fill-rule="nonzero"/><g clip-path="url(#3875416e94)"><path fill="#ffffff" d="M 317.21875 287.683594 L 57.792969 287.683594 C 41.339844 287.683594 27.953125 274.296875 27.953125 257.835938 L 27.953125 100.027344 C 27.953125 83.574219 41.339844 70.1875 57.792969 70.1875 L 77.328125 70.1875 C 79.75 70.1875 81.710938 72.148438 81.710938 74.570312 L 81.710938 201.246094 C 81.710938 208.46875 87.585938 214.335938 94.800781 214.335938 L 280.199219 214.335938 C 287.417969 214.335938 293.285156 208.460938 293.285156 201.246094 L 293.285156 74.5625 C 293.285156 72.140625 295.25 70.179688 297.671875 70.179688 L 317.207031 70.179688 C 333.660156 70.179688 347.042969 83.566406 347.042969 100.019531 L 347.042969 257.835938 C 347.058594 274.296875 333.671875 287.683594 317.21875 287.683594 Z M 57.792969 78.945312 C 46.171875 78.945312 36.722656 88.398438 36.722656 100.019531 L 36.722656 257.835938 C 36.722656 269.457031 46.171875 278.914062 57.792969 278.914062 L 317.214844 278.914062 C 328.832031 278.914062 338.292969 269.464844 338.292969 257.835938 L 338.292969 100.027344 C 338.292969 88.40625 328.839844 78.953125 317.214844 78.953125 L 302.0625 78.953125 L 302.0625 201.246094 C 302.0625 213.300781 292.257812 223.101562 280.207031 223.101562 L 94.808594 223.101562 C 82.753906 223.101562 72.953125 213.300781 72.953125 201.246094 L 72.953125 78.953125 L 57.792969 78.953125 Z M 57.792969 78.945312 " fill-opacity="1" fill-rule="nonzero"/></g><path fill="#ffffff" d="M 159.265625 332.214844 C 158.566406 332.214844 157.859375 332.046875 157.203125 331.699219 C 155.074219 330.558594 154.265625 327.902344 155.40625 325.761719 C 167.554688 303.078125 157.324219 286.359375 156.882812 285.65625 C 155.597656 283.617188 156.199219 280.910156 158.230469 279.617188 C 160.261719 278.320312 162.957031 278.898438 164.265625 280.925781 C 164.828125 281.792969 177.804688 302.5 163.140625 329.902344 C 162.347656 331.371094 160.832031 332.214844 159.265625 332.214844 Z M 159.265625 332.214844 " fill-opacity="1" fill-rule="nonzero"/><path fill="#ffffff" d="M 215.746094 332.214844 C 214.179688 332.214844 212.671875 331.378906 211.882812 329.902344 C 197.21875 302.507812 210.199219 281.800781 210.753906 280.925781 C 212.066406 278.890625 214.78125 278.304688 216.8125 279.617188 C 218.84375 280.925781 219.429688 283.625 218.128906 285.65625 C 217.664062 286.394531 207.476562 303.101562 219.605469 325.761719 C 220.746094 327.894531 219.949219 330.550781 217.808594 331.699219 C 217.15625 332.046875 216.441406 332.214844 215.746094 332.214844 Z M 215.746094 332.214844 " fill-opacity="1" fill-rule="nonzero"/><g clip-path="url(#edf73be8e6)"><path fill="#ffffff" d="M 238.675781 356.25 L 136.335938 356.25 C 133.917969 356.25 131.953125 354.285156 131.953125 351.867188 L 131.953125 338.289062 C 131.953125 330.109375 138.613281 323.449219 146.792969 323.449219 L 228.214844 323.449219 C 236.394531 323.449219 243.054688 330.109375 243.054688 338.289062 L 243.054688 351.867188 C 243.058594 354.285156 241.097656 356.25 238.675781 356.25 Z M 140.71875 347.480469 L 234.285156 347.480469 L 234.285156 338.289062 C 234.285156 334.941406 231.5625 332.214844 228.214844 332.214844 L 146.800781 332.214844 C 143.453125 332.214844 140.726562 334.941406 140.726562 338.289062 L 140.726562 347.480469 Z M 140.71875 347.480469 " fill-opacity="1" fill-rule="nonzero"/></g><g clip-path="url(#0dbe6be928)"><path fill="#ffffff" d="M 342.675781 248.125 L 32.339844 248.125 C 29.917969 248.125 27.953125 246.160156 27.953125 243.742188 C 27.953125 241.320312 29.917969 239.359375 32.339844 239.359375 L 342.675781 239.359375 C 345.097656 239.359375 347.058594 241.320312 347.058594 243.742188 C 347.058594 246.160156 345.097656 248.125 342.675781 248.125 Z M 342.675781 248.125 " fill-opacity="1" fill-rule="nonzero"/></g><path fill="#ffffff" d="M 64.09375 267.902344 L 54.839844 267.902344 C 52.421875 267.902344 50.457031 265.941406 50.457031 263.519531 C 50.457031 261.101562 52.421875 259.136719 54.839844 259.136719 L 64.101562 259.136719 C 66.523438 259.136719 68.484375 261.101562 68.484375 263.519531 C 68.484375 265.941406 66.523438 267.902344 64.09375 267.902344 Z M 64.09375 267.902344 " fill-opacity="1" fill-rule="nonzero"/><path fill="#ffffff" d="M 92.96875 267.902344 L 83.707031 267.902344 C 81.285156 267.902344 79.324219 265.941406 79.324219 263.519531 C 79.324219 261.101562 81.285156 259.136719 83.707031 259.136719 L 92.96875 259.136719 C 95.386719 259.136719 97.351562 261.101562 97.351562 263.519531 C 97.351562 265.941406 95.386719 267.902344 92.96875 267.902344 Z M 92.96875 267.902344 " fill-opacity="1" fill-rule="nonzero"/><path fill="#ffffff" d="M 121.839844 267.902344 L 112.578125 267.902344 C 110.160156 267.902344 108.195312 265.941406 108.195312 263.519531 C 108.195312 261.101562 110.160156 259.136719 112.578125 259.136719 L 121.839844 259.136719 C 124.261719 259.136719 126.222656 261.101562 126.222656 263.519531 C 126.222656 265.941406 124.261719 267.902344 121.839844 267.902344 Z M 121.839844 267.902344 " fill-opacity="1" fill-rule="nonzero"/><path fill="#ffffff" d="M 134.867188 141.347656 C 125.097656 141.347656 117.152344 133.402344 117.152344 123.632812 C 117.152344 113.859375 125.097656 105.914062 134.867188 105.914062 C 144.640625 105.914062 152.585938 113.859375 152.585938 123.632812 C 152.585938 133.402344 144.640625 141.347656 134.867188 141.347656 Z M 134.867188 114.683594 C 129.929688 114.683594 125.917969 118.699219 125.917969 123.632812 C 125.917969 128.5625 129.9375 132.582031 134.867188 132.582031 C 139.808594 132.582031 143.816406 128.5625 143.816406 123.632812 C 143.816406 118.699219 139.808594 114.683594 134.867188 114.683594 Z M 134.867188 114.683594 " fill-opacity="1" fill-rule="nonzero"/><path fill="#ffffff" d="M 134.867188 170.761719 C 112.320312 170.761719 93.972656 152.414062 93.972656 129.863281 C 93.972656 107.316406 112.320312 88.96875 134.867188 88.96875 C 157.417969 88.96875 175.765625 107.316406 175.765625 129.863281 C 175.765625 152.414062 157.425781 170.761719 134.867188 170.761719 Z M 134.867188 97.734375 C 117.152344 97.734375 102.738281 112.148438 102.738281 129.863281 C 102.738281 147.582031 117.152344 161.996094 134.867188 161.996094 C 152.585938 161.996094 166.996094 147.582031 166.996094 129.863281 C 166.996094 112.148438 152.585938 97.734375 134.867188 97.734375 Z M 134.867188 97.734375 " fill-opacity="1" fill-rule="nonzero"/><path fill="#ffffff" d="M 134.867188 170.761719 C 124.722656 170.761719 114.992188 167.015625 107.464844 160.222656 C 106.453125 159.308594 105.917969 157.96875 106.035156 156.613281 C 107.015625 144.550781 115.539062 134.285156 127.234375 131.066406 C 128.339844 130.761719 129.527344 130.90625 130.53125 131.460938 C 133.171875 132.929688 136.574219 132.929688 139.214844 131.460938 C 140.21875 130.90625 141.398438 130.761719 142.507812 131.066406 C 154.207031 134.285156 162.722656 144.550781 163.710938 156.613281 C 163.824219 157.976562 163.292969 159.308594 162.28125 160.222656 C 154.753906 167.015625 145.019531 170.761719 134.867188 170.761719 Z M 115.066406 155.167969 C 120.707031 159.589844 127.652344 161.996094 134.867188 161.996094 C 142.082031 161.996094 149.03125 159.582031 154.667969 155.167969 C 153.332031 148.21875 148.367188 142.414062 141.671875 139.992188 C 137.378906 141.773438 132.355469 141.773438 128.066406 139.992188 C 121.367188 142.414062 116.414062 148.21875 115.066406 155.167969 Z M 115.066406 155.167969 " fill-opacity="1" fill-rule="nonzero"/><path fill="#ffffff" d="M 297.679688 131.949219 L 171.304688 131.949219 C 168.886719 131.949219 166.921875 129.988281 166.921875 127.566406 C 166.921875 125.144531 168.886719 123.183594 171.304688 123.183594 L 297.679688 123.183594 C 300.097656 123.183594 302.0625 125.144531 302.0625 127.566406 C 302.0625 129.988281 300.105469 131.949219 297.679688 131.949219 Z M 98.429688 131.949219 L 77.328125 131.949219 C 74.910156 131.949219 72.945312 129.988281 72.945312 127.566406 C 72.945312 125.144531 74.910156 123.183594 77.328125 123.183594 L 98.429688 123.183594 C 100.851562 123.183594 102.816406 125.144531 102.816406 127.566406 C 102.816406 129.988281 100.859375 131.949219 98.429688 131.949219 Z M 98.429688 131.949219 " fill-opacity="1" fill-rule="nonzero"/><path fill="#ffffff" d="M 170.484375 187.113281 L 99.253906 187.113281 C 96.832031 187.113281 94.871094 185.152344 94.871094 182.730469 C 94.871094 180.3125 96.832031 178.347656 99.253906 178.347656 L 170.484375 178.347656 C 172.902344 178.347656 174.867188 180.3125 174.867188 182.730469 C 174.867188 185.152344 172.910156 187.113281 170.484375 187.113281 Z M 170.484375 187.113281 " fill-opacity="1" fill-rule="nonzero"/><path fill="#ffffff" d="M 170.484375 206.742188 L 99.253906 206.742188 C 96.832031 206.742188 94.871094 204.777344 94.871094 202.359375 C 94.871094 199.9375 96.832031 197.976562 99.253906 197.976562 L 170.484375 197.976562 C 172.902344 197.976562 174.867188 199.9375 174.867188 202.359375 C 174.867188 204.777344 172.910156 206.742188 170.484375 206.742188 Z M 170.484375 206.742188 " fill-opacity="1" fill-rule="nonzero"/><path fill="#ffffff" d="M 270.960938 206.742188 L 200.277344 206.742188 C 197.855469 206.742188 195.894531 204.777344 195.894531 202.359375 L 195.894531 182.722656 C 195.894531 180.304688 197.855469 178.339844 200.277344 178.339844 L 270.960938 178.339844 C 273.378906 178.339844 275.34375 180.304688 275.34375 182.722656 L 275.34375 202.359375 C 275.34375 204.785156 273.378906 206.742188 270.960938 206.742188 Z M 204.660156 197.980469 L 266.574219 197.980469 L 266.574219 187.113281 L 204.660156 187.113281 Z M 204.660156 197.980469 " fill-opacity="1" fill-rule="nonzero"/><path fill="#ffffff" d="M 271.234375 149.300781 L 200.003906 149.300781 C 197.582031 149.300781 195.621094 147.335938 195.621094 144.917969 C 195.621094 142.496094 197.582031 140.535156 200.003906 140.535156 L 271.234375 140.535156 C 273.652344 140.535156 275.617188 142.496094 275.617188 144.917969 C 275.617188 147.335938 273.652344 149.300781 271.234375 149.300781 Z M 271.234375 149.300781 " fill-opacity="1" fill-rule="nonzero"/><path fill="#ffffff" d="M 271.234375 168.925781 L 200.003906 168.925781 C 197.582031 168.925781 195.621094 166.964844 195.621094 164.542969 C 195.621094 162.125 197.582031 160.160156 200.003906 160.160156 L 271.234375 160.160156 C 273.652344 160.160156 275.617188 162.125 275.617188 164.542969 C 275.617188 166.964844 273.652344 168.925781 271.234375 168.925781 Z M 271.234375 168.925781 " fill-opacity="1" fill-rule="nonzero"/></svg>