<svg xmlns="http://www.w3.org/2000/svg" xmlns:xlink="http://www.w3.org/1999/xlink" width="500" zoomAndPan="magnify" viewBox="0 0 375 374.999991" height="500" preserveAspectRatio="xMidYMid meet" version="1.0"><defs><clipPath id="2bc93bdab0"><path d="M 18.75 82.261719 L 304 82.261719 L 304 292.78125 L 18.75 292.78125 Z M 18.75 82.261719 " clip-rule="nonzero"/></clipPath><clipPath id="7e591f015f"><path d="M 246 134 L 356.25 134 L 356.25 245 L 246 245 Z M 246 134 " clip-rule="nonzero"/></clipPath></defs><path fill="#ffffff" d="M 140.039062 240.234375 C 137.140625 240.234375 134.765625 242.605469 134.765625 245.507812 C 134.765625 248.40625 137.140625 250.78125 140.039062 250.78125 L 182.226562 250.78125 C 185.125 250.78125 187.5 248.40625 187.5 245.507812 C 187.5 242.605469 185.125 240.234375 182.226562 240.234375 Z M 140.039062 240.234375 " fill-opacity="1" fill-rule="nonzero"/><path fill="#ffffff" d="M 66.476562 243.925781 C 66.472656 244.21875 66.445312 244.511719 66.386719 244.800781 C 66.332031 245.089844 66.246094 245.371094 66.132812 245.640625 C 66.019531 245.914062 65.882812 246.171875 65.71875 246.417969 C 65.554688 246.660156 65.371094 246.886719 65.160156 247.09375 C 64.953125 247.304688 64.726562 247.488281 64.484375 247.652344 C 64.238281 247.816406 63.980469 247.953125 63.707031 248.066406 C 63.4375 248.179688 63.15625 248.265625 62.867188 248.320312 C 62.578125 248.378906 62.285156 248.40625 61.992188 248.40625 C 61.699219 248.40625 61.40625 248.378906 61.117188 248.320312 C 60.828125 248.265625 60.546875 248.179688 60.277344 248.066406 C 60.003906 247.953125 59.746094 247.816406 59.5 247.652344 C 59.257812 247.488281 59.03125 247.304688 58.824219 247.09375 C 58.613281 246.886719 58.429688 246.660156 58.265625 246.417969 C 58.101562 246.171875 57.964844 245.914062 57.851562 245.640625 C 57.738281 245.371094 57.652344 245.089844 57.597656 244.800781 C 57.539062 244.511719 57.507812 244.21875 57.511719 243.925781 C 57.507812 243.632812 57.539062 243.339844 57.597656 243.050781 C 57.652344 242.761719 57.738281 242.480469 57.851562 242.210938 C 57.964844 241.9375 58.101562 241.679688 58.265625 241.433594 C 58.429688 241.191406 58.613281 240.964844 58.824219 240.757812 C 59.03125 240.546875 59.257812 240.363281 59.5 240.199219 C 59.746094 240.035156 60.003906 239.898438 60.277344 239.785156 C 60.546875 239.671875 60.828125 239.585938 61.117188 239.53125 C 61.40625 239.472656 61.699219 239.445312 61.992188 239.441406 C 62.285156 239.445312 62.578125 239.472656 62.867188 239.53125 C 63.15625 239.585938 63.4375 239.671875 63.707031 239.785156 C 63.980469 239.898438 64.238281 240.035156 64.484375 240.199219 C 64.726562 240.363281 64.953125 240.546875 65.160156 240.757812 C 65.371094 240.964844 65.554688 241.191406 65.71875 241.433594 C 65.882812 241.679688 66.019531 241.9375 66.132812 242.210938 C 66.246094 242.480469 66.332031 242.761719 66.386719 243.050781 C 66.445312 243.339844 66.472656 243.632812 66.476562 243.925781 Z M 66.476562 243.925781 " fill-opacity="1" fill-rule="nonzero"/><path fill="#ffffff" d="M 48.808594 243.925781 C 48.808594 244.21875 48.78125 244.511719 48.722656 244.800781 C 48.664062 245.089844 48.578125 245.371094 48.46875 245.640625 C 48.355469 245.914062 48.214844 246.171875 48.054688 246.417969 C 47.890625 246.660156 47.703125 246.886719 47.496094 247.09375 C 47.289062 247.304688 47.0625 247.488281 46.816406 247.652344 C 46.570312 247.816406 46.3125 247.953125 46.042969 248.066406 C 45.769531 248.179688 45.488281 248.265625 45.199219 248.320312 C 44.910156 248.378906 44.621094 248.40625 44.328125 248.40625 C 44.03125 248.40625 43.742188 248.378906 43.453125 248.320312 C 43.164062 248.265625 42.882812 248.179688 42.609375 248.066406 C 42.339844 247.953125 42.082031 247.816406 41.835938 247.652344 C 41.589844 247.488281 41.363281 247.304688 41.15625 247.09375 C 40.949219 246.886719 40.761719 246.660156 40.597656 246.417969 C 40.4375 246.171875 40.296875 245.914062 40.183594 245.640625 C 40.074219 245.371094 39.988281 245.089844 39.929688 244.800781 C 39.871094 244.511719 39.84375 244.21875 39.84375 243.925781 C 39.84375 243.632812 39.871094 243.339844 39.929688 243.050781 C 39.988281 242.761719 40.074219 242.480469 40.183594 242.210938 C 40.296875 241.9375 40.4375 241.679688 40.597656 241.433594 C 40.761719 241.191406 40.949219 240.964844 41.15625 240.757812 C 41.363281 240.546875 41.589844 240.363281 41.835938 240.199219 C 42.082031 240.035156 42.339844 239.898438 42.609375 239.785156 C 42.882812 239.671875 43.164062 239.585938 43.453125 239.53125 C 43.742188 239.472656 44.03125 239.445312 44.328125 239.441406 C 44.621094 239.445312 44.910156 239.472656 45.199219 239.53125 C 45.488281 239.585938 45.769531 239.671875 46.042969 239.785156 C 46.3125 239.898438 46.570312 240.035156 46.816406 240.199219 C 47.0625 240.363281 47.289062 240.546875 47.496094 240.757812 C 47.703125 240.964844 47.890625 241.191406 48.054688 241.433594 C 48.214844 241.679688 48.355469 241.9375 48.46875 242.210938 C 48.578125 242.480469 48.664062 242.761719 48.722656 243.050781 C 48.78125 243.339844 48.808594 243.632812 48.808594 243.925781 Z M 48.808594 243.925781 " fill-opacity="1" fill-rule="nonzero"/><path fill="#ffffff" d="M 136.609375 123.953125 C 135.03125 121.582031 131.601562 120.789062 129.230469 122.371094 L 81.769531 154.011719 C 80.1875 155.070312 79.394531 156.648438 79.394531 158.496094 C 79.394531 160.34375 80.1875 161.921875 81.769531 162.980469 C 81.769531 162.980469 129.230469 194.621094 129.230469 194.621094 C 131.601562 196.199219 135.03125 195.675781 136.609375 193.039062 C 138.191406 190.664062 137.667969 187.238281 135.03125 185.65625 L 94.160156 158.496094 L 135.027344 131.335938 C 137.402344 129.753906 138.191406 126.328125 136.609375 123.953125 Z M 136.609375 123.953125 " fill-opacity="1" fill-rule="nonzero"/><path fill="#ffffff" d="M 185.652344 193.035156 C 187.234375 195.410156 190.664062 196.199219 193.035156 194.617188 L 240.496094 162.976562 C 242.078125 161.921875 242.871094 160.339844 242.871094 158.496094 C 242.871094 156.648438 242.078125 155.066406 240.496094 154.011719 L 193.035156 122.371094 C 190.664062 120.789062 187.234375 121.316406 185.652344 123.953125 C 184.070312 126.328125 184.597656 129.753906 187.234375 131.335938 L 228.105469 158.496094 L 187.234375 185.652344 C 184.863281 187.234375 184.070312 190.664062 185.652344 193.035156 Z M 185.652344 193.035156 " fill-opacity="1" fill-rule="nonzero"/><path fill="#ffffff" d="M 166.667969 117.625 L 145.574219 196.726562 C 144.785156 199.628906 146.628906 202.527344 149.265625 203.054688 C 149.792969 203.054688 150.058594 203.320312 150.585938 203.320312 C 152.957031 203.320312 155.066406 201.738281 155.59375 199.363281 L 176.6875 120.261719 C 177.480469 117.363281 175.632812 114.460938 172.996094 113.933594 C 170.359375 113.144531 167.460938 114.726562 166.667969 117.625 Z M 166.667969 117.625 " fill-opacity="1" fill-rule="nonzero"/><g clip-path="url(#2bc93bdab0)"><path fill="#ffffff" d="M 140.039062 282.421875 L 124.21875 282.421875 C 121.320312 282.421875 118.945312 284.792969 118.945312 287.695312 C 118.945312 290.59375 121.320312 292.96875 124.21875 292.96875 L 198.046875 292.96875 C 200.945312 292.96875 203.320312 290.59375 203.320312 287.695312 C 203.320312 284.792969 200.945312 282.421875 198.046875 282.421875 L 182.226562 282.421875 L 182.226562 266.601562 L 287.695312 266.601562 C 294.550781 266.601562 300.351562 262.117188 302.460938 256.054688 L 296.921875 256.054688 C 294.550781 256.054688 292.441406 255.789062 290.332031 255 C 289.539062 255.527344 288.484375 256.054688 287.429688 256.054688 L 34.570312 256.054688 C 31.671875 256.054688 29.296875 253.679688 29.296875 250.78125 L 29.296875 234.960938 L 252.363281 234.960938 L 251.570312 234.167969 C 248.933594 231.53125 246.824219 228.105469 245.769531 224.414062 L 29.296875 224.414062 L 29.296875 97.851562 C 29.296875 94.949219 31.671875 92.578125 34.570312 92.578125 L 287.695312 92.578125 C 290.59375 92.578125 292.96875 94.949219 292.96875 97.851562 L 292.96875 124.746094 C 294.285156 124.480469 295.605469 124.21875 297.1875 124.21875 L 303.515625 124.21875 L 303.515625 97.851562 C 303.515625 89.148438 296.394531 82.03125 287.695312 82.03125 L 34.570312 82.03125 C 25.871094 82.03125 18.75 89.148438 18.75 97.851562 L 18.75 250.78125 C 18.75 259.480469 25.871094 266.601562 34.570312 266.601562 L 140.039062 266.601562 Z M 150.585938 266.601562 L 171.679688 266.601562 L 171.679688 282.421875 L 150.585938 282.421875 Z M 150.585938 266.601562 " fill-opacity="1" fill-rule="nonzero"/></g><g clip-path="url(#7e591f015f)"><path fill="#ffffff" d="M 345.964844 173.523438 C 345.4375 172.207031 344.910156 171.152344 344.382812 169.832031 C 347.8125 164.824219 347.285156 157.96875 342.800781 153.484375 L 337.527344 148.210938 C 335.15625 145.839844 331.726562 144.519531 328.300781 144.519531 C 325.664062 144.519531 323.289062 145.3125 321.179688 146.628906 C 320.125 146.101562 318.808594 145.574219 317.488281 145.046875 C 316.171875 138.984375 310.898438 134.765625 304.832031 134.765625 L 297.449219 134.765625 C 291.121094 134.765625 285.847656 139.246094 284.792969 145.046875 C 283.476562 145.574219 282.421875 146.101562 281.101562 146.628906 C 278.992188 145.3125 276.621094 144.519531 273.984375 144.519531 C 270.554688 144.519531 267.128906 145.839844 264.753906 148.210938 L 259.480469 153.484375 C 255 157.96875 254.472656 164.824219 257.898438 169.832031 C 257.371094 170.886719 256.84375 172.207031 256.316406 173.523438 C 250.253906 174.84375 246.035156 180.117188 246.035156 186.179688 L 246.035156 193.5625 C 246.035156 199.890625 250.515625 205.164062 256.316406 206.222656 C 256.84375 207.539062 257.371094 208.59375 257.898438 209.914062 C 256.582031 212.023438 255.789062 214.394531 255.789062 217.03125 C 255.789062 220.460938 257.109375 223.886719 259.480469 226.257812 L 264.753906 231.53125 C 267.128906 233.90625 270.554688 235.222656 273.984375 235.222656 C 276.621094 235.222656 278.992188 234.433594 281.101562 233.113281 C 282.15625 233.640625 283.476562 234.167969 284.792969 234.695312 C 286.113281 240.761719 291.386719 244.980469 297.449219 244.980469 L 304.832031 244.980469 C 311.160156 244.980469 316.433594 240.496094 317.488281 234.695312 C 318.808594 234.167969 319.863281 233.640625 321.179688 233.113281 C 323.292969 234.433594 325.664062 235.222656 328.300781 235.222656 C 331.726562 235.222656 335.15625 233.90625 337.527344 231.53125 L 342.800781 226.257812 C 345.175781 223.886719 346.492188 220.460938 346.492188 217.03125 C 346.492188 214.394531 345.703125 212.019531 344.382812 209.914062 C 344.910156 208.859375 345.4375 207.539062 345.964844 206.222656 C 352.03125 204.902344 356.25 199.628906 356.25 193.5625 L 356.25 186.179688 C 356.25 180.117188 351.765625 174.84375 345.964844 173.523438 Z M 345.703125 193.828125 C 345.703125 195.144531 344.648438 196.199219 343.328125 196.199219 L 337.792969 196.199219 C 336.738281 202 334.628906 207.011719 331.464844 211.496094 L 335.417969 215.449219 C 336.472656 216.503906 336.472656 218.085938 335.417969 218.878906 L 330.144531 224.152344 C 329.617188 224.679688 329.089844 224.941406 328.300781 224.941406 C 327.507812 224.941406 326.980469 224.679688 326.453125 224.152344 L 322.5 220.195312 C 318.019531 223.359375 312.746094 225.734375 307.207031 226.523438 L 307.207031 232.0625 C 307.207031 233.378906 306.152344 234.433594 304.832031 234.433594 L 297.449219 234.433594 C 296.132812 234.433594 295.078125 233.378906 295.078125 232.0625 L 295.078125 227.050781 C 289.277344 225.996094 284.265625 223.886719 279.785156 220.722656 L 275.300781 224.414062 C 274.777344 224.941406 274.246094 225.203125 273.457031 225.203125 C 272.667969 225.203125 272.402344 224.941406 271.875 224.414062 L 266.601562 219.140625 C 265.546875 218.085938 265.546875 216.503906 266.601562 215.710938 L 270.554688 211.757812 C 267.390625 207.273438 265.019531 202 264.226562 196.464844 L 258.691406 196.464844 C 257.371094 196.464844 256.316406 195.410156 256.316406 194.089844 L 256.316406 186.707031 C 256.316406 185.390625 257.371094 184.335938 258.691406 184.335938 L 263.964844 184.335938 C 265.019531 178.535156 267.128906 173.523438 270.292969 169.042969 L 266.601562 164.558594 C 265.546875 163.503906 265.546875 161.921875 266.601562 161.132812 L 271.875 155.859375 C 272.402344 155.332031 272.929688 155.066406 273.71875 155.066406 C 274.511719 155.066406 275.039062 155.332031 275.566406 155.859375 L 279.519531 159.8125 C 284.003906 156.648438 289.277344 154.277344 294.8125 153.484375 L 294.8125 147.949219 C 294.8125 146.628906 295.867188 145.574219 297.1875 145.574219 L 304.570312 145.574219 C 305.886719 145.574219 306.941406 146.628906 306.941406 147.949219 L 306.941406 153.222656 C 312.742188 154.277344 317.753906 156.386719 322.234375 159.550781 L 326.191406 155.59375 C 326.71875 155.066406 327.246094 154.804688 328.035156 154.804688 C 328.828125 154.804688 329.355469 155.066406 329.882812 155.59375 L 335.15625 160.867188 C 336.210938 161.921875 336.210938 163.503906 335.15625 164.296875 L 331.199219 168.25 C 334.363281 172.734375 336.738281 178.007812 337.527344 183.542969 L 343.066406 183.542969 C 344.382812 183.542969 345.4375 184.597656 345.4375 185.917969 L 345.4375 193.828125 Z M 345.703125 193.828125 " fill-opacity="1" fill-rule="nonzero"/></g><path fill="#ffffff" d="M 300.878906 169.042969 C 289.277344 169.042969 279.785156 178.535156 279.785156 190.136719 C 279.785156 201.738281 289.277344 211.230469 300.878906 211.230469 C 312.480469 211.230469 321.972656 201.738281 321.972656 190.136719 C 321.972656 178.535156 312.480469 169.042969 300.878906 169.042969 Z M 300.878906 200.683594 C 295.078125 200.683594 290.332031 195.9375 290.332031 190.136719 C 290.332031 184.335938 295.078125 179.589844 300.878906 179.589844 C 306.679688 179.589844 311.425781 184.335938 311.425781 190.136719 C 311.425781 195.9375 306.679688 200.683594 300.878906 200.683594 Z M 300.878906 200.683594 " fill-opacity="1" fill-rule="nonzero"/></svg>