<svg xmlns="http://www.w3.org/2000/svg" xmlns:xlink="http://www.w3.org/1999/xlink" width="500" zoomAndPan="magnify" viewBox="0 0 375 374.999991" height="500" preserveAspectRatio="xMidYMid meet" version="1.0"><defs><clipPath id="37f9d2d4cb"><path d="M 51.578125 18.75 L 265 18.75 L 265 232 L 51.578125 232 Z M 51.578125 18.75 " clip-rule="nonzero"/></clipPath><clipPath id="e7a167e06a"><path d="M 238 237 L 323.078125 237 L 323.078125 356.25 L 238 356.25 Z M 238 237 " clip-rule="nonzero"/></clipPath><clipPath id="9f569da951"><path d="M 135 237 L 220 237 L 220 356.25 L 135 356.25 Z M 135 237 " clip-rule="nonzero"/></clipPath></defs><path fill="#ffffff" d="M 229.160156 300.625 C 228.710938 300.625 228.253906 300.558594 227.816406 300.414062 C 185.058594 286.660156 158.066406 255.085938 149.742188 209.09375 C 143.527344 174.777344 149.816406 144.96875 150.085938 143.71875 C 150.542969 141.621094 152.449219 140.167969 154.589844 140.257812 C 157.304688 140.386719 159.941406 140.449219 162.496094 140.449219 C 206.566406 140.449219 225.875 122.015625 226.082031 121.816406 C 227.796875 120.132812 230.554688 120.125 232.261719 121.816406 C 232.542969 122.09375 254.164062 142.644531 303.746094 140.257812 C 305.871094 140.152344 307.792969 141.617188 308.25 143.71875 C 308.523438 144.96875 314.804688 174.777344 308.59375 209.09375 C 300.269531 255.085938 273.273438 286.667969 230.515625 300.414062 C 230.066406 300.558594 229.609375 300.625 229.160156 300.625 Z M 158.011719 149.175781 C 156.585938 157.996094 153.675781 181.835938 158.417969 207.792969 C 166.199219 250.375 190 278.574219 229.152344 291.625 C 268.386719 278.542969 292.203125 250.261719 299.933594 207.539062 C 304.621094 181.621094 301.71875 157.960938 300.300781 149.183594 C 259.261719 150.289062 236.882812 136.613281 229.152344 130.691406 C 221.429688 136.605469 199.035156 150.269531 158.011719 149.175781 Z M 158.011719 149.175781 " fill-opacity="1" fill-rule="nonzero"/><path fill="#ffffff" d="M 229.160156 281.25 C 228.632812 281.25 228.101562 281.148438 227.597656 280.957031 C 194.941406 268.546875 174.859375 243.613281 167.921875 206.863281 C 165.421875 193.621094 164.644531 177.078125 165.84375 162.609375 C 166.023438 160.40625 167.816406 158.683594 170.027344 158.585938 C 187.453125 157.828125 203.25 154.4375 216.984375 148.5 C 220.363281 147.035156 223.816406 145.3125 226.972656 143.5 C 228.328125 142.722656 229.992188 142.722656 231.339844 143.5 C 234.496094 145.304688 237.949219 147.035156 241.328125 148.5 C 255.0625 154.4375 270.859375 157.828125 288.285156 158.585938 C 290.496094 158.683594 292.285156 160.40625 292.46875 162.609375 C 293.667969 177.078125 292.890625 193.621094 290.390625 206.863281 C 283.453125 243.621094 263.371094 268.546875 230.714844 280.957031 C 230.210938 281.148438 229.6875 281.25 229.160156 281.25 Z M 174.328125 167.144531 C 173.601562 179.898438 174.402344 193.871094 176.550781 205.230469 C 182.863281 238.65625 200.078125 260.558594 229.152344 272.140625 C 258.226562 260.558594 275.449219 238.648438 281.75 205.222656 C 283.894531 193.855469 284.703125 179.890625 283.976562 167.136719 C 267.015625 166.015625 251.511719 162.464844 237.835938 156.558594 C 234.921875 155.300781 231.957031 153.859375 229.144531 152.332031 C 226.332031 153.859375 223.367188 155.300781 220.453125 156.558594 C 206.792969 162.472656 191.289062 166.03125 174.328125 167.144531 Z M 174.328125 167.144531 " fill-opacity="1" fill-rule="nonzero"/><g clip-path="url(#37f9d2d4cb)"><path fill="#ffffff" d="M 158.835938 231.644531 L 152.402344 231.644531 C 140.03125 231.644531 129.96875 221.582031 129.96875 209.210938 L 129.96875 203.429688 C 127.527344 202.546875 125.121094 201.554688 122.769531 200.441406 L 118.679688 204.535156 C 109.925781 213.28125 95.695312 213.28125 86.949219 204.535156 L 78.734375 196.320312 C 69.980469 187.566406 69.980469 173.335938 78.734375 164.589844 L 82.820312 160.503906 C 81.714844 158.148438 80.714844 155.75 79.832031 153.300781 L 74.050781 153.300781 C 61.679688 153.300781 51.617188 143.238281 51.617188 130.867188 L 51.617188 119.234375 C 51.617188 106.863281 61.679688 96.800781 74.050781 96.800781 L 79.832031 96.800781 C 80.707031 94.359375 81.707031 91.949219 82.820312 89.59375 L 78.734375 85.507812 C 69.980469 76.757812 69.980469 62.527344 78.734375 53.78125 L 86.949219 45.5625 C 95.703125 36.8125 109.933594 36.8125 118.679688 45.5625 L 122.769531 49.65625 C 125.128906 48.550781 127.527344 47.554688 129.976562 46.667969 L 129.976562 40.890625 C 129.976562 28.519531 140.039062 18.457031 152.410156 18.457031 L 164.035156 18.457031 C 176.40625 18.457031 186.46875 28.519531 186.46875 40.890625 L 186.46875 46.660156 C 188.910156 47.546875 191.320312 48.535156 193.675781 49.648438 L 197.769531 45.554688 C 206.519531 36.8125 220.75 36.804688 229.496094 45.554688 L 237.714844 53.773438 C 246.464844 62.527344 246.464844 76.757812 237.714844 85.5 L 233.628906 89.585938 C 234.734375 91.941406 235.730469 94.34375 236.617188 96.792969 L 242.394531 96.792969 C 254.765625 96.792969 264.828125 106.855469 264.828125 119.226562 L 264.828125 130.851562 C 264.828125 134.738281 263.808594 138.582031 261.871094 141.957031 C 260.855469 143.726562 258.769531 144.566406 256.816406 143.984375 C 242.523438 139.761719 233.527344 133.992188 229.175781 130.667969 C 221.75 136.363281 200.757812 149.230469 162.648438 149.230469 C 161.140625 149.230469 159.597656 149.207031 158.027344 149.171875 C 156.289062 160.003906 152.3125 193.492188 163.015625 225.875 C 163.457031 227.214844 163.226562 228.679688 162.402344 229.824219 C 161.574219 230.964844 160.246094 231.644531 158.835938 231.644531 Z M 121.894531 190.714844 C 122.582031 190.714844 123.273438 190.875 123.914062 191.210938 C 127.6875 193.171875 131.644531 194.816406 135.683594 196.097656 C 137.507812 196.675781 138.75 198.371094 138.75 200.28125 L 138.75 209.210938 C 138.75 216.742188 144.878906 222.863281 152.402344 222.863281 L 152.898438 222.863281 C 141.746094 183.375 149.710938 145.390625 150.078125 143.71875 C 150.535156 141.621094 152.441406 140.167969 154.582031 140.257812 C 204.613281 142.667969 225.84375 122.039062 226.050781 121.832031 C 227.765625 120.117188 230.546875 120.117188 232.253906 121.832031 C 232.316406 121.894531 239.695312 129.007812 255.566406 134.386719 C 255.878906 133.246094 256.039062 132.054688 256.039062 130.859375 L 256.039062 119.234375 C 256.039062 111.703125 249.910156 105.582031 242.386719 105.582031 L 233.460938 105.582031 C 231.546875 105.582031 229.855469 104.339844 229.273438 102.515625 C 227.992188 98.476562 226.355469 94.511719 224.394531 90.746094 C 223.511719 89.046875 223.832031 86.972656 225.1875 85.617188 L 231.507812 79.296875 C 236.828125 73.976562 236.828125 65.308594 231.507812 59.988281 L 223.289062 51.769531 C 217.96875 46.449219 209.300781 46.449219 203.980469 51.769531 L 197.660156 58.089844 C 196.304688 59.445312 194.230469 59.765625 192.53125 58.882812 C 188.757812 56.921875 184.792969 55.277344 180.761719 53.996094 C 178.9375 53.414062 177.695312 51.722656 177.695312 49.808594 L 177.695312 40.875 C 177.695312 33.34375 171.566406 27.222656 164.042969 27.222656 L 152.417969 27.222656 C 144.886719 27.222656 138.765625 33.351562 138.765625 40.875 L 138.765625 49.800781 C 138.765625 51.714844 137.523438 53.40625 135.699219 53.988281 C 131.667969 55.269531 127.703125 56.90625 123.929688 58.867188 C 122.230469 59.75 120.15625 59.429688 118.800781 58.074219 L 112.480469 51.753906 C 107.160156 46.433594 98.492188 46.433594 93.171875 51.753906 L 84.953125 59.972656 C 79.632812 65.292969 79.632812 73.960938 84.953125 79.28125 L 91.273438 85.601562 C 92.628906 86.957031 92.949219 89.03125 92.066406 90.730469 C 90.097656 94.511719 88.460938 98.46875 87.179688 102.5 C 86.601562 104.324219 84.90625 105.566406 82.992188 105.566406 L 74.050781 105.566406 C 66.519531 105.566406 60.398438 111.695312 60.398438 119.21875 L 60.398438 130.84375 C 60.398438 138.375 66.527344 144.496094 74.050781 144.496094 L 82.980469 144.496094 C 84.890625 144.496094 86.585938 145.738281 87.164062 147.5625 C 88.445312 151.601562 90.082031 155.566406 92.042969 159.332031 C 92.925781 161.03125 92.605469 163.105469 91.25 164.460938 L 84.929688 170.78125 C 79.609375 176.101562 79.609375 184.769531 84.929688 190.089844 L 93.148438 198.308594 C 98.46875 203.628906 107.136719 203.628906 112.457031 198.308594 L 118.777344 191.988281 C 119.628906 191.15625 120.757812 190.714844 121.894531 190.714844 Z M 121.894531 190.714844 " fill-opacity="1" fill-rule="nonzero"/></g><path fill="#ffffff" d="M 151.457031 178.214844 C 151.257812 178.214844 151.0625 178.199219 150.863281 178.175781 C 124.488281 174.554688 104.589844 151.714844 104.589844 125.050781 C 104.589844 95.480469 128.648438 71.414062 158.21875 71.414062 C 187.789062 71.414062 211.847656 95.472656 211.847656 125.050781 C 211.847656 129.824219 211.214844 134.570312 209.972656 139.152344 C 209.597656 140.539062 208.5625 141.652344 207.214844 142.132812 C 192.75 147.300781 176.226562 149.664062 158.011719 149.175781 C 157.25 153.859375 156.070312 162.761719 155.839844 173.914062 C 155.816406 175.164062 155.253906 176.347656 154.300781 177.160156 C 153.507812 177.839844 152.492188 178.214844 151.457031 178.214844 Z M 158.21875 80.1875 C 133.488281 80.1875 113.363281 100.304688 113.363281 125.042969 C 113.363281 145.6875 127.621094 163.585938 147.234375 168.53125 C 147.914062 153.886719 149.976562 144.167969 150.078125 143.710938 C 150.527344 141.617188 152.433594 140.144531 154.582031 140.25 C 172.214844 141.097656 188.164062 139.199219 202.035156 134.617188 C 202.722656 131.484375 203.066406 128.265625 203.066406 125.042969 C 203.066406 100.3125 182.949219 80.1875 158.21875 80.1875 Z M 205.734375 137.996094 Z M 205.734375 137.996094 " fill-opacity="1" fill-rule="nonzero"/><g clip-path="url(#e7a167e06a)"><path fill="#ffffff" d="M 259.605469 356.542969 C 259.445312 356.542969 259.277344 356.535156 259.109375 356.511719 C 257.320312 356.304688 255.832031 355.023438 255.359375 353.285156 L 238.925781 291.945312 C 238.367188 289.871094 239.390625 287.707031 241.339844 286.8125 C 263.050781 276.878906 279.25 261.183594 289.503906 240.160156 C 290.304688 238.511719 292.050781 237.542969 293.871094 237.710938 C 295.695312 237.886719 297.21875 239.175781 297.691406 240.945312 L 322.941406 335.175781 C 323.40625 336.921875 322.757812 338.773438 321.308594 339.847656 C 319.851562 340.921875 317.894531 340.992188 316.367188 340.039062 L 282.300781 318.65625 L 263.488281 354.210938 C 262.722656 355.648438 261.222656 356.542969 259.605469 356.542969 Z M 248.363281 293.203125 L 260.957031 340.214844 L 276.75 310.359375 C 277.324219 309.277344 278.3125 308.484375 279.496094 308.171875 C 280.675781 307.851562 281.933594 308.042969 282.964844 308.691406 L 311.566406 326.644531 L 292.035156 253.757812 C 281.53125 270.804688 266.886719 284.03125 248.363281 293.203125 Z M 248.363281 293.203125 " fill-opacity="1" fill-rule="nonzero"/></g><g clip-path="url(#9f569da951)"><path fill="#ffffff" d="M 198.707031 356.542969 C 197.089844 356.542969 195.59375 355.648438 194.824219 354.203125 L 176.011719 318.648438 L 141.945312 340.03125 C 140.410156 340.992188 138.453125 340.914062 137.003906 339.839844 C 135.546875 338.765625 134.898438 336.914062 135.371094 335.167969 L 160.621094 240.9375 C 161.09375 239.167969 162.617188 237.878906 164.441406 237.703125 C 166.269531 237.53125 168.007812 238.503906 168.808594 240.152344 C 179.0625 261.175781 195.261719 276.871094 216.96875 286.804688 C 218.921875 287.699219 219.9375 289.863281 219.386719 291.9375 L 202.953125 353.28125 C 202.488281 355.023438 201 356.304688 199.199219 356.503906 C 199.035156 356.535156 198.867188 356.542969 198.707031 356.542969 Z M 177.679688 308.027344 C 178.0625 308.027344 178.441406 308.074219 178.816406 308.179688 C 180 308.492188 180.988281 309.285156 181.5625 310.367188 L 197.355469 340.222656 L 209.949219 293.210938 C 191.425781 284.039062 176.78125 270.8125 166.269531 253.773438 L 146.738281 326.660156 L 175.339844 308.707031 C 176.058594 308.257812 176.863281 308.027344 177.679688 308.027344 Z M 177.679688 308.027344 " fill-opacity="1" fill-rule="nonzero"/></g><path fill="#ffffff" d="M 217.839844 239.519531 C 216.71875 239.519531 215.589844 239.09375 214.738281 238.230469 L 191.289062 214.78125 C 189.574219 213.066406 189.574219 210.285156 191.289062 208.570312 C 193.003906 206.855469 195.785156 206.855469 197.5 208.570312 L 217.847656 228.914062 L 260.828125 185.9375 C 262.542969 184.222656 265.324219 184.222656 267.039062 185.9375 C 268.753906 187.652344 268.753906 190.433594 267.039062 192.148438 L 220.949219 238.238281 C 220.089844 239.09375 218.960938 239.519531 217.839844 239.519531 Z M 217.839844 239.519531 " fill-opacity="1" fill-rule="nonzero"/></svg>