<svg xmlns="http://www.w3.org/2000/svg" xmlns:xlink="http://www.w3.org/1999/xlink" width="500" zoomAndPan="magnify" viewBox="0 0 375 374.999991" height="500" preserveAspectRatio="xMidYMid meet" version="1.0"><defs><clipPath id="ebfc506a1c"><path d="M 13.039062 18.75 L 352 18.75 L 352 356.25 L 13.039062 356.25 Z M 13.039062 18.75 " clip-rule="nonzero"/></clipPath><clipPath id="20523251eb"><path d="M 291 249.03125 L 361.789062 249.03125 L 361.789062 320.710938 L 291 320.710938 Z M 291 249.03125 " clip-rule="nonzero"/></clipPath></defs><path fill="#ffffff" d="M 29.355469 223.242188 L 335.339844 223.242188 C 337.125 212.828125 340.046875 194.394531 340.046875 187.5 C 340.046875 180.597656 337.125 162.171875 335.339844 151.757812 L 29.355469 151.757812 L 24.910156 187.5 Z M 344.304688 233.941406 L 19.902344 233.941406 L 14.125 187.5 L 19.902344 141.054688 L 344.304688 141.054688 L 345.097656 145.457031 C 345.328125 146.734375 350.746094 176.867188 350.746094 187.5 C 350.746094 198.128906 345.328125 228.261719 345.097656 229.542969 L 344.304688 233.941406 " fill-opacity="1" fill-rule="nonzero"/><path fill="#ffffff" d="M 151.207031 166.855469 L 139.242188 211.964844 L 127.613281 211.964844 L 121.300781 187.082031 L 115.339844 211.964844 L 103.210938 211.964844 L 91.230469 166.855469 L 104.257812 166.855469 L 110.566406 192.820312 L 116.722656 166.855469 L 127.59375 166.855469 L 134.289062 192.867188 L 140.609375 166.855469 L 151.207031 166.855469 " fill-opacity="1" fill-rule="nonzero"/><path fill="#ffffff" d="M 212.113281 166.855469 L 200.148438 211.964844 L 188.515625 211.964844 L 182.203125 187.082031 L 176.246094 211.964844 L 164.117188 211.964844 L 152.132812 166.855469 L 165.160156 166.855469 L 171.472656 192.820312 L 177.625 166.855469 L 188.496094 166.855469 L 195.195312 192.867188 L 201.511719 166.855469 L 212.113281 166.855469 " fill-opacity="1" fill-rule="nonzero"/><path fill="#ffffff" d="M 273.015625 166.855469 L 261.050781 211.964844 L 249.417969 211.964844 L 243.109375 187.082031 L 237.148438 211.964844 L 225.019531 211.964844 L 213.035156 166.855469 L 226.066406 166.855469 L 232.375 192.820312 L 238.53125 166.855469 L 249.402344 166.855469 L 256.097656 192.867188 L 262.417969 166.855469 L 273.015625 166.855469 " fill-opacity="1" fill-rule="nonzero"/><path fill="#ffffff" d="M 65.941406 274.160156 C 72.910156 270.410156 88.164062 263.097656 110.4375 257.296875 C 108.164062 248.136719 106.371094 238.515625 105.039062 228.589844 L 43.09375 228.589844 C 48.007812 245.210938 55.804688 260.605469 65.941406 274.160156 " fill-opacity="1" fill-rule="nonzero"/><path fill="#ffffff" d="M 186.625 114.582031 L 186.625 146.40625 L 244.386719 146.40625 C 242.632812 133.535156 240.109375 121.582031 236.941406 110.757812 C 218.777344 113.007812 201.949219 114.175781 186.625 114.582031 " fill-opacity="1" fill-rule="nonzero"/><path fill="#ffffff" d="M 173.617188 114.761719 C 155.5 114.761719 139.820312 113.726562 126.894531 112.332031 C 126.34375 112.273438 125.808594 112.207031 125.257812 112.148438 C 122.277344 122.601562 119.886719 134.078125 118.210938 146.40625 L 175.984375 146.40625 L 175.984375 114.753906 C 175.191406 114.753906 174.402344 114.761719 173.617188 114.761719 " fill-opacity="1" fill-rule="nonzero"/><path fill="#ffffff" d="M 66.421875 100.207031 C 56.054688 113.917969 48.085938 129.53125 43.09375 146.40625 L 105.035156 146.40625 C 106.71875 133.835938 109.164062 121.773438 112.347656 110.488281 C 88.832031 107.046875 73.21875 102.464844 66.421875 100.207031 " fill-opacity="1" fill-rule="nonzero"/><path fill="#ffffff" d="M 123.027344 254.371094 C 124.902344 253.984375 126.8125 253.609375 128.769531 253.25 C 144.164062 250.441406 159.964844 249.015625 175.984375 248.980469 L 175.984375 228.589844 L 118.214844 228.589844 C 119.453125 237.667969 121.0625 246.292969 123.027344 254.371094 " fill-opacity="1" fill-rule="nonzero"/><path fill="#ffffff" d="M 123.976562 295.71875 C 119.828125 287.109375 116.242188 277.667969 113.238281 267.582031 C 93.792969 272.65625 79.890625 278.96875 72.777344 282.613281 C 91.914062 304.589844 117.550781 320.753906 146.660156 328.101562 C 138.203125 320.207031 130.53125 309.328125 123.976562 295.71875 " fill-opacity="1" fill-rule="nonzero"/><path fill="#ffffff" d="M 238.632812 295.71875 C 231.925781 309.648438 224.046875 320.710938 215.355469 328.644531 C 245.125 321.636719 271.382812 305.425781 290.953125 283.195312 C 276.375 277.246094 262.320312 272.65625 248.894531 269.175781 C 245.992188 278.667969 242.558594 287.566406 238.632812 295.71875 " fill-opacity="1" fill-rule="nonzero"/><path fill="#ffffff" d="M 125.792969 264.667969 C 137.234375 303.449219 156.648438 328.074219 175.984375 331.949219 L 175.984375 259.683594 C 158.792969 259.703125 143.738281 261.367188 131.210938 263.625 C 129.367188 263.953125 127.566406 264.308594 125.792969 264.667969 " fill-opacity="1" fill-rule="nonzero"/><path fill="#ffffff" d="M 186.625 259.878906 L 186.625 331.949219 C 205.703125 328.128906 224.859375 304.097656 236.355469 266.203125 C 218.476562 262.359375 201.820312 260.460938 186.625 259.878906 " fill-opacity="1" fill-rule="nonzero"/><path fill="#ffffff" d="M 186.625 43.050781 L 186.625 103.933594 C 200.984375 103.542969 216.691406 102.480469 233.625 100.445312 C 221.96875 67.382812 204.261719 46.582031 186.625 43.050781 " fill-opacity="1" fill-rule="nonzero"/><path fill="#ffffff" d="M 123.976562 79.277344 C 130.53125 65.671875 138.203125 54.789062 146.660156 46.898438 C 118.019531 54.125 92.746094 69.894531 73.707031 91.328125 C 81.617188 93.703125 95.828125 97.382812 115.527344 100.183594 C 118.019531 92.792969 120.835938 85.792969 123.976562 79.277344 " fill-opacity="1" fill-rule="nonzero"/><path fill="#ffffff" d="M 128.535156 101.804688 C 141.578125 103.195312 157.515625 104.199219 175.984375 104.109375 L 175.984375 43.050781 C 158.105469 46.628906 140.160156 67.953125 128.511719 101.800781 C 128.519531 101.804688 128.527344 101.804688 128.535156 101.804688 " fill-opacity="1" fill-rule="nonzero"/><path fill="#ffffff" d="M 186.625 249.160156 C 192.578125 249.375 198.554688 249.769531 204.550781 250.363281 C 216.046875 251.5 227.613281 253.355469 239.210938 255.886719 C 241.339844 247.371094 243.082031 238.234375 244.394531 228.589844 L 186.625 228.589844 L 186.625 249.160156 " fill-opacity="1" fill-rule="nonzero"/><path fill="#ffffff" d="M 249.839844 109.003906 C 253.234375 120.710938 255.808594 133.285156 257.566406 146.40625 L 321.148438 146.40625 C 316.113281 129.394531 308.054688 113.664062 297.5625 99.875 C 280.867188 103.789062 264.933594 106.773438 249.839844 109.003906 " fill-opacity="1" fill-rule="nonzero"/><path fill="#ffffff" d="M 238.632812 79.277344 C 241.5625 85.363281 244.214844 91.871094 246.578125 98.726562 C 260.335938 96.734375 274.820312 94.101562 289.96875 90.695312 C 270.503906 69.03125 244.628906 53.242188 215.355469 46.355469 C 224.046875 54.285156 231.925781 65.351562 238.632812 79.277344 " fill-opacity="1" fill-rule="nonzero"/><path fill="#ffffff" d="M 251.769531 258.898438 C 264.4375 262.207031 277.121094 266.347656 289.769531 271.285156 L 276.050781 234.355469 L 313.695312 248.339844 C 316.640625 241.992188 319.136719 235.394531 321.152344 228.589844 L 257.574219 228.589844 C 256.164062 239.101562 254.230469 249.257812 251.769531 258.898438 " fill-opacity="1" fill-rule="nonzero"/><g clip-path="url(#ebfc506a1c)"><path fill="#ffffff" d="M 182.121094 18.449219 C 88.90625 18.449219 13.074219 94.285156 13.074219 187.5 C 13.074219 280.714844 88.90625 356.546875 182.121094 356.546875 C 229.261719 356.546875 271.945312 337.148438 302.636719 305.921875 L 297.660156 292.519531 C 269.0625 323.949219 227.855469 343.707031 182.121094 343.707031 C 110.210938 343.707031 49.527344 294.847656 31.4375 228.589844 C 27.859375 215.488281 25.914062 201.71875 25.914062 187.5 C 25.914062 173.277344 27.859375 159.507812 31.4375 146.40625 C 49.527344 80.148438 110.210938 31.289062 182.121094 31.289062 C 254.035156 31.289062 314.714844 80.148438 332.804688 146.40625 C 336.382812 159.507812 338.332031 173.277344 338.332031 187.5 C 338.332031 201.71875 336.382812 215.488281 332.804688 228.589844 C 330.574219 236.765625 327.691406 244.667969 324.21875 252.253906 L 336.324219 256.75 C 345.859375 235.605469 351.171875 212.160156 351.171875 187.5 C 351.171875 94.285156 275.335938 18.449219 182.121094 18.449219 " fill-opacity="1" fill-rule="nonzero"/></g><g clip-path="url(#20523251eb)"><path fill="#ffffff" d="M 361.914062 311.503906 L 335.734375 285.324219 L 356.320312 273.671875 L 291.15625 249.464844 L 315.367188 314.628906 L 327.019531 294.042969 L 353.195312 320.21875 L 361.914062 311.503906 " fill-opacity="1" fill-rule="nonzero"/></g></svg>