<svg xmlns="http://www.w3.org/2000/svg" xmlns:xlink="http://www.w3.org/1999/xlink" width="500" zoomAndPan="magnify" viewBox="0 0 375 374.999991" height="500" preserveAspectRatio="xMidYMid meet" version="1.0"><defs><clipPath id="645486dc64"><path d="M 187.5 0 C 83.945312 0 0 83.945312 0 187.5 C 0 291.054688 83.945312 375 187.5 375 C 291.054688 375 375 291.054688 375 187.5 C 375 83.945312 291.054688 0 187.5 0 Z M 187.5 0 " clip-rule="nonzero"/></clipPath><clipPath id="32675202ef"><path d="M 49.484375 102 L 100 102 L 100 309.613281 L 49.484375 309.613281 Z M 49.484375 102 " clip-rule="nonzero"/></clipPath><clipPath id="3342a8448b"><path d="M 274 102 L 325.484375 102 L 325.484375 309.613281 L 274 309.613281 Z M 274 102 " clip-rule="nonzero"/></clipPath><clipPath id="bad765c081"><path d="M 150 165 L 209 165 L 209 309.613281 L 150 309.613281 Z M 150 165 " clip-rule="nonzero"/></clipPath><clipPath id="5bba437d97"><path d="M 147 46.363281 L 276 46.363281 L 276 240 L 147 240 Z M 147 46.363281 " clip-rule="nonzero"/></clipPath></defs><g clip-path="url(#645486dc64)"><rect x="-37.5" width="450" fill="#000000" y="-37.499999" height="449.999989" fill-opacity="1"/></g><g clip-path="url(#32675202ef)"><path fill="#000000" d="M 49.484375 102.105469 L 99.996094 102.105469 L 99.996094 309.230469 L 49.484375 309.230469 Z M 49.484375 102.105469 " fill-opacity="1" fill-rule="nonzero"/></g><g clip-path="url(#3342a8448b)"><path fill="#000000" d="M 274.996094 102.105469 L 325.507812 102.105469 L 325.507812 309.230469 L 274.996094 309.230469 Z M 274.996094 102.105469 " fill-opacity="1" fill-rule="nonzero"/></g><g clip-path="url(#bad765c081)"><path fill="#00bf63" d="M 150.894531 165.589844 C 153.492188 173.375 160.445312 191.976562 208.199219 309.230469 L 152.222656 309.230469 L 152.222656 262.96875 C 152.222656 227.085938 152.109375 191.589844 150.289062 165.535156 L 150.894531 165.535156 Z M 150.894531 165.589844 " fill-opacity="1" fill-rule="nonzero"/></g><g clip-path="url(#5bba437d97)"><path fill="#00bf63" d="M 224.484375 102.105469 L 275.382812 102.105469 L 224.757812 46.402344 L 147.417969 46.402344 C 187.054688 142.292969 222.277344 231.726562 224.484375 239.5625 L 225.53125 239.5625 C 224.429688 226.757812 224.316406 161.226562 224.484375 102.105469 Z M 224.484375 102.105469 " fill-opacity="1" fill-rule="nonzero"/></g></svg>